M48
;DRILL file {KiCad (5.0.2)-1} date 1/23/2019 10:16:38 PM
;FORMAT={-:-/ absolute / inch / decimal}
FMAT,2
INCH,TZ
T1C0.0138
T2C0.0157
T3C0.0394
T4C0.0787
%
G90
G05
T1
X-0.314Y0.7646
T2
X-0.461Y0.7388
X-0.3364Y0.8574
X-0.324Y0.2756
X-0.2746Y0.5752
X-0.239Y0.5428
X-0.1866Y0.4416
X-0.1854Y0.8316
X-0.1658Y0.8958
X-0.156Y0.5078
X-0.149Y0.9358
X-0.079Y1.0814
X-0.009Y0.7096
X0.0428Y0.9542
X0.0552Y0.574
X0.0808Y0.722
X0.2006Y0.4364
X0.2462Y0.7642
T3
X0.5954Y0.813
X0.5954Y0.713
X-0.449Y1.0664
X-0.349Y1.0664
X-0.249Y1.0664
X-0.149Y1.0664
X0.4832Y0.7122
X0.4832Y0.6122
T4
X0.Y1.1417
T0
M30
