G04 #@! TF.GenerationSoftware,KiCad,Pcbnew,(5.0.2)-1*
G04 #@! TF.CreationDate,2019-01-23T22:06:34-08:00*
G04 #@! TF.ProjectId,heart,68656172-742e-46b6-9963-61645f706362,rev?*
G04 #@! TF.SameCoordinates,Original*
G04 #@! TF.FileFunction,Legend,Bot*
G04 #@! TF.FilePolarity,Positive*
%FSLAX46Y46*%
G04 Gerber Fmt 4.6, Leading zero omitted, Abs format (unit mm)*
G04 Created by KiCad (PCBNEW (5.0.2)-1) date 1/23/2019 10:06:34 PM*
%MOMM*%
%LPD*%
G01*
G04 APERTURE LIST*
%ADD10C,0.300000*%
%ADD11C,0.200000*%
%ADD12C,0.150000*%
G04 APERTURE END LIST*
D10*
X9544097Y12898582D02*
X9044097Y12898582D01*
X8829811Y12112868D02*
X9544097Y12112868D01*
X9544097Y13612868D01*
X8829811Y13612868D01*
X7758382Y13612868D02*
X7758382Y12541440D01*
X7829811Y12327154D01*
X7972668Y12184297D01*
X8186954Y12112868D01*
X8329811Y12112868D01*
D11*
X8823912Y14879011D02*
X8062007Y14879011D01*
X8442960Y14498059D02*
X8442960Y15259963D01*
D10*
X9550102Y16412400D02*
X8835817Y16412400D01*
X9692960Y15983828D02*
X9192960Y17483828D01*
X8692960Y15983828D01*
X8192960Y15983828D02*
X8192960Y17483828D01*
X7835817Y17483828D01*
X7621531Y17412400D01*
X7478674Y17269542D01*
X7407245Y17126685D01*
X7335817Y16840971D01*
X7335817Y16626685D01*
X7407245Y16340971D01*
X7478674Y16198114D01*
X7621531Y16055257D01*
X7835817Y15983828D01*
X8192960Y15983828D01*
D12*
G04 #@! TO.C,BT1*
X6249440Y16139160D02*
G75*
G03X6249440Y16139160I-9460000J0D01*
G01*
X2789440Y16139160D02*
G75*
G03X2789440Y16139160I-6000000J0D01*
G01*
G04 #@! TO.C,SW2*
X12446000Y20518120D02*
X12446000Y21076920D01*
X12458700Y22588220D02*
X12458700Y23616920D01*
X12458700Y25102820D02*
X12458700Y26131520D01*
X12446000Y28214320D02*
X12446000Y27630120D01*
X6731000Y28227020D02*
X6731000Y27642820D01*
X6743700Y25115520D02*
X6743700Y26144220D01*
X6743700Y22600920D02*
X6743700Y23629620D01*
X6731000Y20530820D02*
X6731000Y21089620D01*
X12319000Y28239720D02*
X12446000Y28239720D01*
X6731000Y28227020D02*
X12331700Y28227020D01*
X6731000Y20518120D02*
X12407900Y20505420D01*
G04 #@! TO.C,BT1*
X-11208165Y23530868D02*
X-11351022Y23483249D01*
X-11398641Y23435630D01*
X-11446260Y23340392D01*
X-11446260Y23197535D01*
X-11398641Y23102297D01*
X-11351022Y23054678D01*
X-11255784Y23007059D01*
X-10874832Y23007059D01*
X-10874832Y24007059D01*
X-11208165Y24007059D01*
X-11303403Y23959440D01*
X-11351022Y23911820D01*
X-11398641Y23816582D01*
X-11398641Y23721344D01*
X-11351022Y23626106D01*
X-11303403Y23578487D01*
X-11208165Y23530868D01*
X-10874832Y23530868D01*
X-11731975Y24007059D02*
X-12303403Y24007059D01*
X-12017689Y23007059D02*
X-12017689Y24007059D01*
X-13160546Y23007059D02*
X-12589118Y23007059D01*
X-12874832Y23007059D02*
X-12874832Y24007059D01*
X-12779594Y23864201D01*
X-12684356Y23768963D01*
X-12589118Y23721344D01*
G04 #@! TO.C,SW2*
X5891161Y25600826D02*
X5938780Y25743683D01*
X5938780Y25981779D01*
X5891161Y26077017D01*
X5843542Y26124636D01*
X5748304Y26172255D01*
X5653066Y26172255D01*
X5557828Y26124636D01*
X5510209Y26077017D01*
X5462590Y25981779D01*
X5414971Y25791302D01*
X5367352Y25696064D01*
X5319733Y25648445D01*
X5224495Y25600826D01*
X5129257Y25600826D01*
X5034019Y25648445D01*
X4986400Y25696064D01*
X4938780Y25791302D01*
X4938780Y26029398D01*
X4986400Y26172255D01*
X4938780Y26505588D02*
X5938780Y26743683D01*
X5224495Y26934160D01*
X5938780Y27124636D01*
X4938780Y27362731D01*
X5034019Y27696064D02*
X4986400Y27743683D01*
X4938780Y27838921D01*
X4938780Y28077017D01*
X4986400Y28172255D01*
X5034019Y28219874D01*
X5129257Y28267493D01*
X5224495Y28267493D01*
X5367352Y28219874D01*
X5938780Y27648445D01*
X5938780Y28267493D01*
G04 #@! TD*
M02*
