G04 #@! TF.GenerationSoftware,KiCad,Pcbnew,(5.0.2)-1*
G04 #@! TF.CreationDate,2019-01-23T22:06:34-08:00*
G04 #@! TF.ProjectId,heart,68656172-742e-46b6-9963-61645f706362,rev?*
G04 #@! TF.SameCoordinates,Original*
G04 #@! TF.FileFunction,Soldermask,Bot*
G04 #@! TF.FilePolarity,Negative*
%FSLAX46Y46*%
G04 Gerber Fmt 4.6, Leading zero omitted, Abs format (unit mm)*
G04 Created by KiCad (PCBNEW (5.0.2)-1) date 1/23/2019 10:06:34 PM*
%MOMM*%
%LPD*%
G01*
G04 APERTURE LIST*
%ADD10C,0.100000*%
G04 APERTURE END LIST*
D10*
G36*
X-1179560Y14108160D02*
X-5241560Y14108160D01*
X-5241560Y18170160D01*
X-1179560Y18170160D01*
X-1179560Y14108160D01*
X-1179560Y14108160D01*
G37*
G36*
X6300440Y14498160D02*
X3018440Y14498160D01*
X3018440Y17780160D01*
X6300440Y17780160D01*
X6300440Y14498160D01*
X6300440Y14498160D01*
G37*
G36*
X-9439560Y14498160D02*
X-12721560Y14498160D01*
X-12721560Y17780160D01*
X-9439560Y17780160D01*
X-9439560Y14498160D01*
X-9439560Y14498160D01*
G37*
G36*
X12401869Y16417464D02*
X12528800Y16392216D01*
X12688222Y16326181D01*
X12831698Y16230314D01*
X12953714Y16108298D01*
X13049581Y15964822D01*
X13115616Y15805400D01*
X13149280Y15636159D01*
X13149280Y15463601D01*
X13115616Y15294360D01*
X13049581Y15134938D01*
X12953714Y14991462D01*
X12831698Y14869446D01*
X12688222Y14773579D01*
X12528800Y14707544D01*
X12401869Y14682296D01*
X12359560Y14673880D01*
X12187000Y14673880D01*
X12144691Y14682296D01*
X12017760Y14707544D01*
X11858338Y14773579D01*
X11714862Y14869446D01*
X11592846Y14991462D01*
X11496979Y15134938D01*
X11430944Y15294360D01*
X11397280Y15463601D01*
X11397280Y15636159D01*
X11430944Y15805400D01*
X11496979Y15964822D01*
X11592846Y16108298D01*
X11714862Y16230314D01*
X11858338Y16326181D01*
X12017760Y16392216D01*
X12144691Y16417464D01*
X12187000Y16425880D01*
X12359560Y16425880D01*
X12401869Y16417464D01*
X12401869Y16417464D01*
G37*
G36*
X12401869Y18957464D02*
X12528800Y18932216D01*
X12688222Y18866181D01*
X12831698Y18770314D01*
X12953714Y18648298D01*
X13049581Y18504822D01*
X13115616Y18345400D01*
X13149280Y18176159D01*
X13149280Y18003601D01*
X13115616Y17834360D01*
X13049581Y17674938D01*
X12953714Y17531462D01*
X12831698Y17409446D01*
X12688222Y17313579D01*
X12528800Y17247544D01*
X12401869Y17222296D01*
X12359560Y17213880D01*
X12187000Y17213880D01*
X12144691Y17222296D01*
X12017760Y17247544D01*
X11858338Y17313579D01*
X11714862Y17409446D01*
X11592846Y17531462D01*
X11496979Y17674938D01*
X11430944Y17834360D01*
X11397280Y18003601D01*
X11397280Y18176159D01*
X11430944Y18345400D01*
X11496979Y18504822D01*
X11592846Y18648298D01*
X11714862Y18770314D01*
X11858338Y18866181D01*
X12017760Y18932216D01*
X12144691Y18957464D01*
X12187000Y18965880D01*
X12359560Y18965880D01*
X12401869Y18957464D01*
X12401869Y18957464D01*
G37*
G36*
X15251749Y18977784D02*
X15378680Y18952536D01*
X15538102Y18886501D01*
X15681578Y18790634D01*
X15803594Y18668618D01*
X15899461Y18525142D01*
X15965496Y18365720D01*
X15999160Y18196479D01*
X15999160Y18023921D01*
X15965496Y17854680D01*
X15899461Y17695258D01*
X15803594Y17551782D01*
X15681578Y17429766D01*
X15538102Y17333899D01*
X15378680Y17267864D01*
X15251749Y17242616D01*
X15209440Y17234200D01*
X15036880Y17234200D01*
X14994571Y17242616D01*
X14867640Y17267864D01*
X14708218Y17333899D01*
X14564742Y17429766D01*
X14442726Y17551782D01*
X14346859Y17695258D01*
X14280824Y17854680D01*
X14247160Y18023921D01*
X14247160Y18196479D01*
X14280824Y18365720D01*
X14346859Y18525142D01*
X14442726Y18668618D01*
X14564742Y18790634D01*
X14708218Y18886501D01*
X14867640Y18952536D01*
X14994571Y18977784D01*
X15036880Y18986200D01*
X15209440Y18986200D01*
X15251749Y18977784D01*
X15251749Y18977784D01*
G37*
G36*
X15251749Y21517784D02*
X15378680Y21492536D01*
X15538102Y21426501D01*
X15681578Y21330634D01*
X15803594Y21208618D01*
X15899461Y21065142D01*
X15965496Y20905720D01*
X15999160Y20736479D01*
X15999160Y20563921D01*
X15965496Y20394680D01*
X15899461Y20235258D01*
X15803594Y20091782D01*
X15681578Y19969766D01*
X15538102Y19873899D01*
X15378680Y19807864D01*
X15251749Y19782616D01*
X15209440Y19774200D01*
X15036880Y19774200D01*
X14994571Y19782616D01*
X14867640Y19807864D01*
X14708218Y19873899D01*
X14564742Y19969766D01*
X14442726Y20091782D01*
X14346859Y20235258D01*
X14280824Y20394680D01*
X14247160Y20563921D01*
X14247160Y20736479D01*
X14280824Y20905720D01*
X14346859Y21065142D01*
X14442726Y21208618D01*
X14564742Y21330634D01*
X14708218Y21426501D01*
X14867640Y21492536D01*
X14994571Y21517784D01*
X15036880Y21526200D01*
X15209440Y21526200D01*
X15251749Y21517784D01*
X15251749Y21517784D01*
G37*
G36*
X13525200Y21227920D02*
X11923200Y21227920D01*
X11923200Y22529920D01*
X13525200Y22529920D01*
X13525200Y21227920D01*
X13525200Y21227920D01*
G37*
G36*
X7025200Y21227920D02*
X5423200Y21227920D01*
X5423200Y22529920D01*
X7025200Y22529920D01*
X7025200Y21227920D01*
X7025200Y21227920D01*
G37*
G36*
X13525200Y23727920D02*
X11923200Y23727920D01*
X11923200Y25029920D01*
X13525200Y25029920D01*
X13525200Y23727920D01*
X13525200Y23727920D01*
G37*
G36*
X7025200Y23727920D02*
X5423200Y23727920D01*
X5423200Y25029920D01*
X7025200Y25029920D01*
X7025200Y23727920D01*
X7025200Y23727920D01*
G37*
G36*
X-11276011Y27954144D02*
X-11149080Y27928896D01*
X-10989658Y27862861D01*
X-10846182Y27766994D01*
X-10724166Y27644978D01*
X-10628299Y27501502D01*
X-10562264Y27342080D01*
X-10528600Y27172839D01*
X-10528600Y27000281D01*
X-10562264Y26831040D01*
X-10628299Y26671618D01*
X-10724166Y26528142D01*
X-10846182Y26406126D01*
X-10989658Y26310259D01*
X-11149080Y26244224D01*
X-11276011Y26218976D01*
X-11318320Y26210560D01*
X-11490880Y26210560D01*
X-11533189Y26218976D01*
X-11660120Y26244224D01*
X-11819542Y26310259D01*
X-11963018Y26406126D01*
X-12085034Y26528142D01*
X-12180901Y26671618D01*
X-12246936Y26831040D01*
X-12280600Y27000281D01*
X-12280600Y27172839D01*
X-12246936Y27342080D01*
X-12180901Y27501502D01*
X-12085034Y27644978D01*
X-11963018Y27766994D01*
X-11819542Y27862861D01*
X-11660120Y27928896D01*
X-11533189Y27954144D01*
X-11490880Y27962560D01*
X-11318320Y27962560D01*
X-11276011Y27954144D01*
X-11276011Y27954144D01*
G37*
G36*
X-8736011Y27954144D02*
X-8609080Y27928896D01*
X-8449658Y27862861D01*
X-8306182Y27766994D01*
X-8184166Y27644978D01*
X-8088299Y27501502D01*
X-8022264Y27342080D01*
X-7988600Y27172839D01*
X-7988600Y27000281D01*
X-8022264Y26831040D01*
X-8088299Y26671618D01*
X-8184166Y26528142D01*
X-8306182Y26406126D01*
X-8449658Y26310259D01*
X-8609080Y26244224D01*
X-8736011Y26218976D01*
X-8778320Y26210560D01*
X-8950880Y26210560D01*
X-8993189Y26218976D01*
X-9120120Y26244224D01*
X-9279542Y26310259D01*
X-9423018Y26406126D01*
X-9545034Y26528142D01*
X-9640901Y26671618D01*
X-9706936Y26831040D01*
X-9740600Y27000281D01*
X-9740600Y27172839D01*
X-9706936Y27342080D01*
X-9640901Y27501502D01*
X-9545034Y27644978D01*
X-9423018Y27766994D01*
X-9279542Y27862861D01*
X-9120120Y27928896D01*
X-8993189Y27954144D01*
X-8950880Y27962560D01*
X-8778320Y27962560D01*
X-8736011Y27954144D01*
X-8736011Y27954144D01*
G37*
G36*
X-6196011Y27954144D02*
X-6069080Y27928896D01*
X-5909658Y27862861D01*
X-5766182Y27766994D01*
X-5644166Y27644978D01*
X-5548299Y27501502D01*
X-5482264Y27342080D01*
X-5448600Y27172839D01*
X-5448600Y27000281D01*
X-5482264Y26831040D01*
X-5548299Y26671618D01*
X-5644166Y26528142D01*
X-5766182Y26406126D01*
X-5909658Y26310259D01*
X-6069080Y26244224D01*
X-6196011Y26218976D01*
X-6238320Y26210560D01*
X-6410880Y26210560D01*
X-6453189Y26218976D01*
X-6580120Y26244224D01*
X-6739542Y26310259D01*
X-6883018Y26406126D01*
X-7005034Y26528142D01*
X-7100901Y26671618D01*
X-7166936Y26831040D01*
X-7200600Y27000281D01*
X-7200600Y27172839D01*
X-7166936Y27342080D01*
X-7100901Y27501502D01*
X-7005034Y27644978D01*
X-6883018Y27766994D01*
X-6739542Y27862861D01*
X-6580120Y27928896D01*
X-6453189Y27954144D01*
X-6410880Y27962560D01*
X-6238320Y27962560D01*
X-6196011Y27954144D01*
X-6196011Y27954144D01*
G37*
G36*
X-3656011Y27954144D02*
X-3529080Y27928896D01*
X-3369658Y27862861D01*
X-3226182Y27766994D01*
X-3104166Y27644978D01*
X-3008299Y27501502D01*
X-2942264Y27342080D01*
X-2908600Y27172839D01*
X-2908600Y27000281D01*
X-2942264Y26831040D01*
X-3008299Y26671618D01*
X-3104166Y26528142D01*
X-3226182Y26406126D01*
X-3369658Y26310259D01*
X-3529080Y26244224D01*
X-3656011Y26218976D01*
X-3698320Y26210560D01*
X-3870880Y26210560D01*
X-3913189Y26218976D01*
X-4040120Y26244224D01*
X-4199542Y26310259D01*
X-4343018Y26406126D01*
X-4465034Y26528142D01*
X-4560901Y26671618D01*
X-4626936Y26831040D01*
X-4660600Y27000281D01*
X-4660600Y27172839D01*
X-4626936Y27342080D01*
X-4560901Y27501502D01*
X-4465034Y27644978D01*
X-4343018Y27766994D01*
X-4199542Y27862861D01*
X-4040120Y27928896D01*
X-3913189Y27954144D01*
X-3870880Y27962560D01*
X-3698320Y27962560D01*
X-3656011Y27954144D01*
X-3656011Y27954144D01*
G37*
G36*
X7025200Y26227920D02*
X5423200Y26227920D01*
X5423200Y27529920D01*
X7025200Y27529920D01*
X7025200Y26227920D01*
X7025200Y26227920D01*
G37*
G36*
X13525200Y26227920D02*
X11923200Y26227920D01*
X11923200Y27529920D01*
X13525200Y27529920D01*
X13525200Y26227920D01*
X13525200Y26227920D01*
G37*
G36*
X379485Y30251004D02*
X379487Y30251003D01*
X379488Y30251003D01*
X616255Y30152931D01*
X829342Y30010551D01*
X1010551Y29829342D01*
X1152931Y29616255D01*
X1251004Y29379485D01*
X1301000Y29128139D01*
X1301000Y28871861D01*
X1251004Y28620515D01*
X1152931Y28383745D01*
X1010551Y28170658D01*
X829342Y27989449D01*
X829339Y27989447D01*
X616255Y27847069D01*
X379488Y27748997D01*
X379487Y27748997D01*
X379485Y27748996D01*
X128139Y27699000D01*
X-128139Y27699000D01*
X-379485Y27748996D01*
X-379487Y27748997D01*
X-379488Y27748997D01*
X-616255Y27847069D01*
X-829339Y27989447D01*
X-829342Y27989449D01*
X-1010551Y28170658D01*
X-1152931Y28383745D01*
X-1251004Y28620515D01*
X-1301000Y28871861D01*
X-1301000Y29128139D01*
X-1251004Y29379485D01*
X-1152931Y29616255D01*
X-1010551Y29829342D01*
X-829342Y30010551D01*
X-616255Y30152931D01*
X-379488Y30251003D01*
X-379487Y30251003D01*
X-379485Y30251004D01*
X-128139Y30301000D01*
X128139Y30301000D01*
X379485Y30251004D01*
X379485Y30251004D01*
G37*
M02*
