G04 #@! TF.GenerationSoftware,KiCad,Pcbnew,(5.0.2)-1*
G04 #@! TF.CreationDate,2019-01-23T22:06:34-08:00*
G04 #@! TF.ProjectId,heart,68656172-742e-46b6-9963-61645f706362,rev?*
G04 #@! TF.SameCoordinates,Original*
G04 #@! TF.FileFunction,Copper,L1,Top*
G04 #@! TF.FilePolarity,Positive*
%FSLAX46Y46*%
G04 Gerber Fmt 4.6, Leading zero omitted, Abs format (unit mm)*
G04 Created by KiCad (PCBNEW (5.0.2)-1) date 1/23/2019 10:06:34 PM*
%MOMM*%
%LPD*%
G01*
G04 APERTURE LIST*
G04 #@! TA.AperFunction,ComponentPad*
%ADD10C,1.650000*%
G04 #@! TD*
G04 #@! TA.AperFunction,Conductor*
%ADD11C,0.100000*%
G04 #@! TD*
G04 #@! TA.AperFunction,SMDPad,CuDef*
%ADD12C,0.975000*%
G04 #@! TD*
G04 #@! TA.AperFunction,WasherPad*
%ADD13C,2.500000*%
G04 #@! TD*
G04 #@! TA.AperFunction,SMDPad,CuDef*
%ADD14R,2.000000X4.500000*%
G04 #@! TD*
G04 #@! TA.AperFunction,SMDPad,CuDef*
%ADD15R,0.600000X1.200000*%
G04 #@! TD*
G04 #@! TA.AperFunction,SMDPad,CuDef*
%ADD16R,1.200000X0.600000*%
G04 #@! TD*
G04 #@! TA.AperFunction,SMDPad,CuDef*
%ADD17C,1.600000*%
G04 #@! TD*
G04 #@! TA.AperFunction,ViaPad*
%ADD18C,0.800000*%
G04 #@! TD*
G04 #@! TA.AperFunction,ViaPad*
%ADD19C,0.650000*%
G04 #@! TD*
G04 #@! TA.AperFunction,Conductor*
%ADD20C,0.250000*%
G04 #@! TD*
G04 #@! TA.AperFunction,Conductor*
%ADD21C,0.254000*%
G04 #@! TD*
G04 APERTURE END LIST*
D10*
G04 #@! TO.P,J1,2*
G04 #@! TO.N,Earth*
X12273280Y18089880D03*
G04 #@! TO.P,J1,1*
G04 #@! TO.N,/PWR_IN*
X12273280Y15549880D03*
G04 #@! TD*
D11*
G04 #@! TO.N,/PB3*
G04 #@! TO.C,D5*
G36*
X-3543218Y10222386D02*
X-3519557Y10218876D01*
X-3496353Y10213064D01*
X-3473831Y10205006D01*
X-3452207Y10194778D01*
X-3431690Y10182481D01*
X-3412477Y10168231D01*
X-3394753Y10152167D01*
X-3378689Y10134443D01*
X-3364439Y10115230D01*
X-3352142Y10094713D01*
X-3341914Y10073089D01*
X-3333856Y10050567D01*
X-3328044Y10027363D01*
X-3324534Y10003702D01*
X-3323360Y9979810D01*
X-3323360Y9492310D01*
X-3324534Y9468418D01*
X-3328044Y9444757D01*
X-3333856Y9421553D01*
X-3341914Y9399031D01*
X-3352142Y9377407D01*
X-3364439Y9356890D01*
X-3378689Y9337677D01*
X-3394753Y9319953D01*
X-3412477Y9303889D01*
X-3431690Y9289639D01*
X-3452207Y9277342D01*
X-3473831Y9267114D01*
X-3496353Y9259056D01*
X-3519557Y9253244D01*
X-3543218Y9249734D01*
X-3567110Y9248560D01*
X-4479610Y9248560D01*
X-4503502Y9249734D01*
X-4527163Y9253244D01*
X-4550367Y9259056D01*
X-4572889Y9267114D01*
X-4594513Y9277342D01*
X-4615030Y9289639D01*
X-4634243Y9303889D01*
X-4651967Y9319953D01*
X-4668031Y9337677D01*
X-4682281Y9356890D01*
X-4694578Y9377407D01*
X-4704806Y9399031D01*
X-4712864Y9421553D01*
X-4718676Y9444757D01*
X-4722186Y9468418D01*
X-4723360Y9492310D01*
X-4723360Y9979810D01*
X-4722186Y10003702D01*
X-4718676Y10027363D01*
X-4712864Y10050567D01*
X-4704806Y10073089D01*
X-4694578Y10094713D01*
X-4682281Y10115230D01*
X-4668031Y10134443D01*
X-4651967Y10152167D01*
X-4634243Y10168231D01*
X-4615030Y10182481D01*
X-4594513Y10194778D01*
X-4572889Y10205006D01*
X-4550367Y10213064D01*
X-4527163Y10218876D01*
X-4503502Y10222386D01*
X-4479610Y10223560D01*
X-3567110Y10223560D01*
X-3543218Y10222386D01*
X-3543218Y10222386D01*
G37*
D12*
G04 #@! TD*
G04 #@! TO.P,D5,2*
G04 #@! TO.N,/PB3*
X-4023360Y9736060D03*
D11*
G04 #@! TO.N,Net-(D5-Pad1)*
G04 #@! TO.C,D5*
G36*
X-3543218Y8347386D02*
X-3519557Y8343876D01*
X-3496353Y8338064D01*
X-3473831Y8330006D01*
X-3452207Y8319778D01*
X-3431690Y8307481D01*
X-3412477Y8293231D01*
X-3394753Y8277167D01*
X-3378689Y8259443D01*
X-3364439Y8240230D01*
X-3352142Y8219713D01*
X-3341914Y8198089D01*
X-3333856Y8175567D01*
X-3328044Y8152363D01*
X-3324534Y8128702D01*
X-3323360Y8104810D01*
X-3323360Y7617310D01*
X-3324534Y7593418D01*
X-3328044Y7569757D01*
X-3333856Y7546553D01*
X-3341914Y7524031D01*
X-3352142Y7502407D01*
X-3364439Y7481890D01*
X-3378689Y7462677D01*
X-3394753Y7444953D01*
X-3412477Y7428889D01*
X-3431690Y7414639D01*
X-3452207Y7402342D01*
X-3473831Y7392114D01*
X-3496353Y7384056D01*
X-3519557Y7378244D01*
X-3543218Y7374734D01*
X-3567110Y7373560D01*
X-4479610Y7373560D01*
X-4503502Y7374734D01*
X-4527163Y7378244D01*
X-4550367Y7384056D01*
X-4572889Y7392114D01*
X-4594513Y7402342D01*
X-4615030Y7414639D01*
X-4634243Y7428889D01*
X-4651967Y7444953D01*
X-4668031Y7462677D01*
X-4682281Y7481890D01*
X-4694578Y7502407D01*
X-4704806Y7524031D01*
X-4712864Y7546553D01*
X-4718676Y7569757D01*
X-4722186Y7593418D01*
X-4723360Y7617310D01*
X-4723360Y8104810D01*
X-4722186Y8128702D01*
X-4718676Y8152363D01*
X-4712864Y8175567D01*
X-4704806Y8198089D01*
X-4694578Y8219713D01*
X-4682281Y8240230D01*
X-4668031Y8259443D01*
X-4651967Y8277167D01*
X-4634243Y8293231D01*
X-4615030Y8307481D01*
X-4594513Y8319778D01*
X-4572889Y8330006D01*
X-4550367Y8338064D01*
X-4527163Y8343876D01*
X-4503502Y8347386D01*
X-4479610Y8348560D01*
X-3567110Y8348560D01*
X-3543218Y8347386D01*
X-3543218Y8347386D01*
G37*
D12*
G04 #@! TD*
G04 #@! TO.P,D5,1*
G04 #@! TO.N,Net-(D5-Pad1)*
X-4023360Y7861060D03*
D11*
G04 #@! TO.N,Net-(D5-Pad1)*
G04 #@! TO.C,R8*
G36*
X-3543218Y6519066D02*
X-3519557Y6515556D01*
X-3496353Y6509744D01*
X-3473831Y6501686D01*
X-3452207Y6491458D01*
X-3431690Y6479161D01*
X-3412477Y6464911D01*
X-3394753Y6448847D01*
X-3378689Y6431123D01*
X-3364439Y6411910D01*
X-3352142Y6391393D01*
X-3341914Y6369769D01*
X-3333856Y6347247D01*
X-3328044Y6324043D01*
X-3324534Y6300382D01*
X-3323360Y6276490D01*
X-3323360Y5788990D01*
X-3324534Y5765098D01*
X-3328044Y5741437D01*
X-3333856Y5718233D01*
X-3341914Y5695711D01*
X-3352142Y5674087D01*
X-3364439Y5653570D01*
X-3378689Y5634357D01*
X-3394753Y5616633D01*
X-3412477Y5600569D01*
X-3431690Y5586319D01*
X-3452207Y5574022D01*
X-3473831Y5563794D01*
X-3496353Y5555736D01*
X-3519557Y5549924D01*
X-3543218Y5546414D01*
X-3567110Y5545240D01*
X-4479610Y5545240D01*
X-4503502Y5546414D01*
X-4527163Y5549924D01*
X-4550367Y5555736D01*
X-4572889Y5563794D01*
X-4594513Y5574022D01*
X-4615030Y5586319D01*
X-4634243Y5600569D01*
X-4651967Y5616633D01*
X-4668031Y5634357D01*
X-4682281Y5653570D01*
X-4694578Y5674087D01*
X-4704806Y5695711D01*
X-4712864Y5718233D01*
X-4718676Y5741437D01*
X-4722186Y5765098D01*
X-4723360Y5788990D01*
X-4723360Y6276490D01*
X-4722186Y6300382D01*
X-4718676Y6324043D01*
X-4712864Y6347247D01*
X-4704806Y6369769D01*
X-4694578Y6391393D01*
X-4682281Y6411910D01*
X-4668031Y6431123D01*
X-4651967Y6448847D01*
X-4634243Y6464911D01*
X-4615030Y6479161D01*
X-4594513Y6491458D01*
X-4572889Y6501686D01*
X-4550367Y6509744D01*
X-4527163Y6515556D01*
X-4503502Y6519066D01*
X-4479610Y6520240D01*
X-3567110Y6520240D01*
X-3543218Y6519066D01*
X-3543218Y6519066D01*
G37*
D12*
G04 #@! TD*
G04 #@! TO.P,R8,2*
G04 #@! TO.N,Net-(D5-Pad1)*
X-4023360Y6032740D03*
D11*
G04 #@! TO.N,Earth*
G04 #@! TO.C,R8*
G36*
X-3543218Y4644066D02*
X-3519557Y4640556D01*
X-3496353Y4634744D01*
X-3473831Y4626686D01*
X-3452207Y4616458D01*
X-3431690Y4604161D01*
X-3412477Y4589911D01*
X-3394753Y4573847D01*
X-3378689Y4556123D01*
X-3364439Y4536910D01*
X-3352142Y4516393D01*
X-3341914Y4494769D01*
X-3333856Y4472247D01*
X-3328044Y4449043D01*
X-3324534Y4425382D01*
X-3323360Y4401490D01*
X-3323360Y3913990D01*
X-3324534Y3890098D01*
X-3328044Y3866437D01*
X-3333856Y3843233D01*
X-3341914Y3820711D01*
X-3352142Y3799087D01*
X-3364439Y3778570D01*
X-3378689Y3759357D01*
X-3394753Y3741633D01*
X-3412477Y3725569D01*
X-3431690Y3711319D01*
X-3452207Y3699022D01*
X-3473831Y3688794D01*
X-3496353Y3680736D01*
X-3519557Y3674924D01*
X-3543218Y3671414D01*
X-3567110Y3670240D01*
X-4479610Y3670240D01*
X-4503502Y3671414D01*
X-4527163Y3674924D01*
X-4550367Y3680736D01*
X-4572889Y3688794D01*
X-4594513Y3699022D01*
X-4615030Y3711319D01*
X-4634243Y3725569D01*
X-4651967Y3741633D01*
X-4668031Y3759357D01*
X-4682281Y3778570D01*
X-4694578Y3799087D01*
X-4704806Y3820711D01*
X-4712864Y3843233D01*
X-4718676Y3866437D01*
X-4722186Y3890098D01*
X-4723360Y3913990D01*
X-4723360Y4401490D01*
X-4722186Y4425382D01*
X-4718676Y4449043D01*
X-4712864Y4472247D01*
X-4704806Y4494769D01*
X-4694578Y4516393D01*
X-4682281Y4536910D01*
X-4668031Y4556123D01*
X-4651967Y4573847D01*
X-4634243Y4589911D01*
X-4615030Y4604161D01*
X-4594513Y4616458D01*
X-4572889Y4626686D01*
X-4550367Y4634744D01*
X-4527163Y4640556D01*
X-4503502Y4644066D01*
X-4479610Y4645240D01*
X-3567110Y4645240D01*
X-3543218Y4644066D01*
X-3543218Y4644066D01*
G37*
D12*
G04 #@! TD*
G04 #@! TO.P,R8,1*
G04 #@! TO.N,Earth*
X-4023360Y4157740D03*
D13*
G04 #@! TO.P,MH1,*
G04 #@! TO.N,*
X0Y29000000D03*
G04 #@! TD*
D14*
G04 #@! TO.P,X1,2*
G04 #@! TO.N,/PA1*
X-10734040Y22751360D03*
G04 #@! TO.P,X1,1*
G04 #@! TO.N,Net-(C2-Pad2)*
X-10734040Y14251360D03*
G04 #@! TD*
D10*
G04 #@! TO.P,SW1,2*
G04 #@! TO.N,Earth*
X15123160Y20650200D03*
G04 #@! TO.P,SW1,1*
G04 #@! TO.N,/PB7*
X15123160Y18110200D03*
G04 #@! TD*
D15*
G04 #@! TO.P,U1,32*
G04 #@! TO.N,/PD7*
X-2800000Y21250000D03*
G04 #@! TO.P,U1,31*
G04 #@! TO.N,/PD6*
X-2000000Y21250000D03*
G04 #@! TO.P,U1,30*
G04 #@! TO.N,/PD5*
X-1200000Y21250000D03*
G04 #@! TO.P,U1,29*
G04 #@! TO.N,/PD4*
X-400000Y21250000D03*
G04 #@! TO.P,U1,28*
G04 #@! TO.N,/PD3*
X400000Y21250000D03*
G04 #@! TO.P,U1,27*
G04 #@! TO.N,/PD2*
X1200000Y21250000D03*
G04 #@! TO.P,U1,26*
G04 #@! TO.N,/PS1*
X2000000Y21250000D03*
G04 #@! TO.P,U1,25*
G04 #@! TO.N,/PD0*
X2800000Y21250000D03*
D16*
G04 #@! TO.P,U1,24*
G04 #@! TO.N,/PC7*
X4250000Y19800000D03*
G04 #@! TO.P,U1,23*
G04 #@! TO.N,/PC6*
X4250000Y19000000D03*
G04 #@! TO.P,U1,22*
G04 #@! TO.N,/PC5*
X4250000Y18200000D03*
G04 #@! TO.P,U1,21*
G04 #@! TO.N,/PC4*
X4250000Y17400000D03*
G04 #@! TO.P,U1,20*
G04 #@! TO.N,/PC3*
X4250000Y16600000D03*
G04 #@! TO.P,U1,19*
G04 #@! TO.N,/PC2*
X4250000Y15800000D03*
G04 #@! TO.P,U1,18*
G04 #@! TO.N,/PC1*
X4250000Y15000000D03*
G04 #@! TO.P,U1,17*
G04 #@! TO.N,/PE5*
X4250000Y14200000D03*
D15*
G04 #@! TO.P,U1,16*
G04 #@! TO.N,/PB0*
X2800000Y12750000D03*
G04 #@! TO.P,U1,15*
G04 #@! TO.N,/PB1*
X2000000Y12750000D03*
G04 #@! TO.P,U1,14*
G04 #@! TO.N,/PB2*
X1200000Y12750000D03*
G04 #@! TO.P,U1,13*
G04 #@! TO.N,/PB3*
X400000Y12750000D03*
G04 #@! TO.P,U1,12*
G04 #@! TO.N,/PB4*
X-400000Y12750000D03*
G04 #@! TO.P,U1,11*
G04 #@! TO.N,/PB5*
X-1200000Y12750000D03*
G04 #@! TO.P,U1,10*
G04 #@! TO.N,/PB6*
X-2000000Y12750000D03*
G04 #@! TO.P,U1,9*
G04 #@! TO.N,/PB7*
X-2800000Y12750000D03*
D16*
G04 #@! TO.P,U1,8*
G04 #@! TO.N,/PA4*
X-4250000Y14200000D03*
G04 #@! TO.P,U1,7*
G04 #@! TO.N,/PA3*
X-4250000Y15000000D03*
G04 #@! TO.P,U1,6*
G04 #@! TO.N,Net-(C6-Pad1)*
X-4250000Y15800000D03*
G04 #@! TO.P,U1,5*
G04 #@! TO.N,Net-(C5-Pad1)*
X-4250000Y16600000D03*
G04 #@! TO.P,U1,4*
G04 #@! TO.N,Earth*
X-4250000Y17400000D03*
G04 #@! TO.P,U1,3*
G04 #@! TO.N,/PA2*
X-4250000Y18200000D03*
G04 #@! TO.P,U1,2*
G04 #@! TO.N,/PA1*
X-4250000Y19000000D03*
G04 #@! TO.P,U1,1*
G04 #@! TO.N,/NRST*
X-4250000Y19800000D03*
G04 #@! TD*
D11*
G04 #@! TO.N,Earth*
G04 #@! TO.C,C5*
G36*
X10002984Y23175316D02*
X10027253Y23171716D01*
X10051051Y23165755D01*
X10074151Y23157490D01*
X10096329Y23147000D01*
X10117373Y23134387D01*
X10137078Y23119773D01*
X10155257Y23103297D01*
X10171733Y23085118D01*
X10186347Y23065413D01*
X10198960Y23044369D01*
X10209450Y23022191D01*
X10217715Y22999091D01*
X10223676Y22975293D01*
X10227276Y22951024D01*
X10228480Y22926520D01*
X10228480Y19926520D01*
X10227276Y19902016D01*
X10223676Y19877747D01*
X10217715Y19853949D01*
X10209450Y19830849D01*
X10198960Y19808671D01*
X10186347Y19787627D01*
X10171733Y19767922D01*
X10155257Y19749743D01*
X10137078Y19733267D01*
X10117373Y19718653D01*
X10096329Y19706040D01*
X10074151Y19695550D01*
X10051051Y19687285D01*
X10027253Y19681324D01*
X10002984Y19677724D01*
X9978480Y19676520D01*
X8878480Y19676520D01*
X8853976Y19677724D01*
X8829707Y19681324D01*
X8805909Y19687285D01*
X8782809Y19695550D01*
X8760631Y19706040D01*
X8739587Y19718653D01*
X8719882Y19733267D01*
X8701703Y19749743D01*
X8685227Y19767922D01*
X8670613Y19787627D01*
X8658000Y19808671D01*
X8647510Y19830849D01*
X8639245Y19853949D01*
X8633284Y19877747D01*
X8629684Y19902016D01*
X8628480Y19926520D01*
X8628480Y22926520D01*
X8629684Y22951024D01*
X8633284Y22975293D01*
X8639245Y22999091D01*
X8647510Y23022191D01*
X8658000Y23044369D01*
X8670613Y23065413D01*
X8685227Y23085118D01*
X8701703Y23103297D01*
X8719882Y23119773D01*
X8739587Y23134387D01*
X8760631Y23147000D01*
X8782809Y23157490D01*
X8805909Y23165755D01*
X8829707Y23171716D01*
X8853976Y23175316D01*
X8878480Y23176520D01*
X9978480Y23176520D01*
X10002984Y23175316D01*
X10002984Y23175316D01*
G37*
D17*
G04 #@! TD*
G04 #@! TO.P,C5,2*
G04 #@! TO.N,Earth*
X9428480Y21426520D03*
D11*
G04 #@! TO.N,Net-(C5-Pad1)*
G04 #@! TO.C,C5*
G36*
X10002984Y28775316D02*
X10027253Y28771716D01*
X10051051Y28765755D01*
X10074151Y28757490D01*
X10096329Y28747000D01*
X10117373Y28734387D01*
X10137078Y28719773D01*
X10155257Y28703297D01*
X10171733Y28685118D01*
X10186347Y28665413D01*
X10198960Y28644369D01*
X10209450Y28622191D01*
X10217715Y28599091D01*
X10223676Y28575293D01*
X10227276Y28551024D01*
X10228480Y28526520D01*
X10228480Y25526520D01*
X10227276Y25502016D01*
X10223676Y25477747D01*
X10217715Y25453949D01*
X10209450Y25430849D01*
X10198960Y25408671D01*
X10186347Y25387627D01*
X10171733Y25367922D01*
X10155257Y25349743D01*
X10137078Y25333267D01*
X10117373Y25318653D01*
X10096329Y25306040D01*
X10074151Y25295550D01*
X10051051Y25287285D01*
X10027253Y25281324D01*
X10002984Y25277724D01*
X9978480Y25276520D01*
X8878480Y25276520D01*
X8853976Y25277724D01*
X8829707Y25281324D01*
X8805909Y25287285D01*
X8782809Y25295550D01*
X8760631Y25306040D01*
X8739587Y25318653D01*
X8719882Y25333267D01*
X8701703Y25349743D01*
X8685227Y25367922D01*
X8670613Y25387627D01*
X8658000Y25408671D01*
X8647510Y25430849D01*
X8639245Y25453949D01*
X8633284Y25477747D01*
X8629684Y25502016D01*
X8628480Y25526520D01*
X8628480Y28526520D01*
X8629684Y28551024D01*
X8633284Y28575293D01*
X8639245Y28599091D01*
X8647510Y28622191D01*
X8658000Y28644369D01*
X8670613Y28665413D01*
X8685227Y28685118D01*
X8701703Y28703297D01*
X8719882Y28719773D01*
X8739587Y28734387D01*
X8760631Y28747000D01*
X8782809Y28757490D01*
X8805909Y28765755D01*
X8829707Y28771716D01*
X8853976Y28775316D01*
X8878480Y28776520D01*
X9978480Y28776520D01*
X10002984Y28775316D01*
X10002984Y28775316D01*
G37*
D17*
G04 #@! TD*
G04 #@! TO.P,C5,1*
G04 #@! TO.N,Net-(C5-Pad1)*
X9428480Y27026520D03*
D11*
G04 #@! TO.N,/PA1*
G04 #@! TO.C,C1*
G36*
X-14505858Y23404986D02*
X-14482197Y23401476D01*
X-14458993Y23395664D01*
X-14436471Y23387606D01*
X-14414847Y23377378D01*
X-14394330Y23365081D01*
X-14375117Y23350831D01*
X-14357393Y23334767D01*
X-14341329Y23317043D01*
X-14327079Y23297830D01*
X-14314782Y23277313D01*
X-14304554Y23255689D01*
X-14296496Y23233167D01*
X-14290684Y23209963D01*
X-14287174Y23186302D01*
X-14286000Y23162410D01*
X-14286000Y22674910D01*
X-14287174Y22651018D01*
X-14290684Y22627357D01*
X-14296496Y22604153D01*
X-14304554Y22581631D01*
X-14314782Y22560007D01*
X-14327079Y22539490D01*
X-14341329Y22520277D01*
X-14357393Y22502553D01*
X-14375117Y22486489D01*
X-14394330Y22472239D01*
X-14414847Y22459942D01*
X-14436471Y22449714D01*
X-14458993Y22441656D01*
X-14482197Y22435844D01*
X-14505858Y22432334D01*
X-14529750Y22431160D01*
X-15442250Y22431160D01*
X-15466142Y22432334D01*
X-15489803Y22435844D01*
X-15513007Y22441656D01*
X-15535529Y22449714D01*
X-15557153Y22459942D01*
X-15577670Y22472239D01*
X-15596883Y22486489D01*
X-15614607Y22502553D01*
X-15630671Y22520277D01*
X-15644921Y22539490D01*
X-15657218Y22560007D01*
X-15667446Y22581631D01*
X-15675504Y22604153D01*
X-15681316Y22627357D01*
X-15684826Y22651018D01*
X-15686000Y22674910D01*
X-15686000Y23162410D01*
X-15684826Y23186302D01*
X-15681316Y23209963D01*
X-15675504Y23233167D01*
X-15667446Y23255689D01*
X-15657218Y23277313D01*
X-15644921Y23297830D01*
X-15630671Y23317043D01*
X-15614607Y23334767D01*
X-15596883Y23350831D01*
X-15577670Y23365081D01*
X-15557153Y23377378D01*
X-15535529Y23387606D01*
X-15513007Y23395664D01*
X-15489803Y23401476D01*
X-15466142Y23404986D01*
X-15442250Y23406160D01*
X-14529750Y23406160D01*
X-14505858Y23404986D01*
X-14505858Y23404986D01*
G37*
D12*
G04 #@! TD*
G04 #@! TO.P,C1,2*
G04 #@! TO.N,/PA1*
X-14986000Y22918660D03*
D11*
G04 #@! TO.N,Earth*
G04 #@! TO.C,C1*
G36*
X-14505858Y21529986D02*
X-14482197Y21526476D01*
X-14458993Y21520664D01*
X-14436471Y21512606D01*
X-14414847Y21502378D01*
X-14394330Y21490081D01*
X-14375117Y21475831D01*
X-14357393Y21459767D01*
X-14341329Y21442043D01*
X-14327079Y21422830D01*
X-14314782Y21402313D01*
X-14304554Y21380689D01*
X-14296496Y21358167D01*
X-14290684Y21334963D01*
X-14287174Y21311302D01*
X-14286000Y21287410D01*
X-14286000Y20799910D01*
X-14287174Y20776018D01*
X-14290684Y20752357D01*
X-14296496Y20729153D01*
X-14304554Y20706631D01*
X-14314782Y20685007D01*
X-14327079Y20664490D01*
X-14341329Y20645277D01*
X-14357393Y20627553D01*
X-14375117Y20611489D01*
X-14394330Y20597239D01*
X-14414847Y20584942D01*
X-14436471Y20574714D01*
X-14458993Y20566656D01*
X-14482197Y20560844D01*
X-14505858Y20557334D01*
X-14529750Y20556160D01*
X-15442250Y20556160D01*
X-15466142Y20557334D01*
X-15489803Y20560844D01*
X-15513007Y20566656D01*
X-15535529Y20574714D01*
X-15557153Y20584942D01*
X-15577670Y20597239D01*
X-15596883Y20611489D01*
X-15614607Y20627553D01*
X-15630671Y20645277D01*
X-15644921Y20664490D01*
X-15657218Y20685007D01*
X-15667446Y20706631D01*
X-15675504Y20729153D01*
X-15681316Y20752357D01*
X-15684826Y20776018D01*
X-15686000Y20799910D01*
X-15686000Y21287410D01*
X-15684826Y21311302D01*
X-15681316Y21334963D01*
X-15675504Y21358167D01*
X-15667446Y21380689D01*
X-15657218Y21402313D01*
X-15644921Y21422830D01*
X-15630671Y21442043D01*
X-15614607Y21459767D01*
X-15596883Y21475831D01*
X-15577670Y21490081D01*
X-15557153Y21502378D01*
X-15535529Y21512606D01*
X-15513007Y21520664D01*
X-15489803Y21526476D01*
X-15466142Y21529986D01*
X-15442250Y21531160D01*
X-14529750Y21531160D01*
X-14505858Y21529986D01*
X-14505858Y21529986D01*
G37*
D12*
G04 #@! TD*
G04 #@! TO.P,C1,1*
G04 #@! TO.N,Earth*
X-14986000Y21043660D03*
D11*
G04 #@! TO.N,Net-(C2-Pad2)*
G04 #@! TO.C,C2*
G36*
X-14582058Y17034186D02*
X-14558397Y17030676D01*
X-14535193Y17024864D01*
X-14512671Y17016806D01*
X-14491047Y17006578D01*
X-14470530Y16994281D01*
X-14451317Y16980031D01*
X-14433593Y16963967D01*
X-14417529Y16946243D01*
X-14403279Y16927030D01*
X-14390982Y16906513D01*
X-14380754Y16884889D01*
X-14372696Y16862367D01*
X-14366884Y16839163D01*
X-14363374Y16815502D01*
X-14362200Y16791610D01*
X-14362200Y16304110D01*
X-14363374Y16280218D01*
X-14366884Y16256557D01*
X-14372696Y16233353D01*
X-14380754Y16210831D01*
X-14390982Y16189207D01*
X-14403279Y16168690D01*
X-14417529Y16149477D01*
X-14433593Y16131753D01*
X-14451317Y16115689D01*
X-14470530Y16101439D01*
X-14491047Y16089142D01*
X-14512671Y16078914D01*
X-14535193Y16070856D01*
X-14558397Y16065044D01*
X-14582058Y16061534D01*
X-14605950Y16060360D01*
X-15518450Y16060360D01*
X-15542342Y16061534D01*
X-15566003Y16065044D01*
X-15589207Y16070856D01*
X-15611729Y16078914D01*
X-15633353Y16089142D01*
X-15653870Y16101439D01*
X-15673083Y16115689D01*
X-15690807Y16131753D01*
X-15706871Y16149477D01*
X-15721121Y16168690D01*
X-15733418Y16189207D01*
X-15743646Y16210831D01*
X-15751704Y16233353D01*
X-15757516Y16256557D01*
X-15761026Y16280218D01*
X-15762200Y16304110D01*
X-15762200Y16791610D01*
X-15761026Y16815502D01*
X-15757516Y16839163D01*
X-15751704Y16862367D01*
X-15743646Y16884889D01*
X-15733418Y16906513D01*
X-15721121Y16927030D01*
X-15706871Y16946243D01*
X-15690807Y16963967D01*
X-15673083Y16980031D01*
X-15653870Y16994281D01*
X-15633353Y17006578D01*
X-15611729Y17016806D01*
X-15589207Y17024864D01*
X-15566003Y17030676D01*
X-15542342Y17034186D01*
X-15518450Y17035360D01*
X-14605950Y17035360D01*
X-14582058Y17034186D01*
X-14582058Y17034186D01*
G37*
D12*
G04 #@! TD*
G04 #@! TO.P,C2,2*
G04 #@! TO.N,Net-(C2-Pad2)*
X-15062200Y16547860D03*
D11*
G04 #@! TO.N,Earth*
G04 #@! TO.C,C2*
G36*
X-14582058Y18909186D02*
X-14558397Y18905676D01*
X-14535193Y18899864D01*
X-14512671Y18891806D01*
X-14491047Y18881578D01*
X-14470530Y18869281D01*
X-14451317Y18855031D01*
X-14433593Y18838967D01*
X-14417529Y18821243D01*
X-14403279Y18802030D01*
X-14390982Y18781513D01*
X-14380754Y18759889D01*
X-14372696Y18737367D01*
X-14366884Y18714163D01*
X-14363374Y18690502D01*
X-14362200Y18666610D01*
X-14362200Y18179110D01*
X-14363374Y18155218D01*
X-14366884Y18131557D01*
X-14372696Y18108353D01*
X-14380754Y18085831D01*
X-14390982Y18064207D01*
X-14403279Y18043690D01*
X-14417529Y18024477D01*
X-14433593Y18006753D01*
X-14451317Y17990689D01*
X-14470530Y17976439D01*
X-14491047Y17964142D01*
X-14512671Y17953914D01*
X-14535193Y17945856D01*
X-14558397Y17940044D01*
X-14582058Y17936534D01*
X-14605950Y17935360D01*
X-15518450Y17935360D01*
X-15542342Y17936534D01*
X-15566003Y17940044D01*
X-15589207Y17945856D01*
X-15611729Y17953914D01*
X-15633353Y17964142D01*
X-15653870Y17976439D01*
X-15673083Y17990689D01*
X-15690807Y18006753D01*
X-15706871Y18024477D01*
X-15721121Y18043690D01*
X-15733418Y18064207D01*
X-15743646Y18085831D01*
X-15751704Y18108353D01*
X-15757516Y18131557D01*
X-15761026Y18155218D01*
X-15762200Y18179110D01*
X-15762200Y18666610D01*
X-15761026Y18690502D01*
X-15757516Y18714163D01*
X-15751704Y18737367D01*
X-15743646Y18759889D01*
X-15733418Y18781513D01*
X-15721121Y18802030D01*
X-15706871Y18821243D01*
X-15690807Y18838967D01*
X-15673083Y18855031D01*
X-15653870Y18869281D01*
X-15633353Y18881578D01*
X-15611729Y18891806D01*
X-15589207Y18899864D01*
X-15566003Y18905676D01*
X-15542342Y18909186D01*
X-15518450Y18910360D01*
X-14605950Y18910360D01*
X-14582058Y18909186D01*
X-14582058Y18909186D01*
G37*
D12*
G04 #@! TD*
G04 #@! TO.P,C2,1*
G04 #@! TO.N,Earth*
X-15062200Y18422860D03*
D11*
G04 #@! TO.N,Earth*
G04 #@! TO.C,C3*
G36*
X-673018Y24831986D02*
X-649357Y24828476D01*
X-626153Y24822664D01*
X-603631Y24814606D01*
X-582007Y24804378D01*
X-561490Y24792081D01*
X-542277Y24777831D01*
X-524553Y24761767D01*
X-508489Y24744043D01*
X-494239Y24724830D01*
X-481942Y24704313D01*
X-471714Y24682689D01*
X-463656Y24660167D01*
X-457844Y24636963D01*
X-454334Y24613302D01*
X-453160Y24589410D01*
X-453160Y24101910D01*
X-454334Y24078018D01*
X-457844Y24054357D01*
X-463656Y24031153D01*
X-471714Y24008631D01*
X-481942Y23987007D01*
X-494239Y23966490D01*
X-508489Y23947277D01*
X-524553Y23929553D01*
X-542277Y23913489D01*
X-561490Y23899239D01*
X-582007Y23886942D01*
X-603631Y23876714D01*
X-626153Y23868656D01*
X-649357Y23862844D01*
X-673018Y23859334D01*
X-696910Y23858160D01*
X-1609410Y23858160D01*
X-1633302Y23859334D01*
X-1656963Y23862844D01*
X-1680167Y23868656D01*
X-1702689Y23876714D01*
X-1724313Y23886942D01*
X-1744830Y23899239D01*
X-1764043Y23913489D01*
X-1781767Y23929553D01*
X-1797831Y23947277D01*
X-1812081Y23966490D01*
X-1824378Y23987007D01*
X-1834606Y24008631D01*
X-1842664Y24031153D01*
X-1848476Y24054357D01*
X-1851986Y24078018D01*
X-1853160Y24101910D01*
X-1853160Y24589410D01*
X-1851986Y24613302D01*
X-1848476Y24636963D01*
X-1842664Y24660167D01*
X-1834606Y24682689D01*
X-1824378Y24704313D01*
X-1812081Y24724830D01*
X-1797831Y24744043D01*
X-1781767Y24761767D01*
X-1764043Y24777831D01*
X-1744830Y24792081D01*
X-1724313Y24804378D01*
X-1702689Y24814606D01*
X-1680167Y24822664D01*
X-1656963Y24828476D01*
X-1633302Y24831986D01*
X-1609410Y24833160D01*
X-696910Y24833160D01*
X-673018Y24831986D01*
X-673018Y24831986D01*
G37*
D12*
G04 #@! TD*
G04 #@! TO.P,C3,2*
G04 #@! TO.N,Earth*
X-1153160Y24345660D03*
D11*
G04 #@! TO.N,/NRST*
G04 #@! TO.C,C3*
G36*
X-673018Y26706986D02*
X-649357Y26703476D01*
X-626153Y26697664D01*
X-603631Y26689606D01*
X-582007Y26679378D01*
X-561490Y26667081D01*
X-542277Y26652831D01*
X-524553Y26636767D01*
X-508489Y26619043D01*
X-494239Y26599830D01*
X-481942Y26579313D01*
X-471714Y26557689D01*
X-463656Y26535167D01*
X-457844Y26511963D01*
X-454334Y26488302D01*
X-453160Y26464410D01*
X-453160Y25976910D01*
X-454334Y25953018D01*
X-457844Y25929357D01*
X-463656Y25906153D01*
X-471714Y25883631D01*
X-481942Y25862007D01*
X-494239Y25841490D01*
X-508489Y25822277D01*
X-524553Y25804553D01*
X-542277Y25788489D01*
X-561490Y25774239D01*
X-582007Y25761942D01*
X-603631Y25751714D01*
X-626153Y25743656D01*
X-649357Y25737844D01*
X-673018Y25734334D01*
X-696910Y25733160D01*
X-1609410Y25733160D01*
X-1633302Y25734334D01*
X-1656963Y25737844D01*
X-1680167Y25743656D01*
X-1702689Y25751714D01*
X-1724313Y25761942D01*
X-1744830Y25774239D01*
X-1764043Y25788489D01*
X-1781767Y25804553D01*
X-1797831Y25822277D01*
X-1812081Y25841490D01*
X-1824378Y25862007D01*
X-1834606Y25883631D01*
X-1842664Y25906153D01*
X-1848476Y25929357D01*
X-1851986Y25953018D01*
X-1853160Y25976910D01*
X-1853160Y26464410D01*
X-1851986Y26488302D01*
X-1848476Y26511963D01*
X-1842664Y26535167D01*
X-1834606Y26557689D01*
X-1824378Y26579313D01*
X-1812081Y26599830D01*
X-1797831Y26619043D01*
X-1781767Y26636767D01*
X-1764043Y26652831D01*
X-1744830Y26667081D01*
X-1724313Y26679378D01*
X-1702689Y26689606D01*
X-1680167Y26697664D01*
X-1656963Y26703476D01*
X-1633302Y26706986D01*
X-1609410Y26708160D01*
X-696910Y26708160D01*
X-673018Y26706986D01*
X-673018Y26706986D01*
G37*
D12*
G04 #@! TD*
G04 #@! TO.P,C3,1*
G04 #@! TO.N,/NRST*
X-1153160Y26220660D03*
D11*
G04 #@! TO.N,Earth*
G04 #@! TO.C,C4*
G36*
X-6347378Y11085506D02*
X-6323717Y11081996D01*
X-6300513Y11076184D01*
X-6277991Y11068126D01*
X-6256367Y11057898D01*
X-6235850Y11045601D01*
X-6216637Y11031351D01*
X-6198913Y11015287D01*
X-6182849Y10997563D01*
X-6168599Y10978350D01*
X-6156302Y10957833D01*
X-6146074Y10936209D01*
X-6138016Y10913687D01*
X-6132204Y10890483D01*
X-6128694Y10866822D01*
X-6127520Y10842930D01*
X-6127520Y10355430D01*
X-6128694Y10331538D01*
X-6132204Y10307877D01*
X-6138016Y10284673D01*
X-6146074Y10262151D01*
X-6156302Y10240527D01*
X-6168599Y10220010D01*
X-6182849Y10200797D01*
X-6198913Y10183073D01*
X-6216637Y10167009D01*
X-6235850Y10152759D01*
X-6256367Y10140462D01*
X-6277991Y10130234D01*
X-6300513Y10122176D01*
X-6323717Y10116364D01*
X-6347378Y10112854D01*
X-6371270Y10111680D01*
X-7283770Y10111680D01*
X-7307662Y10112854D01*
X-7331323Y10116364D01*
X-7354527Y10122176D01*
X-7377049Y10130234D01*
X-7398673Y10140462D01*
X-7419190Y10152759D01*
X-7438403Y10167009D01*
X-7456127Y10183073D01*
X-7472191Y10200797D01*
X-7486441Y10220010D01*
X-7498738Y10240527D01*
X-7508966Y10262151D01*
X-7517024Y10284673D01*
X-7522836Y10307877D01*
X-7526346Y10331538D01*
X-7527520Y10355430D01*
X-7527520Y10842930D01*
X-7526346Y10866822D01*
X-7522836Y10890483D01*
X-7517024Y10913687D01*
X-7508966Y10936209D01*
X-7498738Y10957833D01*
X-7486441Y10978350D01*
X-7472191Y10997563D01*
X-7456127Y11015287D01*
X-7438403Y11031351D01*
X-7419190Y11045601D01*
X-7398673Y11057898D01*
X-7377049Y11068126D01*
X-7354527Y11076184D01*
X-7331323Y11081996D01*
X-7307662Y11085506D01*
X-7283770Y11086680D01*
X-6371270Y11086680D01*
X-6347378Y11085506D01*
X-6347378Y11085506D01*
G37*
D12*
G04 #@! TD*
G04 #@! TO.P,C4,2*
G04 #@! TO.N,Earth*
X-6827520Y10599180D03*
D11*
G04 #@! TO.N,/PB7*
G04 #@! TO.C,C4*
G36*
X-6347378Y12960506D02*
X-6323717Y12956996D01*
X-6300513Y12951184D01*
X-6277991Y12943126D01*
X-6256367Y12932898D01*
X-6235850Y12920601D01*
X-6216637Y12906351D01*
X-6198913Y12890287D01*
X-6182849Y12872563D01*
X-6168599Y12853350D01*
X-6156302Y12832833D01*
X-6146074Y12811209D01*
X-6138016Y12788687D01*
X-6132204Y12765483D01*
X-6128694Y12741822D01*
X-6127520Y12717930D01*
X-6127520Y12230430D01*
X-6128694Y12206538D01*
X-6132204Y12182877D01*
X-6138016Y12159673D01*
X-6146074Y12137151D01*
X-6156302Y12115527D01*
X-6168599Y12095010D01*
X-6182849Y12075797D01*
X-6198913Y12058073D01*
X-6216637Y12042009D01*
X-6235850Y12027759D01*
X-6256367Y12015462D01*
X-6277991Y12005234D01*
X-6300513Y11997176D01*
X-6323717Y11991364D01*
X-6347378Y11987854D01*
X-6371270Y11986680D01*
X-7283770Y11986680D01*
X-7307662Y11987854D01*
X-7331323Y11991364D01*
X-7354527Y11997176D01*
X-7377049Y12005234D01*
X-7398673Y12015462D01*
X-7419190Y12027759D01*
X-7438403Y12042009D01*
X-7456127Y12058073D01*
X-7472191Y12075797D01*
X-7486441Y12095010D01*
X-7498738Y12115527D01*
X-7508966Y12137151D01*
X-7517024Y12159673D01*
X-7522836Y12182877D01*
X-7526346Y12206538D01*
X-7527520Y12230430D01*
X-7527520Y12717930D01*
X-7526346Y12741822D01*
X-7522836Y12765483D01*
X-7517024Y12788687D01*
X-7508966Y12811209D01*
X-7498738Y12832833D01*
X-7486441Y12853350D01*
X-7472191Y12872563D01*
X-7456127Y12890287D01*
X-7438403Y12906351D01*
X-7419190Y12920601D01*
X-7398673Y12932898D01*
X-7377049Y12943126D01*
X-7354527Y12951184D01*
X-7331323Y12956996D01*
X-7307662Y12960506D01*
X-7283770Y12961680D01*
X-6371270Y12961680D01*
X-6347378Y12960506D01*
X-6347378Y12960506D01*
G37*
D12*
G04 #@! TD*
G04 #@! TO.P,C4,1*
G04 #@! TO.N,/PB7*
X-6827520Y12474180D03*
D11*
G04 #@! TO.N,VDD*
G04 #@! TO.C,C6*
G36*
X-6433738Y22947786D02*
X-6410077Y22944276D01*
X-6386873Y22938464D01*
X-6364351Y22930406D01*
X-6342727Y22920178D01*
X-6322210Y22907881D01*
X-6302997Y22893631D01*
X-6285273Y22877567D01*
X-6269209Y22859843D01*
X-6254959Y22840630D01*
X-6242662Y22820113D01*
X-6232434Y22798489D01*
X-6224376Y22775967D01*
X-6218564Y22752763D01*
X-6215054Y22729102D01*
X-6213880Y22705210D01*
X-6213880Y22217710D01*
X-6215054Y22193818D01*
X-6218564Y22170157D01*
X-6224376Y22146953D01*
X-6232434Y22124431D01*
X-6242662Y22102807D01*
X-6254959Y22082290D01*
X-6269209Y22063077D01*
X-6285273Y22045353D01*
X-6302997Y22029289D01*
X-6322210Y22015039D01*
X-6342727Y22002742D01*
X-6364351Y21992514D01*
X-6386873Y21984456D01*
X-6410077Y21978644D01*
X-6433738Y21975134D01*
X-6457630Y21973960D01*
X-7370130Y21973960D01*
X-7394022Y21975134D01*
X-7417683Y21978644D01*
X-7440887Y21984456D01*
X-7463409Y21992514D01*
X-7485033Y22002742D01*
X-7505550Y22015039D01*
X-7524763Y22029289D01*
X-7542487Y22045353D01*
X-7558551Y22063077D01*
X-7572801Y22082290D01*
X-7585098Y22102807D01*
X-7595326Y22124431D01*
X-7603384Y22146953D01*
X-7609196Y22170157D01*
X-7612706Y22193818D01*
X-7613880Y22217710D01*
X-7613880Y22705210D01*
X-7612706Y22729102D01*
X-7609196Y22752763D01*
X-7603384Y22775967D01*
X-7595326Y22798489D01*
X-7585098Y22820113D01*
X-7572801Y22840630D01*
X-7558551Y22859843D01*
X-7542487Y22877567D01*
X-7524763Y22893631D01*
X-7505550Y22907881D01*
X-7485033Y22920178D01*
X-7463409Y22930406D01*
X-7440887Y22938464D01*
X-7417683Y22944276D01*
X-7394022Y22947786D01*
X-7370130Y22948960D01*
X-6457630Y22948960D01*
X-6433738Y22947786D01*
X-6433738Y22947786D01*
G37*
D12*
G04 #@! TD*
G04 #@! TO.P,C6,2*
G04 #@! TO.N,VDD*
X-6913880Y22461460D03*
D11*
G04 #@! TO.N,Net-(C6-Pad1)*
G04 #@! TO.C,C6*
G36*
X-6433738Y21072786D02*
X-6410077Y21069276D01*
X-6386873Y21063464D01*
X-6364351Y21055406D01*
X-6342727Y21045178D01*
X-6322210Y21032881D01*
X-6302997Y21018631D01*
X-6285273Y21002567D01*
X-6269209Y20984843D01*
X-6254959Y20965630D01*
X-6242662Y20945113D01*
X-6232434Y20923489D01*
X-6224376Y20900967D01*
X-6218564Y20877763D01*
X-6215054Y20854102D01*
X-6213880Y20830210D01*
X-6213880Y20342710D01*
X-6215054Y20318818D01*
X-6218564Y20295157D01*
X-6224376Y20271953D01*
X-6232434Y20249431D01*
X-6242662Y20227807D01*
X-6254959Y20207290D01*
X-6269209Y20188077D01*
X-6285273Y20170353D01*
X-6302997Y20154289D01*
X-6322210Y20140039D01*
X-6342727Y20127742D01*
X-6364351Y20117514D01*
X-6386873Y20109456D01*
X-6410077Y20103644D01*
X-6433738Y20100134D01*
X-6457630Y20098960D01*
X-7370130Y20098960D01*
X-7394022Y20100134D01*
X-7417683Y20103644D01*
X-7440887Y20109456D01*
X-7463409Y20117514D01*
X-7485033Y20127742D01*
X-7505550Y20140039D01*
X-7524763Y20154289D01*
X-7542487Y20170353D01*
X-7558551Y20188077D01*
X-7572801Y20207290D01*
X-7585098Y20227807D01*
X-7595326Y20249431D01*
X-7603384Y20271953D01*
X-7609196Y20295157D01*
X-7612706Y20318818D01*
X-7613880Y20342710D01*
X-7613880Y20830210D01*
X-7612706Y20854102D01*
X-7609196Y20877763D01*
X-7603384Y20900967D01*
X-7595326Y20923489D01*
X-7585098Y20945113D01*
X-7572801Y20965630D01*
X-7558551Y20984843D01*
X-7542487Y21002567D01*
X-7524763Y21018631D01*
X-7505550Y21032881D01*
X-7485033Y21045178D01*
X-7463409Y21055406D01*
X-7440887Y21063464D01*
X-7417683Y21069276D01*
X-7394022Y21072786D01*
X-7370130Y21073960D01*
X-6457630Y21073960D01*
X-6433738Y21072786D01*
X-6433738Y21072786D01*
G37*
D12*
G04 #@! TD*
G04 #@! TO.P,C6,1*
G04 #@! TO.N,Net-(C6-Pad1)*
X-6913880Y20586460D03*
D11*
G04 #@! TO.N,/PB0*
G04 #@! TO.C,D4*
G36*
X4716862Y10181746D02*
X4740523Y10178236D01*
X4763727Y10172424D01*
X4786249Y10164366D01*
X4807873Y10154138D01*
X4828390Y10141841D01*
X4847603Y10127591D01*
X4865327Y10111527D01*
X4881391Y10093803D01*
X4895641Y10074590D01*
X4907938Y10054073D01*
X4918166Y10032449D01*
X4926224Y10009927D01*
X4932036Y9986723D01*
X4935546Y9963062D01*
X4936720Y9939170D01*
X4936720Y9451670D01*
X4935546Y9427778D01*
X4932036Y9404117D01*
X4926224Y9380913D01*
X4918166Y9358391D01*
X4907938Y9336767D01*
X4895641Y9316250D01*
X4881391Y9297037D01*
X4865327Y9279313D01*
X4847603Y9263249D01*
X4828390Y9248999D01*
X4807873Y9236702D01*
X4786249Y9226474D01*
X4763727Y9218416D01*
X4740523Y9212604D01*
X4716862Y9209094D01*
X4692970Y9207920D01*
X3780470Y9207920D01*
X3756578Y9209094D01*
X3732917Y9212604D01*
X3709713Y9218416D01*
X3687191Y9226474D01*
X3665567Y9236702D01*
X3645050Y9248999D01*
X3625837Y9263249D01*
X3608113Y9279313D01*
X3592049Y9297037D01*
X3577799Y9316250D01*
X3565502Y9336767D01*
X3555274Y9358391D01*
X3547216Y9380913D01*
X3541404Y9404117D01*
X3537894Y9427778D01*
X3536720Y9451670D01*
X3536720Y9939170D01*
X3537894Y9963062D01*
X3541404Y9986723D01*
X3547216Y10009927D01*
X3555274Y10032449D01*
X3565502Y10054073D01*
X3577799Y10074590D01*
X3592049Y10093803D01*
X3608113Y10111527D01*
X3625837Y10127591D01*
X3645050Y10141841D01*
X3665567Y10154138D01*
X3687191Y10164366D01*
X3709713Y10172424D01*
X3732917Y10178236D01*
X3756578Y10181746D01*
X3780470Y10182920D01*
X4692970Y10182920D01*
X4716862Y10181746D01*
X4716862Y10181746D01*
G37*
D12*
G04 #@! TD*
G04 #@! TO.P,D4,2*
G04 #@! TO.N,/PB0*
X4236720Y9695420D03*
D11*
G04 #@! TO.N,Net-(D4-Pad1)*
G04 #@! TO.C,D4*
G36*
X4716862Y8306746D02*
X4740523Y8303236D01*
X4763727Y8297424D01*
X4786249Y8289366D01*
X4807873Y8279138D01*
X4828390Y8266841D01*
X4847603Y8252591D01*
X4865327Y8236527D01*
X4881391Y8218803D01*
X4895641Y8199590D01*
X4907938Y8179073D01*
X4918166Y8157449D01*
X4926224Y8134927D01*
X4932036Y8111723D01*
X4935546Y8088062D01*
X4936720Y8064170D01*
X4936720Y7576670D01*
X4935546Y7552778D01*
X4932036Y7529117D01*
X4926224Y7505913D01*
X4918166Y7483391D01*
X4907938Y7461767D01*
X4895641Y7441250D01*
X4881391Y7422037D01*
X4865327Y7404313D01*
X4847603Y7388249D01*
X4828390Y7373999D01*
X4807873Y7361702D01*
X4786249Y7351474D01*
X4763727Y7343416D01*
X4740523Y7337604D01*
X4716862Y7334094D01*
X4692970Y7332920D01*
X3780470Y7332920D01*
X3756578Y7334094D01*
X3732917Y7337604D01*
X3709713Y7343416D01*
X3687191Y7351474D01*
X3665567Y7361702D01*
X3645050Y7373999D01*
X3625837Y7388249D01*
X3608113Y7404313D01*
X3592049Y7422037D01*
X3577799Y7441250D01*
X3565502Y7461767D01*
X3555274Y7483391D01*
X3547216Y7505913D01*
X3541404Y7529117D01*
X3537894Y7552778D01*
X3536720Y7576670D01*
X3536720Y8064170D01*
X3537894Y8088062D01*
X3541404Y8111723D01*
X3547216Y8134927D01*
X3555274Y8157449D01*
X3565502Y8179073D01*
X3577799Y8199590D01*
X3592049Y8218803D01*
X3608113Y8236527D01*
X3625837Y8252591D01*
X3645050Y8266841D01*
X3665567Y8279138D01*
X3687191Y8289366D01*
X3709713Y8297424D01*
X3732917Y8303236D01*
X3756578Y8306746D01*
X3780470Y8307920D01*
X4692970Y8307920D01*
X4716862Y8306746D01*
X4716862Y8306746D01*
G37*
D12*
G04 #@! TD*
G04 #@! TO.P,D4,1*
G04 #@! TO.N,Net-(D4-Pad1)*
X4236720Y7820420D03*
D11*
G04 #@! TO.N,/PB1*
G04 #@! TO.C,D3*
G36*
X1699342Y10202066D02*
X1723003Y10198556D01*
X1746207Y10192744D01*
X1768729Y10184686D01*
X1790353Y10174458D01*
X1810870Y10162161D01*
X1830083Y10147911D01*
X1847807Y10131847D01*
X1863871Y10114123D01*
X1878121Y10094910D01*
X1890418Y10074393D01*
X1900646Y10052769D01*
X1908704Y10030247D01*
X1914516Y10007043D01*
X1918026Y9983382D01*
X1919200Y9959490D01*
X1919200Y9471990D01*
X1918026Y9448098D01*
X1914516Y9424437D01*
X1908704Y9401233D01*
X1900646Y9378711D01*
X1890418Y9357087D01*
X1878121Y9336570D01*
X1863871Y9317357D01*
X1847807Y9299633D01*
X1830083Y9283569D01*
X1810870Y9269319D01*
X1790353Y9257022D01*
X1768729Y9246794D01*
X1746207Y9238736D01*
X1723003Y9232924D01*
X1699342Y9229414D01*
X1675450Y9228240D01*
X762950Y9228240D01*
X739058Y9229414D01*
X715397Y9232924D01*
X692193Y9238736D01*
X669671Y9246794D01*
X648047Y9257022D01*
X627530Y9269319D01*
X608317Y9283569D01*
X590593Y9299633D01*
X574529Y9317357D01*
X560279Y9336570D01*
X547982Y9357087D01*
X537754Y9378711D01*
X529696Y9401233D01*
X523884Y9424437D01*
X520374Y9448098D01*
X519200Y9471990D01*
X519200Y9959490D01*
X520374Y9983382D01*
X523884Y10007043D01*
X529696Y10030247D01*
X537754Y10052769D01*
X547982Y10074393D01*
X560279Y10094910D01*
X574529Y10114123D01*
X590593Y10131847D01*
X608317Y10147911D01*
X627530Y10162161D01*
X648047Y10174458D01*
X669671Y10184686D01*
X692193Y10192744D01*
X715397Y10198556D01*
X739058Y10202066D01*
X762950Y10203240D01*
X1675450Y10203240D01*
X1699342Y10202066D01*
X1699342Y10202066D01*
G37*
D12*
G04 #@! TD*
G04 #@! TO.P,D3,2*
G04 #@! TO.N,/PB1*
X1219200Y9715740D03*
D11*
G04 #@! TO.N,Net-(D3-Pad1)*
G04 #@! TO.C,D3*
G36*
X1699342Y8327066D02*
X1723003Y8323556D01*
X1746207Y8317744D01*
X1768729Y8309686D01*
X1790353Y8299458D01*
X1810870Y8287161D01*
X1830083Y8272911D01*
X1847807Y8256847D01*
X1863871Y8239123D01*
X1878121Y8219910D01*
X1890418Y8199393D01*
X1900646Y8177769D01*
X1908704Y8155247D01*
X1914516Y8132043D01*
X1918026Y8108382D01*
X1919200Y8084490D01*
X1919200Y7596990D01*
X1918026Y7573098D01*
X1914516Y7549437D01*
X1908704Y7526233D01*
X1900646Y7503711D01*
X1890418Y7482087D01*
X1878121Y7461570D01*
X1863871Y7442357D01*
X1847807Y7424633D01*
X1830083Y7408569D01*
X1810870Y7394319D01*
X1790353Y7382022D01*
X1768729Y7371794D01*
X1746207Y7363736D01*
X1723003Y7357924D01*
X1699342Y7354414D01*
X1675450Y7353240D01*
X762950Y7353240D01*
X739058Y7354414D01*
X715397Y7357924D01*
X692193Y7363736D01*
X669671Y7371794D01*
X648047Y7382022D01*
X627530Y7394319D01*
X608317Y7408569D01*
X590593Y7424633D01*
X574529Y7442357D01*
X560279Y7461570D01*
X547982Y7482087D01*
X537754Y7503711D01*
X529696Y7526233D01*
X523884Y7549437D01*
X520374Y7573098D01*
X519200Y7596990D01*
X519200Y8084490D01*
X520374Y8108382D01*
X523884Y8132043D01*
X529696Y8155247D01*
X537754Y8177769D01*
X547982Y8199393D01*
X560279Y8219910D01*
X574529Y8239123D01*
X590593Y8256847D01*
X608317Y8272911D01*
X627530Y8287161D01*
X648047Y8299458D01*
X669671Y8309686D01*
X692193Y8317744D01*
X715397Y8323556D01*
X739058Y8327066D01*
X762950Y8328240D01*
X1675450Y8328240D01*
X1699342Y8327066D01*
X1699342Y8327066D01*
G37*
D12*
G04 #@! TD*
G04 #@! TO.P,D3,1*
G04 #@! TO.N,Net-(D3-Pad1)*
X1219200Y7840740D03*
D11*
G04 #@! TO.N,VDD*
G04 #@! TO.C,D2*
G36*
X7188902Y13886506D02*
X7212563Y13882996D01*
X7235767Y13877184D01*
X7258289Y13869126D01*
X7279913Y13858898D01*
X7300430Y13846601D01*
X7319643Y13832351D01*
X7337367Y13816287D01*
X7353431Y13798563D01*
X7367681Y13779350D01*
X7379978Y13758833D01*
X7390206Y13737209D01*
X7398264Y13714687D01*
X7404076Y13691483D01*
X7407586Y13667822D01*
X7408760Y13643930D01*
X7408760Y12731430D01*
X7407586Y12707538D01*
X7404076Y12683877D01*
X7398264Y12660673D01*
X7390206Y12638151D01*
X7379978Y12616527D01*
X7367681Y12596010D01*
X7353431Y12576797D01*
X7337367Y12559073D01*
X7319643Y12543009D01*
X7300430Y12528759D01*
X7279913Y12516462D01*
X7258289Y12506234D01*
X7235767Y12498176D01*
X7212563Y12492364D01*
X7188902Y12488854D01*
X7165010Y12487680D01*
X6677510Y12487680D01*
X6653618Y12488854D01*
X6629957Y12492364D01*
X6606753Y12498176D01*
X6584231Y12506234D01*
X6562607Y12516462D01*
X6542090Y12528759D01*
X6522877Y12543009D01*
X6505153Y12559073D01*
X6489089Y12576797D01*
X6474839Y12596010D01*
X6462542Y12616527D01*
X6452314Y12638151D01*
X6444256Y12660673D01*
X6438444Y12683877D01*
X6434934Y12707538D01*
X6433760Y12731430D01*
X6433760Y13643930D01*
X6434934Y13667822D01*
X6438444Y13691483D01*
X6444256Y13714687D01*
X6452314Y13737209D01*
X6462542Y13758833D01*
X6474839Y13779350D01*
X6489089Y13798563D01*
X6505153Y13816287D01*
X6522877Y13832351D01*
X6542090Y13846601D01*
X6562607Y13858898D01*
X6584231Y13869126D01*
X6606753Y13877184D01*
X6629957Y13882996D01*
X6653618Y13886506D01*
X6677510Y13887680D01*
X7165010Y13887680D01*
X7188902Y13886506D01*
X7188902Y13886506D01*
G37*
D12*
G04 #@! TD*
G04 #@! TO.P,D2,2*
G04 #@! TO.N,VDD*
X6921260Y13187680D03*
D11*
G04 #@! TO.N,Net-(D2-Pad1)*
G04 #@! TO.C,D2*
G36*
X9063902Y13886506D02*
X9087563Y13882996D01*
X9110767Y13877184D01*
X9133289Y13869126D01*
X9154913Y13858898D01*
X9175430Y13846601D01*
X9194643Y13832351D01*
X9212367Y13816287D01*
X9228431Y13798563D01*
X9242681Y13779350D01*
X9254978Y13758833D01*
X9265206Y13737209D01*
X9273264Y13714687D01*
X9279076Y13691483D01*
X9282586Y13667822D01*
X9283760Y13643930D01*
X9283760Y12731430D01*
X9282586Y12707538D01*
X9279076Y12683877D01*
X9273264Y12660673D01*
X9265206Y12638151D01*
X9254978Y12616527D01*
X9242681Y12596010D01*
X9228431Y12576797D01*
X9212367Y12559073D01*
X9194643Y12543009D01*
X9175430Y12528759D01*
X9154913Y12516462D01*
X9133289Y12506234D01*
X9110767Y12498176D01*
X9087563Y12492364D01*
X9063902Y12488854D01*
X9040010Y12487680D01*
X8552510Y12487680D01*
X8528618Y12488854D01*
X8504957Y12492364D01*
X8481753Y12498176D01*
X8459231Y12506234D01*
X8437607Y12516462D01*
X8417090Y12528759D01*
X8397877Y12543009D01*
X8380153Y12559073D01*
X8364089Y12576797D01*
X8349839Y12596010D01*
X8337542Y12616527D01*
X8327314Y12638151D01*
X8319256Y12660673D01*
X8313444Y12683877D01*
X8309934Y12707538D01*
X8308760Y12731430D01*
X8308760Y13643930D01*
X8309934Y13667822D01*
X8313444Y13691483D01*
X8319256Y13714687D01*
X8327314Y13737209D01*
X8337542Y13758833D01*
X8349839Y13779350D01*
X8364089Y13798563D01*
X8380153Y13816287D01*
X8397877Y13832351D01*
X8417090Y13846601D01*
X8437607Y13858898D01*
X8459231Y13869126D01*
X8481753Y13877184D01*
X8504957Y13882996D01*
X8528618Y13886506D01*
X8552510Y13887680D01*
X9040010Y13887680D01*
X9063902Y13886506D01*
X9063902Y13886506D01*
G37*
D12*
G04 #@! TD*
G04 #@! TO.P,D2,1*
G04 #@! TO.N,Net-(D2-Pad1)*
X8796260Y13187680D03*
D11*
G04 #@! TO.N,/PB2*
G04 #@! TO.C,D1*
G36*
X-642538Y10227466D02*
X-618877Y10223956D01*
X-595673Y10218144D01*
X-573151Y10210086D01*
X-551527Y10199858D01*
X-531010Y10187561D01*
X-511797Y10173311D01*
X-494073Y10157247D01*
X-478009Y10139523D01*
X-463759Y10120310D01*
X-451462Y10099793D01*
X-441234Y10078169D01*
X-433176Y10055647D01*
X-427364Y10032443D01*
X-423854Y10008782D01*
X-422680Y9984890D01*
X-422680Y9497390D01*
X-423854Y9473498D01*
X-427364Y9449837D01*
X-433176Y9426633D01*
X-441234Y9404111D01*
X-451462Y9382487D01*
X-463759Y9361970D01*
X-478009Y9342757D01*
X-494073Y9325033D01*
X-511797Y9308969D01*
X-531010Y9294719D01*
X-551527Y9282422D01*
X-573151Y9272194D01*
X-595673Y9264136D01*
X-618877Y9258324D01*
X-642538Y9254814D01*
X-666430Y9253640D01*
X-1578930Y9253640D01*
X-1602822Y9254814D01*
X-1626483Y9258324D01*
X-1649687Y9264136D01*
X-1672209Y9272194D01*
X-1693833Y9282422D01*
X-1714350Y9294719D01*
X-1733563Y9308969D01*
X-1751287Y9325033D01*
X-1767351Y9342757D01*
X-1781601Y9361970D01*
X-1793898Y9382487D01*
X-1804126Y9404111D01*
X-1812184Y9426633D01*
X-1817996Y9449837D01*
X-1821506Y9473498D01*
X-1822680Y9497390D01*
X-1822680Y9984890D01*
X-1821506Y10008782D01*
X-1817996Y10032443D01*
X-1812184Y10055647D01*
X-1804126Y10078169D01*
X-1793898Y10099793D01*
X-1781601Y10120310D01*
X-1767351Y10139523D01*
X-1751287Y10157247D01*
X-1733563Y10173311D01*
X-1714350Y10187561D01*
X-1693833Y10199858D01*
X-1672209Y10210086D01*
X-1649687Y10218144D01*
X-1626483Y10223956D01*
X-1602822Y10227466D01*
X-1578930Y10228640D01*
X-666430Y10228640D01*
X-642538Y10227466D01*
X-642538Y10227466D01*
G37*
D12*
G04 #@! TD*
G04 #@! TO.P,D1,2*
G04 #@! TO.N,/PB2*
X-1122680Y9741140D03*
D11*
G04 #@! TO.N,Net-(D1-Pad1)*
G04 #@! TO.C,D1*
G36*
X-642538Y8352466D02*
X-618877Y8348956D01*
X-595673Y8343144D01*
X-573151Y8335086D01*
X-551527Y8324858D01*
X-531010Y8312561D01*
X-511797Y8298311D01*
X-494073Y8282247D01*
X-478009Y8264523D01*
X-463759Y8245310D01*
X-451462Y8224793D01*
X-441234Y8203169D01*
X-433176Y8180647D01*
X-427364Y8157443D01*
X-423854Y8133782D01*
X-422680Y8109890D01*
X-422680Y7622390D01*
X-423854Y7598498D01*
X-427364Y7574837D01*
X-433176Y7551633D01*
X-441234Y7529111D01*
X-451462Y7507487D01*
X-463759Y7486970D01*
X-478009Y7467757D01*
X-494073Y7450033D01*
X-511797Y7433969D01*
X-531010Y7419719D01*
X-551527Y7407422D01*
X-573151Y7397194D01*
X-595673Y7389136D01*
X-618877Y7383324D01*
X-642538Y7379814D01*
X-666430Y7378640D01*
X-1578930Y7378640D01*
X-1602822Y7379814D01*
X-1626483Y7383324D01*
X-1649687Y7389136D01*
X-1672209Y7397194D01*
X-1693833Y7407422D01*
X-1714350Y7419719D01*
X-1733563Y7433969D01*
X-1751287Y7450033D01*
X-1767351Y7467757D01*
X-1781601Y7486970D01*
X-1793898Y7507487D01*
X-1804126Y7529111D01*
X-1812184Y7551633D01*
X-1817996Y7574837D01*
X-1821506Y7598498D01*
X-1822680Y7622390D01*
X-1822680Y8109890D01*
X-1821506Y8133782D01*
X-1817996Y8157443D01*
X-1812184Y8180647D01*
X-1804126Y8203169D01*
X-1793898Y8224793D01*
X-1781601Y8245310D01*
X-1767351Y8264523D01*
X-1751287Y8282247D01*
X-1733563Y8298311D01*
X-1714350Y8312561D01*
X-1693833Y8324858D01*
X-1672209Y8335086D01*
X-1649687Y8343144D01*
X-1626483Y8348956D01*
X-1602822Y8352466D01*
X-1578930Y8353640D01*
X-666430Y8353640D01*
X-642538Y8352466D01*
X-642538Y8352466D01*
G37*
D12*
G04 #@! TD*
G04 #@! TO.P,D1,1*
G04 #@! TO.N,Net-(D1-Pad1)*
X-1122680Y7866140D03*
D11*
G04 #@! TO.N,Net-(D1-Pad1)*
G04 #@! TO.C,R4*
G36*
X-693338Y6549546D02*
X-669677Y6546036D01*
X-646473Y6540224D01*
X-623951Y6532166D01*
X-602327Y6521938D01*
X-581810Y6509641D01*
X-562597Y6495391D01*
X-544873Y6479327D01*
X-528809Y6461603D01*
X-514559Y6442390D01*
X-502262Y6421873D01*
X-492034Y6400249D01*
X-483976Y6377727D01*
X-478164Y6354523D01*
X-474654Y6330862D01*
X-473480Y6306970D01*
X-473480Y5819470D01*
X-474654Y5795578D01*
X-478164Y5771917D01*
X-483976Y5748713D01*
X-492034Y5726191D01*
X-502262Y5704567D01*
X-514559Y5684050D01*
X-528809Y5664837D01*
X-544873Y5647113D01*
X-562597Y5631049D01*
X-581810Y5616799D01*
X-602327Y5604502D01*
X-623951Y5594274D01*
X-646473Y5586216D01*
X-669677Y5580404D01*
X-693338Y5576894D01*
X-717230Y5575720D01*
X-1629730Y5575720D01*
X-1653622Y5576894D01*
X-1677283Y5580404D01*
X-1700487Y5586216D01*
X-1723009Y5594274D01*
X-1744633Y5604502D01*
X-1765150Y5616799D01*
X-1784363Y5631049D01*
X-1802087Y5647113D01*
X-1818151Y5664837D01*
X-1832401Y5684050D01*
X-1844698Y5704567D01*
X-1854926Y5726191D01*
X-1862984Y5748713D01*
X-1868796Y5771917D01*
X-1872306Y5795578D01*
X-1873480Y5819470D01*
X-1873480Y6306970D01*
X-1872306Y6330862D01*
X-1868796Y6354523D01*
X-1862984Y6377727D01*
X-1854926Y6400249D01*
X-1844698Y6421873D01*
X-1832401Y6442390D01*
X-1818151Y6461603D01*
X-1802087Y6479327D01*
X-1784363Y6495391D01*
X-1765150Y6509641D01*
X-1744633Y6521938D01*
X-1723009Y6532166D01*
X-1700487Y6540224D01*
X-1677283Y6546036D01*
X-1653622Y6549546D01*
X-1629730Y6550720D01*
X-717230Y6550720D01*
X-693338Y6549546D01*
X-693338Y6549546D01*
G37*
D12*
G04 #@! TD*
G04 #@! TO.P,R4,2*
G04 #@! TO.N,Net-(D1-Pad1)*
X-1173480Y6063220D03*
D11*
G04 #@! TO.N,Earth*
G04 #@! TO.C,R4*
G36*
X-693338Y4674546D02*
X-669677Y4671036D01*
X-646473Y4665224D01*
X-623951Y4657166D01*
X-602327Y4646938D01*
X-581810Y4634641D01*
X-562597Y4620391D01*
X-544873Y4604327D01*
X-528809Y4586603D01*
X-514559Y4567390D01*
X-502262Y4546873D01*
X-492034Y4525249D01*
X-483976Y4502727D01*
X-478164Y4479523D01*
X-474654Y4455862D01*
X-473480Y4431970D01*
X-473480Y3944470D01*
X-474654Y3920578D01*
X-478164Y3896917D01*
X-483976Y3873713D01*
X-492034Y3851191D01*
X-502262Y3829567D01*
X-514559Y3809050D01*
X-528809Y3789837D01*
X-544873Y3772113D01*
X-562597Y3756049D01*
X-581810Y3741799D01*
X-602327Y3729502D01*
X-623951Y3719274D01*
X-646473Y3711216D01*
X-669677Y3705404D01*
X-693338Y3701894D01*
X-717230Y3700720D01*
X-1629730Y3700720D01*
X-1653622Y3701894D01*
X-1677283Y3705404D01*
X-1700487Y3711216D01*
X-1723009Y3719274D01*
X-1744633Y3729502D01*
X-1765150Y3741799D01*
X-1784363Y3756049D01*
X-1802087Y3772113D01*
X-1818151Y3789837D01*
X-1832401Y3809050D01*
X-1844698Y3829567D01*
X-1854926Y3851191D01*
X-1862984Y3873713D01*
X-1868796Y3896917D01*
X-1872306Y3920578D01*
X-1873480Y3944470D01*
X-1873480Y4431970D01*
X-1872306Y4455862D01*
X-1868796Y4479523D01*
X-1862984Y4502727D01*
X-1854926Y4525249D01*
X-1844698Y4546873D01*
X-1832401Y4567390D01*
X-1818151Y4586603D01*
X-1802087Y4604327D01*
X-1784363Y4620391D01*
X-1765150Y4634641D01*
X-1744633Y4646938D01*
X-1723009Y4657166D01*
X-1700487Y4665224D01*
X-1677283Y4671036D01*
X-1653622Y4674546D01*
X-1629730Y4675720D01*
X-717230Y4675720D01*
X-693338Y4674546D01*
X-693338Y4674546D01*
G37*
D12*
G04 #@! TD*
G04 #@! TO.P,R4,1*
G04 #@! TO.N,Earth*
X-1173480Y4188220D03*
D11*
G04 #@! TO.N,VDD*
G04 #@! TO.C,R3*
G36*
X7637862Y11720986D02*
X7661523Y11717476D01*
X7684727Y11711664D01*
X7707249Y11703606D01*
X7728873Y11693378D01*
X7749390Y11681081D01*
X7768603Y11666831D01*
X7786327Y11650767D01*
X7802391Y11633043D01*
X7816641Y11613830D01*
X7828938Y11593313D01*
X7839166Y11571689D01*
X7847224Y11549167D01*
X7853036Y11525963D01*
X7856546Y11502302D01*
X7857720Y11478410D01*
X7857720Y10990910D01*
X7856546Y10967018D01*
X7853036Y10943357D01*
X7847224Y10920153D01*
X7839166Y10897631D01*
X7828938Y10876007D01*
X7816641Y10855490D01*
X7802391Y10836277D01*
X7786327Y10818553D01*
X7768603Y10802489D01*
X7749390Y10788239D01*
X7728873Y10775942D01*
X7707249Y10765714D01*
X7684727Y10757656D01*
X7661523Y10751844D01*
X7637862Y10748334D01*
X7613970Y10747160D01*
X6701470Y10747160D01*
X6677578Y10748334D01*
X6653917Y10751844D01*
X6630713Y10757656D01*
X6608191Y10765714D01*
X6586567Y10775942D01*
X6566050Y10788239D01*
X6546837Y10802489D01*
X6529113Y10818553D01*
X6513049Y10836277D01*
X6498799Y10855490D01*
X6486502Y10876007D01*
X6476274Y10897631D01*
X6468216Y10920153D01*
X6462404Y10943357D01*
X6458894Y10967018D01*
X6457720Y10990910D01*
X6457720Y11478410D01*
X6458894Y11502302D01*
X6462404Y11525963D01*
X6468216Y11549167D01*
X6476274Y11571689D01*
X6486502Y11593313D01*
X6498799Y11613830D01*
X6513049Y11633043D01*
X6529113Y11650767D01*
X6546837Y11666831D01*
X6566050Y11681081D01*
X6586567Y11693378D01*
X6608191Y11703606D01*
X6630713Y11711664D01*
X6653917Y11717476D01*
X6677578Y11720986D01*
X6701470Y11722160D01*
X7613970Y11722160D01*
X7637862Y11720986D01*
X7637862Y11720986D01*
G37*
D12*
G04 #@! TD*
G04 #@! TO.P,R3,2*
G04 #@! TO.N,VDD*
X7157720Y11234660D03*
D11*
G04 #@! TO.N,/PB7*
G04 #@! TO.C,R3*
G36*
X7637862Y9845986D02*
X7661523Y9842476D01*
X7684727Y9836664D01*
X7707249Y9828606D01*
X7728873Y9818378D01*
X7749390Y9806081D01*
X7768603Y9791831D01*
X7786327Y9775767D01*
X7802391Y9758043D01*
X7816641Y9738830D01*
X7828938Y9718313D01*
X7839166Y9696689D01*
X7847224Y9674167D01*
X7853036Y9650963D01*
X7856546Y9627302D01*
X7857720Y9603410D01*
X7857720Y9115910D01*
X7856546Y9092018D01*
X7853036Y9068357D01*
X7847224Y9045153D01*
X7839166Y9022631D01*
X7828938Y9001007D01*
X7816641Y8980490D01*
X7802391Y8961277D01*
X7786327Y8943553D01*
X7768603Y8927489D01*
X7749390Y8913239D01*
X7728873Y8900942D01*
X7707249Y8890714D01*
X7684727Y8882656D01*
X7661523Y8876844D01*
X7637862Y8873334D01*
X7613970Y8872160D01*
X6701470Y8872160D01*
X6677578Y8873334D01*
X6653917Y8876844D01*
X6630713Y8882656D01*
X6608191Y8890714D01*
X6586567Y8900942D01*
X6566050Y8913239D01*
X6546837Y8927489D01*
X6529113Y8943553D01*
X6513049Y8961277D01*
X6498799Y8980490D01*
X6486502Y9001007D01*
X6476274Y9022631D01*
X6468216Y9045153D01*
X6462404Y9068357D01*
X6458894Y9092018D01*
X6457720Y9115910D01*
X6457720Y9603410D01*
X6458894Y9627302D01*
X6462404Y9650963D01*
X6468216Y9674167D01*
X6476274Y9696689D01*
X6486502Y9718313D01*
X6498799Y9738830D01*
X6513049Y9758043D01*
X6529113Y9775767D01*
X6546837Y9791831D01*
X6566050Y9806081D01*
X6586567Y9818378D01*
X6608191Y9828606D01*
X6630713Y9836664D01*
X6653917Y9842476D01*
X6677578Y9845986D01*
X6701470Y9847160D01*
X7613970Y9847160D01*
X7637862Y9845986D01*
X7637862Y9845986D01*
G37*
D12*
G04 #@! TD*
G04 #@! TO.P,R3,1*
G04 #@! TO.N,/PB7*
X7157720Y9359660D03*
D11*
G04 #@! TO.N,/PA2*
G04 #@! TO.C,R2*
G36*
X-6480898Y9273866D02*
X-6457237Y9270356D01*
X-6434033Y9264544D01*
X-6411511Y9256486D01*
X-6389887Y9246258D01*
X-6369370Y9233961D01*
X-6350157Y9219711D01*
X-6332433Y9203647D01*
X-6316369Y9185923D01*
X-6302119Y9166710D01*
X-6289822Y9146193D01*
X-6279594Y9124569D01*
X-6271536Y9102047D01*
X-6265724Y9078843D01*
X-6262214Y9055182D01*
X-6261040Y9031290D01*
X-6261040Y8118790D01*
X-6262214Y8094898D01*
X-6265724Y8071237D01*
X-6271536Y8048033D01*
X-6279594Y8025511D01*
X-6289822Y8003887D01*
X-6302119Y7983370D01*
X-6316369Y7964157D01*
X-6332433Y7946433D01*
X-6350157Y7930369D01*
X-6369370Y7916119D01*
X-6389887Y7903822D01*
X-6411511Y7893594D01*
X-6434033Y7885536D01*
X-6457237Y7879724D01*
X-6480898Y7876214D01*
X-6504790Y7875040D01*
X-6992290Y7875040D01*
X-7016182Y7876214D01*
X-7039843Y7879724D01*
X-7063047Y7885536D01*
X-7085569Y7893594D01*
X-7107193Y7903822D01*
X-7127710Y7916119D01*
X-7146923Y7930369D01*
X-7164647Y7946433D01*
X-7180711Y7964157D01*
X-7194961Y7983370D01*
X-7207258Y8003887D01*
X-7217486Y8025511D01*
X-7225544Y8048033D01*
X-7231356Y8071237D01*
X-7234866Y8094898D01*
X-7236040Y8118790D01*
X-7236040Y9031290D01*
X-7234866Y9055182D01*
X-7231356Y9078843D01*
X-7225544Y9102047D01*
X-7217486Y9124569D01*
X-7207258Y9146193D01*
X-7194961Y9166710D01*
X-7180711Y9185923D01*
X-7164647Y9203647D01*
X-7146923Y9219711D01*
X-7127710Y9233961D01*
X-7107193Y9246258D01*
X-7085569Y9256486D01*
X-7063047Y9264544D01*
X-7039843Y9270356D01*
X-7016182Y9273866D01*
X-6992290Y9275040D01*
X-6504790Y9275040D01*
X-6480898Y9273866D01*
X-6480898Y9273866D01*
G37*
D12*
G04 #@! TD*
G04 #@! TO.P,R2,2*
G04 #@! TO.N,/PA2*
X-6748540Y8575040D03*
D11*
G04 #@! TO.N,Net-(C2-Pad2)*
G04 #@! TO.C,R2*
G36*
X-8355898Y9273866D02*
X-8332237Y9270356D01*
X-8309033Y9264544D01*
X-8286511Y9256486D01*
X-8264887Y9246258D01*
X-8244370Y9233961D01*
X-8225157Y9219711D01*
X-8207433Y9203647D01*
X-8191369Y9185923D01*
X-8177119Y9166710D01*
X-8164822Y9146193D01*
X-8154594Y9124569D01*
X-8146536Y9102047D01*
X-8140724Y9078843D01*
X-8137214Y9055182D01*
X-8136040Y9031290D01*
X-8136040Y8118790D01*
X-8137214Y8094898D01*
X-8140724Y8071237D01*
X-8146536Y8048033D01*
X-8154594Y8025511D01*
X-8164822Y8003887D01*
X-8177119Y7983370D01*
X-8191369Y7964157D01*
X-8207433Y7946433D01*
X-8225157Y7930369D01*
X-8244370Y7916119D01*
X-8264887Y7903822D01*
X-8286511Y7893594D01*
X-8309033Y7885536D01*
X-8332237Y7879724D01*
X-8355898Y7876214D01*
X-8379790Y7875040D01*
X-8867290Y7875040D01*
X-8891182Y7876214D01*
X-8914843Y7879724D01*
X-8938047Y7885536D01*
X-8960569Y7893594D01*
X-8982193Y7903822D01*
X-9002710Y7916119D01*
X-9021923Y7930369D01*
X-9039647Y7946433D01*
X-9055711Y7964157D01*
X-9069961Y7983370D01*
X-9082258Y8003887D01*
X-9092486Y8025511D01*
X-9100544Y8048033D01*
X-9106356Y8071237D01*
X-9109866Y8094898D01*
X-9111040Y8118790D01*
X-9111040Y9031290D01*
X-9109866Y9055182D01*
X-9106356Y9078843D01*
X-9100544Y9102047D01*
X-9092486Y9124569D01*
X-9082258Y9146193D01*
X-9069961Y9166710D01*
X-9055711Y9185923D01*
X-9039647Y9203647D01*
X-9021923Y9219711D01*
X-9002710Y9233961D01*
X-8982193Y9246258D01*
X-8960569Y9256486D01*
X-8938047Y9264544D01*
X-8914843Y9270356D01*
X-8891182Y9273866D01*
X-8867290Y9275040D01*
X-8379790Y9275040D01*
X-8355898Y9273866D01*
X-8355898Y9273866D01*
G37*
D12*
G04 #@! TD*
G04 #@! TO.P,R2,1*
G04 #@! TO.N,Net-(C2-Pad2)*
X-8623540Y8575040D03*
D11*
G04 #@! TO.N,VDD*
G04 #@! TO.C,R1*
G36*
X-6659178Y25148866D02*
X-6635517Y25145356D01*
X-6612313Y25139544D01*
X-6589791Y25131486D01*
X-6568167Y25121258D01*
X-6547650Y25108961D01*
X-6528437Y25094711D01*
X-6510713Y25078647D01*
X-6494649Y25060923D01*
X-6480399Y25041710D01*
X-6468102Y25021193D01*
X-6457874Y24999569D01*
X-6449816Y24977047D01*
X-6444004Y24953843D01*
X-6440494Y24930182D01*
X-6439320Y24906290D01*
X-6439320Y23993790D01*
X-6440494Y23969898D01*
X-6444004Y23946237D01*
X-6449816Y23923033D01*
X-6457874Y23900511D01*
X-6468102Y23878887D01*
X-6480399Y23858370D01*
X-6494649Y23839157D01*
X-6510713Y23821433D01*
X-6528437Y23805369D01*
X-6547650Y23791119D01*
X-6568167Y23778822D01*
X-6589791Y23768594D01*
X-6612313Y23760536D01*
X-6635517Y23754724D01*
X-6659178Y23751214D01*
X-6683070Y23750040D01*
X-7170570Y23750040D01*
X-7194462Y23751214D01*
X-7218123Y23754724D01*
X-7241327Y23760536D01*
X-7263849Y23768594D01*
X-7285473Y23778822D01*
X-7305990Y23791119D01*
X-7325203Y23805369D01*
X-7342927Y23821433D01*
X-7358991Y23839157D01*
X-7373241Y23858370D01*
X-7385538Y23878887D01*
X-7395766Y23900511D01*
X-7403824Y23923033D01*
X-7409636Y23946237D01*
X-7413146Y23969898D01*
X-7414320Y23993790D01*
X-7414320Y24906290D01*
X-7413146Y24930182D01*
X-7409636Y24953843D01*
X-7403824Y24977047D01*
X-7395766Y24999569D01*
X-7385538Y25021193D01*
X-7373241Y25041710D01*
X-7358991Y25060923D01*
X-7342927Y25078647D01*
X-7325203Y25094711D01*
X-7305990Y25108961D01*
X-7285473Y25121258D01*
X-7263849Y25131486D01*
X-7241327Y25139544D01*
X-7218123Y25145356D01*
X-7194462Y25148866D01*
X-7170570Y25150040D01*
X-6683070Y25150040D01*
X-6659178Y25148866D01*
X-6659178Y25148866D01*
G37*
D12*
G04 #@! TD*
G04 #@! TO.P,R1,2*
G04 #@! TO.N,VDD*
X-6926820Y24450040D03*
D11*
G04 #@! TO.N,/NRST*
G04 #@! TO.C,R1*
G36*
X-4784178Y25148866D02*
X-4760517Y25145356D01*
X-4737313Y25139544D01*
X-4714791Y25131486D01*
X-4693167Y25121258D01*
X-4672650Y25108961D01*
X-4653437Y25094711D01*
X-4635713Y25078647D01*
X-4619649Y25060923D01*
X-4605399Y25041710D01*
X-4593102Y25021193D01*
X-4582874Y24999569D01*
X-4574816Y24977047D01*
X-4569004Y24953843D01*
X-4565494Y24930182D01*
X-4564320Y24906290D01*
X-4564320Y23993790D01*
X-4565494Y23969898D01*
X-4569004Y23946237D01*
X-4574816Y23923033D01*
X-4582874Y23900511D01*
X-4593102Y23878887D01*
X-4605399Y23858370D01*
X-4619649Y23839157D01*
X-4635713Y23821433D01*
X-4653437Y23805369D01*
X-4672650Y23791119D01*
X-4693167Y23778822D01*
X-4714791Y23768594D01*
X-4737313Y23760536D01*
X-4760517Y23754724D01*
X-4784178Y23751214D01*
X-4808070Y23750040D01*
X-5295570Y23750040D01*
X-5319462Y23751214D01*
X-5343123Y23754724D01*
X-5366327Y23760536D01*
X-5388849Y23768594D01*
X-5410473Y23778822D01*
X-5430990Y23791119D01*
X-5450203Y23805369D01*
X-5467927Y23821433D01*
X-5483991Y23839157D01*
X-5498241Y23858370D01*
X-5510538Y23878887D01*
X-5520766Y23900511D01*
X-5528824Y23923033D01*
X-5534636Y23946237D01*
X-5538146Y23969898D01*
X-5539320Y23993790D01*
X-5539320Y24906290D01*
X-5538146Y24930182D01*
X-5534636Y24953843D01*
X-5528824Y24977047D01*
X-5520766Y24999569D01*
X-5510538Y25021193D01*
X-5498241Y25041710D01*
X-5483991Y25060923D01*
X-5467927Y25078647D01*
X-5450203Y25094711D01*
X-5430990Y25108961D01*
X-5410473Y25121258D01*
X-5388849Y25131486D01*
X-5366327Y25139544D01*
X-5343123Y25145356D01*
X-5319462Y25148866D01*
X-5295570Y25150040D01*
X-4808070Y25150040D01*
X-4784178Y25148866D01*
X-4784178Y25148866D01*
G37*
D12*
G04 #@! TD*
G04 #@! TO.P,R1,1*
G04 #@! TO.N,/NRST*
X-5051820Y24450040D03*
D11*
G04 #@! TO.N,Net-(D2-Pad1)*
G04 #@! TO.C,R5*
G36*
X5218342Y24290346D02*
X5242003Y24286836D01*
X5265207Y24281024D01*
X5287729Y24272966D01*
X5309353Y24262738D01*
X5329870Y24250441D01*
X5349083Y24236191D01*
X5366807Y24220127D01*
X5382871Y24202403D01*
X5397121Y24183190D01*
X5409418Y24162673D01*
X5419646Y24141049D01*
X5427704Y24118527D01*
X5433516Y24095323D01*
X5437026Y24071662D01*
X5438200Y24047770D01*
X5438200Y23135270D01*
X5437026Y23111378D01*
X5433516Y23087717D01*
X5427704Y23064513D01*
X5419646Y23041991D01*
X5409418Y23020367D01*
X5397121Y22999850D01*
X5382871Y22980637D01*
X5366807Y22962913D01*
X5349083Y22946849D01*
X5329870Y22932599D01*
X5309353Y22920302D01*
X5287729Y22910074D01*
X5265207Y22902016D01*
X5242003Y22896204D01*
X5218342Y22892694D01*
X5194450Y22891520D01*
X4706950Y22891520D01*
X4683058Y22892694D01*
X4659397Y22896204D01*
X4636193Y22902016D01*
X4613671Y22910074D01*
X4592047Y22920302D01*
X4571530Y22932599D01*
X4552317Y22946849D01*
X4534593Y22962913D01*
X4518529Y22980637D01*
X4504279Y22999850D01*
X4491982Y23020367D01*
X4481754Y23041991D01*
X4473696Y23064513D01*
X4467884Y23087717D01*
X4464374Y23111378D01*
X4463200Y23135270D01*
X4463200Y24047770D01*
X4464374Y24071662D01*
X4467884Y24095323D01*
X4473696Y24118527D01*
X4481754Y24141049D01*
X4491982Y24162673D01*
X4504279Y24183190D01*
X4518529Y24202403D01*
X4534593Y24220127D01*
X4552317Y24236191D01*
X4571530Y24250441D01*
X4592047Y24262738D01*
X4613671Y24272966D01*
X4636193Y24281024D01*
X4659397Y24286836D01*
X4683058Y24290346D01*
X4706950Y24291520D01*
X5194450Y24291520D01*
X5218342Y24290346D01*
X5218342Y24290346D01*
G37*
D12*
G04 #@! TD*
G04 #@! TO.P,R5,2*
G04 #@! TO.N,Net-(D2-Pad1)*
X4950700Y23591520D03*
D11*
G04 #@! TO.N,/PD0*
G04 #@! TO.C,R5*
G36*
X3343342Y24290346D02*
X3367003Y24286836D01*
X3390207Y24281024D01*
X3412729Y24272966D01*
X3434353Y24262738D01*
X3454870Y24250441D01*
X3474083Y24236191D01*
X3491807Y24220127D01*
X3507871Y24202403D01*
X3522121Y24183190D01*
X3534418Y24162673D01*
X3544646Y24141049D01*
X3552704Y24118527D01*
X3558516Y24095323D01*
X3562026Y24071662D01*
X3563200Y24047770D01*
X3563200Y23135270D01*
X3562026Y23111378D01*
X3558516Y23087717D01*
X3552704Y23064513D01*
X3544646Y23041991D01*
X3534418Y23020367D01*
X3522121Y22999850D01*
X3507871Y22980637D01*
X3491807Y22962913D01*
X3474083Y22946849D01*
X3454870Y22932599D01*
X3434353Y22920302D01*
X3412729Y22910074D01*
X3390207Y22902016D01*
X3367003Y22896204D01*
X3343342Y22892694D01*
X3319450Y22891520D01*
X2831950Y22891520D01*
X2808058Y22892694D01*
X2784397Y22896204D01*
X2761193Y22902016D01*
X2738671Y22910074D01*
X2717047Y22920302D01*
X2696530Y22932599D01*
X2677317Y22946849D01*
X2659593Y22962913D01*
X2643529Y22980637D01*
X2629279Y22999850D01*
X2616982Y23020367D01*
X2606754Y23041991D01*
X2598696Y23064513D01*
X2592884Y23087717D01*
X2589374Y23111378D01*
X2588200Y23135270D01*
X2588200Y24047770D01*
X2589374Y24071662D01*
X2592884Y24095323D01*
X2598696Y24118527D01*
X2606754Y24141049D01*
X2616982Y24162673D01*
X2629279Y24183190D01*
X2643529Y24202403D01*
X2659593Y24220127D01*
X2677317Y24236191D01*
X2696530Y24250441D01*
X2717047Y24262738D01*
X2738671Y24272966D01*
X2761193Y24281024D01*
X2784397Y24286836D01*
X2808058Y24290346D01*
X2831950Y24291520D01*
X3319450Y24291520D01*
X3343342Y24290346D01*
X3343342Y24290346D01*
G37*
D12*
G04 #@! TD*
G04 #@! TO.P,R5,1*
G04 #@! TO.N,/PD0*
X3075700Y23591520D03*
D11*
G04 #@! TO.N,Net-(D3-Pad1)*
G04 #@! TO.C,R6*
G36*
X1694262Y6564786D02*
X1717923Y6561276D01*
X1741127Y6555464D01*
X1763649Y6547406D01*
X1785273Y6537178D01*
X1805790Y6524881D01*
X1825003Y6510631D01*
X1842727Y6494567D01*
X1858791Y6476843D01*
X1873041Y6457630D01*
X1885338Y6437113D01*
X1895566Y6415489D01*
X1903624Y6392967D01*
X1909436Y6369763D01*
X1912946Y6346102D01*
X1914120Y6322210D01*
X1914120Y5834710D01*
X1912946Y5810818D01*
X1909436Y5787157D01*
X1903624Y5763953D01*
X1895566Y5741431D01*
X1885338Y5719807D01*
X1873041Y5699290D01*
X1858791Y5680077D01*
X1842727Y5662353D01*
X1825003Y5646289D01*
X1805790Y5632039D01*
X1785273Y5619742D01*
X1763649Y5609514D01*
X1741127Y5601456D01*
X1717923Y5595644D01*
X1694262Y5592134D01*
X1670370Y5590960D01*
X757870Y5590960D01*
X733978Y5592134D01*
X710317Y5595644D01*
X687113Y5601456D01*
X664591Y5609514D01*
X642967Y5619742D01*
X622450Y5632039D01*
X603237Y5646289D01*
X585513Y5662353D01*
X569449Y5680077D01*
X555199Y5699290D01*
X542902Y5719807D01*
X532674Y5741431D01*
X524616Y5763953D01*
X518804Y5787157D01*
X515294Y5810818D01*
X514120Y5834710D01*
X514120Y6322210D01*
X515294Y6346102D01*
X518804Y6369763D01*
X524616Y6392967D01*
X532674Y6415489D01*
X542902Y6437113D01*
X555199Y6457630D01*
X569449Y6476843D01*
X585513Y6494567D01*
X603237Y6510631D01*
X622450Y6524881D01*
X642967Y6537178D01*
X664591Y6547406D01*
X687113Y6555464D01*
X710317Y6561276D01*
X733978Y6564786D01*
X757870Y6565960D01*
X1670370Y6565960D01*
X1694262Y6564786D01*
X1694262Y6564786D01*
G37*
D12*
G04 #@! TD*
G04 #@! TO.P,R6,2*
G04 #@! TO.N,Net-(D3-Pad1)*
X1214120Y6078460D03*
D11*
G04 #@! TO.N,Earth*
G04 #@! TO.C,R6*
G36*
X1694262Y4689786D02*
X1717923Y4686276D01*
X1741127Y4680464D01*
X1763649Y4672406D01*
X1785273Y4662178D01*
X1805790Y4649881D01*
X1825003Y4635631D01*
X1842727Y4619567D01*
X1858791Y4601843D01*
X1873041Y4582630D01*
X1885338Y4562113D01*
X1895566Y4540489D01*
X1903624Y4517967D01*
X1909436Y4494763D01*
X1912946Y4471102D01*
X1914120Y4447210D01*
X1914120Y3959710D01*
X1912946Y3935818D01*
X1909436Y3912157D01*
X1903624Y3888953D01*
X1895566Y3866431D01*
X1885338Y3844807D01*
X1873041Y3824290D01*
X1858791Y3805077D01*
X1842727Y3787353D01*
X1825003Y3771289D01*
X1805790Y3757039D01*
X1785273Y3744742D01*
X1763649Y3734514D01*
X1741127Y3726456D01*
X1717923Y3720644D01*
X1694262Y3717134D01*
X1670370Y3715960D01*
X757870Y3715960D01*
X733978Y3717134D01*
X710317Y3720644D01*
X687113Y3726456D01*
X664591Y3734514D01*
X642967Y3744742D01*
X622450Y3757039D01*
X603237Y3771289D01*
X585513Y3787353D01*
X569449Y3805077D01*
X555199Y3824290D01*
X542902Y3844807D01*
X532674Y3866431D01*
X524616Y3888953D01*
X518804Y3912157D01*
X515294Y3935818D01*
X514120Y3959710D01*
X514120Y4447210D01*
X515294Y4471102D01*
X518804Y4494763D01*
X524616Y4517967D01*
X532674Y4540489D01*
X542902Y4562113D01*
X555199Y4582630D01*
X569449Y4601843D01*
X585513Y4619567D01*
X603237Y4635631D01*
X622450Y4649881D01*
X642967Y4662178D01*
X664591Y4672406D01*
X687113Y4680464D01*
X710317Y4686276D01*
X733978Y4689786D01*
X757870Y4690960D01*
X1670370Y4690960D01*
X1694262Y4689786D01*
X1694262Y4689786D01*
G37*
D12*
G04 #@! TD*
G04 #@! TO.P,R6,1*
G04 #@! TO.N,Earth*
X1214120Y4203460D03*
D11*
G04 #@! TO.N,Net-(D4-Pad1)*
G04 #@! TO.C,R7*
G36*
X4701622Y6580026D02*
X4725283Y6576516D01*
X4748487Y6570704D01*
X4771009Y6562646D01*
X4792633Y6552418D01*
X4813150Y6540121D01*
X4832363Y6525871D01*
X4850087Y6509807D01*
X4866151Y6492083D01*
X4880401Y6472870D01*
X4892698Y6452353D01*
X4902926Y6430729D01*
X4910984Y6408207D01*
X4916796Y6385003D01*
X4920306Y6361342D01*
X4921480Y6337450D01*
X4921480Y5849950D01*
X4920306Y5826058D01*
X4916796Y5802397D01*
X4910984Y5779193D01*
X4902926Y5756671D01*
X4892698Y5735047D01*
X4880401Y5714530D01*
X4866151Y5695317D01*
X4850087Y5677593D01*
X4832363Y5661529D01*
X4813150Y5647279D01*
X4792633Y5634982D01*
X4771009Y5624754D01*
X4748487Y5616696D01*
X4725283Y5610884D01*
X4701622Y5607374D01*
X4677730Y5606200D01*
X3765230Y5606200D01*
X3741338Y5607374D01*
X3717677Y5610884D01*
X3694473Y5616696D01*
X3671951Y5624754D01*
X3650327Y5634982D01*
X3629810Y5647279D01*
X3610597Y5661529D01*
X3592873Y5677593D01*
X3576809Y5695317D01*
X3562559Y5714530D01*
X3550262Y5735047D01*
X3540034Y5756671D01*
X3531976Y5779193D01*
X3526164Y5802397D01*
X3522654Y5826058D01*
X3521480Y5849950D01*
X3521480Y6337450D01*
X3522654Y6361342D01*
X3526164Y6385003D01*
X3531976Y6408207D01*
X3540034Y6430729D01*
X3550262Y6452353D01*
X3562559Y6472870D01*
X3576809Y6492083D01*
X3592873Y6509807D01*
X3610597Y6525871D01*
X3629810Y6540121D01*
X3650327Y6552418D01*
X3671951Y6562646D01*
X3694473Y6570704D01*
X3717677Y6576516D01*
X3741338Y6580026D01*
X3765230Y6581200D01*
X4677730Y6581200D01*
X4701622Y6580026D01*
X4701622Y6580026D01*
G37*
D12*
G04 #@! TD*
G04 #@! TO.P,R7,2*
G04 #@! TO.N,Net-(D4-Pad1)*
X4221480Y6093700D03*
D11*
G04 #@! TO.N,Earth*
G04 #@! TO.C,R7*
G36*
X4701622Y4705026D02*
X4725283Y4701516D01*
X4748487Y4695704D01*
X4771009Y4687646D01*
X4792633Y4677418D01*
X4813150Y4665121D01*
X4832363Y4650871D01*
X4850087Y4634807D01*
X4866151Y4617083D01*
X4880401Y4597870D01*
X4892698Y4577353D01*
X4902926Y4555729D01*
X4910984Y4533207D01*
X4916796Y4510003D01*
X4920306Y4486342D01*
X4921480Y4462450D01*
X4921480Y3974950D01*
X4920306Y3951058D01*
X4916796Y3927397D01*
X4910984Y3904193D01*
X4902926Y3881671D01*
X4892698Y3860047D01*
X4880401Y3839530D01*
X4866151Y3820317D01*
X4850087Y3802593D01*
X4832363Y3786529D01*
X4813150Y3772279D01*
X4792633Y3759982D01*
X4771009Y3749754D01*
X4748487Y3741696D01*
X4725283Y3735884D01*
X4701622Y3732374D01*
X4677730Y3731200D01*
X3765230Y3731200D01*
X3741338Y3732374D01*
X3717677Y3735884D01*
X3694473Y3741696D01*
X3671951Y3749754D01*
X3650327Y3759982D01*
X3629810Y3772279D01*
X3610597Y3786529D01*
X3592873Y3802593D01*
X3576809Y3820317D01*
X3562559Y3839530D01*
X3550262Y3860047D01*
X3540034Y3881671D01*
X3531976Y3904193D01*
X3526164Y3927397D01*
X3522654Y3951058D01*
X3521480Y3974950D01*
X3521480Y4462450D01*
X3522654Y4486342D01*
X3526164Y4510003D01*
X3531976Y4533207D01*
X3540034Y4555729D01*
X3550262Y4577353D01*
X3562559Y4597870D01*
X3576809Y4617083D01*
X3592873Y4634807D01*
X3610597Y4650871D01*
X3629810Y4665121D01*
X3650327Y4677418D01*
X3671951Y4687646D01*
X3694473Y4695704D01*
X3717677Y4701516D01*
X3741338Y4705026D01*
X3765230Y4706200D01*
X4677730Y4706200D01*
X4701622Y4705026D01*
X4701622Y4705026D01*
G37*
D12*
G04 #@! TD*
G04 #@! TO.P,R7,1*
G04 #@! TO.N,Earth*
X4221480Y4218700D03*
D10*
G04 #@! TO.P,CN1,4*
G04 #@! TO.N,Earth*
X-3784600Y27086560D03*
G04 #@! TO.P,CN1,3*
G04 #@! TO.N,/NRST*
X-6324600Y27086560D03*
G04 #@! TO.P,CN1,2*
G04 #@! TO.N,/PS1*
X-8864600Y27086560D03*
G04 #@! TO.P,CN1,1*
G04 #@! TO.N,VDD*
X-11404600Y27086560D03*
G04 #@! TD*
D18*
G04 #@! TO.N,VDD*
X-4709160Y21122640D03*
X-8544560Y21777960D03*
X6253480Y19410680D03*
G04 #@! TO.N,Earth*
X-11709400Y18765520D03*
X-8229600Y7000240D03*
X-3962400Y12898120D03*
X-228600Y18023840D03*
X-3784600Y23769320D03*
G04 #@! TO.N,/PS1*
X1087120Y24236680D03*
X-2006600Y27467560D03*
G04 #@! TO.N,/PB7*
X5095240Y11084560D03*
X-4739640Y11216640D03*
G04 #@! TO.N,Net-(C5-Pad1)*
X-6974840Y14610080D03*
X-4211320Y22753320D03*
D19*
G04 #@! TO.N,Net-(C6-Pad1)*
X-7975600Y19420840D03*
D18*
X-6070600Y13787120D03*
G04 #@! TO.N,/PWR_IN*
X1402080Y14579600D03*
X2052320Y18338800D03*
G04 #@! TD*
D20*
G04 #@! TO.N,VDD*
X-10579601Y26261561D02*
X-10427201Y26261561D01*
X-11404600Y27086560D02*
X-10579601Y26261561D01*
X-10427201Y26261561D02*
X-9804400Y25638760D01*
X-8115540Y25638760D02*
X-6926820Y24450040D01*
X-9804400Y25638760D02*
X-8115540Y25638760D01*
X-6926820Y22474400D02*
X-6913880Y22461460D01*
X-6926820Y24450040D02*
X-6926820Y22474400D01*
X-6913880Y22461460D02*
X-7541020Y22461460D01*
X6921260Y11471120D02*
X7157720Y11234660D01*
X6921260Y13187680D02*
X6921260Y11471120D01*
X6921260Y13987680D02*
X6939280Y14005700D01*
X6921260Y13187680D02*
X6921260Y13987680D01*
X6939280Y14005700D02*
X6939280Y18724880D01*
X6156960Y19507200D02*
X6156960Y19517360D01*
X6156960Y19517360D02*
X4983480Y20690840D01*
X3725842Y20690840D02*
X3151802Y20116800D01*
X4983480Y20690840D02*
X3725842Y20690840D01*
X-4087638Y21122640D02*
X-4709160Y21122640D01*
X3151802Y20116800D02*
X-3081798Y20116800D01*
X-3081798Y20116800D02*
X-4087638Y21122640D01*
X-7861060Y22461460D02*
X-8544560Y21777960D01*
X-6913880Y22461460D02*
X-7861060Y22461460D01*
X6939280Y18724880D02*
X6253480Y19410680D01*
X6253480Y19410680D02*
X6156960Y19507200D01*
G04 #@! TO.N,Earth*
X-15062200Y18422860D02*
X-15862200Y18422860D01*
X-14986000Y21043660D02*
X-15786000Y21043660D01*
X-15786000Y21043660D02*
X-15788780Y21046440D01*
X-15788780Y21046440D02*
X-16494760Y21046440D01*
X-16494760Y21046440D02*
X-16819880Y20721320D01*
X-16819880Y20721320D02*
X-16819880Y19024600D01*
X-15862200Y18422860D02*
X-15870060Y18415000D01*
X-16210280Y18415000D02*
X-16819880Y19024600D01*
X-15870060Y18415000D02*
X-16210280Y18415000D01*
X-5082300Y4157740D02*
X-4023360Y4157740D01*
X4221480Y3210560D02*
X4221480Y4218700D01*
X772160Y-238760D02*
X4221480Y3210560D01*
X-214360Y-238760D02*
X772160Y-238760D01*
X-4023360Y4157740D02*
X-4023360Y3570240D01*
X-4023360Y3570240D02*
X-214360Y-238760D01*
X-1173480Y3600720D02*
X-1137920Y3565160D01*
X-1173480Y4188220D02*
X-1173480Y3600720D01*
X-1137920Y3565160D02*
X-1137920Y1894840D01*
X-1137920Y1894840D02*
X-5080Y762000D01*
X-5080Y762000D02*
X472440Y762000D01*
X1214120Y1503680D02*
X1214120Y4203460D01*
X472440Y762000D02*
X1214120Y1503680D01*
X-7829601Y6600241D02*
X-7829601Y6590081D01*
X-8229600Y7000240D02*
X-7829601Y6600241D01*
X-5397260Y4157740D02*
X-5082300Y4157740D01*
X-7829601Y6590081D02*
X-5397260Y4157740D01*
X-5572760Y4333240D02*
X-5397260Y4157740D01*
X-5572760Y10144420D02*
X-5572760Y4333240D01*
X-6827520Y10599180D02*
X-6027520Y10599180D01*
X-6027520Y10599180D02*
X-5572760Y10144420D01*
X10299190Y20555810D02*
X10325510Y20555810D01*
X9428480Y21426520D02*
X10299190Y20555810D01*
X10325510Y20555810D02*
X10840720Y20040600D01*
X13680440Y20650200D02*
X15123160Y20650200D01*
X13070840Y20040600D02*
X13680440Y20650200D01*
X11489286Y20040600D02*
X11323320Y20040600D01*
X12273280Y19256606D02*
X11489286Y20040600D01*
X12273280Y18089880D02*
X12273280Y19256606D01*
X10840720Y20040600D02*
X11323320Y20040600D01*
X11323320Y20040600D02*
X13070840Y20040600D01*
X-4250000Y17400000D02*
X-3400000Y17400000D01*
X-2849880Y15097760D02*
X-2849880Y15097760D01*
X-3400000Y17400000D02*
X-3280680Y17400000D01*
X-3280680Y17400000D02*
X-2667000Y18013680D01*
X-2849880Y16849880D02*
X-3400000Y17400000D01*
X-2849880Y14115118D02*
X-2849880Y16849880D01*
X-3562401Y13402597D02*
X-2849880Y14115118D01*
X-3562401Y13298119D02*
X-3562401Y13402597D01*
X-3962400Y12898120D02*
X-3562401Y13298119D01*
X-804445Y18013680D02*
X-2667000Y18013680D01*
X-794285Y18023840D02*
X-804445Y18013680D01*
X-228600Y18023840D02*
X-794285Y18023840D01*
X-1729500Y23769320D02*
X-1153160Y24345660D01*
X-3784600Y23769320D02*
X-1729500Y23769320D01*
G04 #@! TO.N,/PS1*
X2000000Y21459440D02*
X2001520Y21460960D01*
X2000000Y21250000D02*
X2000000Y21459440D01*
X2001520Y21460960D02*
X2001520Y23322280D01*
X2001520Y23322280D02*
X1087120Y24236680D01*
X-4434840Y28620720D02*
X-5039360Y29225240D01*
X-5039360Y29225240D02*
X-8168640Y29225240D01*
X-8864600Y28529280D02*
X-8864600Y27086560D01*
X-8168640Y29225240D02*
X-8864600Y28529280D01*
X-4434840Y28620720D02*
X-3728720Y28620720D01*
X-3728720Y28620720D02*
X-3723640Y28615640D01*
X-3728720Y28620720D02*
X-3418840Y28620720D01*
X-3418840Y28620720D02*
X-2936240Y28138120D01*
X-2677160Y28138120D02*
X-2006600Y27467560D01*
X-2936240Y28138120D02*
X-2677160Y28138120D01*
G04 #@! TO.N,/NRST*
X-5100000Y19800000D02*
X-5496560Y20196560D01*
X-4250000Y19800000D02*
X-5100000Y19800000D01*
X-5496560Y20196560D02*
X-5496560Y22499320D01*
X-5051820Y22944060D02*
X-5051820Y24450040D01*
X-5496560Y22499320D02*
X-5051820Y22944060D01*
X-5051820Y25813780D02*
X-6324600Y27086560D01*
X-5051820Y24450040D02*
X-5051820Y25813780D01*
X-2237500Y26220660D02*
X-1153160Y26220660D01*
X-3037840Y25420320D02*
X-2237500Y26220660D01*
X-4084320Y25420320D02*
X-3037840Y25420320D01*
X-4495583Y25009057D02*
X-4084320Y25420320D01*
X-5051820Y24450040D02*
X-4495583Y25006277D01*
X-4495583Y25006277D02*
X-4495583Y25009057D01*
G04 #@! TO.N,/PB7*
X-2981960Y12125960D02*
X-2800000Y12307920D01*
X-2800000Y12307920D02*
X-2800000Y12750000D01*
X-3459480Y12125960D02*
X-2981960Y12125960D01*
X-6027520Y12474180D02*
X-5476240Y11922900D01*
X-6827520Y12474180D02*
X-6027520Y12474180D01*
X-5476240Y11521440D02*
X-5171440Y11216640D01*
X-5476240Y11922900D02*
X-5476240Y11521440D01*
X-4368800Y11216640D02*
X-3459480Y12125960D01*
X9921240Y9960880D02*
X9921240Y9271000D01*
X7680960Y7030720D02*
X6350000Y7030720D01*
X6350000Y7030720D02*
X5842000Y7538720D01*
X5842000Y7538720D02*
X5842000Y10297160D01*
X5842000Y10297160D02*
X5095240Y11043920D01*
X5095240Y11043920D02*
X5095240Y11084560D01*
X-5171440Y11216640D02*
X-4739640Y11216640D01*
X-4739640Y11216640D02*
X-4368800Y11216640D01*
X15123160Y16943474D02*
X15148560Y16918074D01*
X15123160Y18110200D02*
X15123160Y16943474D01*
X15148560Y16918074D02*
X15148560Y15250160D01*
X9921240Y10022840D02*
X9921240Y9960880D01*
X15148560Y15250160D02*
X9921240Y10022840D01*
X8956040Y8361340D02*
X8956040Y8305800D01*
X7957720Y9359660D02*
X8956040Y8361340D01*
X7157720Y9359660D02*
X7957720Y9359660D01*
X9921240Y9271000D02*
X8956040Y8305800D01*
X8956040Y8305800D02*
X7680960Y7030720D01*
G04 #@! TO.N,Net-(D4-Pad1)*
X4236720Y6108940D02*
X4221480Y6093700D01*
X4236720Y7820420D02*
X4236720Y6108940D01*
G04 #@! TO.N,Net-(D3-Pad1)*
X1219200Y6083540D02*
X1214120Y6078460D01*
X1219200Y7840740D02*
X1219200Y6083540D01*
G04 #@! TO.N,/PD0*
X2800000Y22100000D02*
X3088640Y22388640D01*
X2800000Y21250000D02*
X2800000Y22100000D01*
X3075700Y22401580D02*
X3075700Y23591520D01*
X3088640Y22388640D02*
X3075700Y22401580D01*
G04 #@! TO.N,Net-(D2-Pad1)*
X8796260Y14744460D02*
X8796260Y13187680D01*
X7655560Y15885160D02*
X8796260Y14744460D01*
X7655560Y19070320D02*
X7655560Y15885160D01*
X5506937Y21218943D02*
X7655560Y19070320D01*
X4950700Y23591520D02*
X5506937Y23035283D01*
X5506937Y23035283D02*
X5506937Y21218943D01*
G04 #@! TO.N,Net-(C2-Pad2)*
X-11984040Y14251360D02*
X-10734040Y14251360D01*
X-12303760Y13931640D02*
X-11984040Y14251360D01*
X-12303760Y11431640D02*
X-12303760Y13931640D01*
X-12319000Y11414760D02*
X-12319000Y11416400D01*
X-12319000Y11416400D02*
X-12303760Y11431640D01*
X-8623540Y8575040D02*
X-9211040Y8575040D01*
X-9211040Y8575040D02*
X-9302480Y8666480D01*
X-9585960Y8666480D02*
X-10734040Y9814560D01*
X-10734040Y9814560D02*
X-10734040Y9829800D01*
X-9302480Y8666480D02*
X-9585960Y8666480D01*
X-10734040Y9829800D02*
X-12319000Y11414760D01*
X-12319000Y11414760D02*
X-12334240Y11414760D01*
X-12334240Y11414760D02*
X-15097760Y14178280D01*
X-15062200Y14213840D02*
X-15062200Y16547860D01*
X-15097760Y14178280D02*
X-15062200Y14213840D01*
G04 #@! TO.N,/PA2*
X-7304777Y9131277D02*
X-7312637Y9131277D01*
X-6748540Y8575040D02*
X-7304777Y9131277D01*
X-7312637Y9131277D02*
X-8234680Y10053320D01*
X-8234680Y10053320D02*
X-8234680Y13309600D01*
X-8234680Y13309600D02*
X-7731760Y13812520D01*
X-7731760Y13812520D02*
X-7731760Y17155160D01*
X-6686920Y18200000D02*
X-4250000Y18200000D01*
X-7731760Y17155160D02*
X-6686920Y18200000D01*
G04 #@! TO.N,Net-(D1-Pad1)*
X-1122680Y6114020D02*
X-1173480Y6063220D01*
X-1122680Y7866140D02*
X-1122680Y6114020D01*
G04 #@! TO.N,/PA1*
X-10734040Y25251360D02*
X-10734040Y22751360D01*
X-11998960Y25435560D02*
X-10918240Y25435560D01*
X-14986000Y22918660D02*
X-14986000Y23506160D01*
X-14970760Y23521400D02*
X-14970760Y24617680D01*
X-10918240Y25435560D02*
X-10734040Y25251360D01*
X-14970760Y24617680D02*
X-14137640Y25450800D01*
X-14137640Y25450800D02*
X-12014200Y25450800D01*
X-14986000Y23506160D02*
X-14970760Y23521400D01*
X-12014200Y25450800D02*
X-11998960Y25435560D01*
X-10734040Y20251360D02*
X-10734040Y22751360D01*
X-5100000Y19000000D02*
X-5344640Y18755360D01*
X-4250000Y19000000D02*
X-5100000Y19000000D01*
X-5344640Y18755360D02*
X-6979920Y18755360D01*
X-6979920Y18755360D02*
X-7919720Y17815560D01*
X-7919720Y17815560D02*
X-8298240Y17815560D01*
X-8298240Y17815560D02*
X-10734040Y20251360D01*
G04 #@! TO.N,Net-(C5-Pad1)*
X-5100000Y16600000D02*
X-5101440Y16601440D01*
X-4250000Y16600000D02*
X-5100000Y16600000D01*
X-5101440Y16601440D02*
X-5816600Y16601440D01*
X-5816600Y16601440D02*
X-6974840Y15443200D01*
X-6974840Y15443200D02*
X-6974840Y14610080D01*
X9428480Y28876520D02*
X9252480Y29052520D01*
X9428480Y27026520D02*
X9428480Y28876520D01*
X9252480Y29052520D02*
X6228080Y29052520D01*
X6228080Y29052520D02*
X5664200Y28488640D01*
X5664200Y28488640D02*
X4297680Y28488640D01*
X4297680Y28488640D02*
X3296920Y27487880D01*
X3296920Y27487880D02*
X2646680Y27487880D01*
X2646680Y27487880D02*
X1559560Y26400760D01*
X1559560Y26400760D02*
X1122680Y26400760D01*
X1122680Y26400760D02*
X320040Y25598120D01*
X320040Y25598120D02*
X320040Y23799800D01*
X-726440Y22753320D02*
X-4211320Y22753320D01*
X320040Y23799800D02*
X-726440Y22753320D01*
G04 #@! TO.N,Net-(C6-Pad1)*
X-6913880Y20586460D02*
X-6913880Y19842480D01*
X-6913880Y19842480D02*
X-7335520Y19420840D01*
X-7335520Y19420840D02*
X-7975600Y19420840D01*
X-5963920Y14606805D02*
X-5953760Y14616965D01*
X-5963920Y14041120D02*
X-5963920Y14606805D01*
X-5953760Y14616965D02*
X-5953760Y15509240D01*
X-5663000Y15800000D02*
X-4250000Y15800000D01*
X-5953760Y15509240D02*
X-5663000Y15800000D01*
X-5963920Y14041120D02*
X-5963920Y13893800D01*
X-5963920Y13893800D02*
X-6070600Y13787120D01*
G04 #@! TO.N,/PB3*
X-4023360Y10800080D02*
X-4023360Y9736060D01*
X-3266440Y11557000D02*
X-4023360Y10800080D01*
X-107998Y11557000D02*
X-3266440Y11557000D01*
X400000Y12750000D02*
X400000Y12064998D01*
X400000Y12064998D02*
X-107998Y11557000D01*
G04 #@! TO.N,/PB2*
X1200000Y11900000D02*
X308360Y11008360D01*
X1200000Y12750000D02*
X1200000Y11900000D01*
X308360Y11008360D02*
X-619760Y11008360D01*
X-1122680Y10505440D02*
X-1122680Y9741140D01*
X-619760Y11008360D02*
X-1122680Y10505440D01*
G04 #@! TO.N,/PB1*
X2000000Y12750000D02*
X2000000Y11768840D01*
X1219200Y10988040D02*
X1219200Y9715740D01*
X2000000Y11768840D02*
X1219200Y10988040D01*
G04 #@! TO.N,/PB0*
X2800000Y11900000D02*
X3153160Y11546840D01*
X2800000Y12750000D02*
X2800000Y11900000D01*
X3153160Y11546840D02*
X3703320Y11546840D01*
X4236720Y11013440D02*
X4236720Y9695420D01*
X3703320Y11546840D02*
X4236720Y11013440D01*
G04 #@! TO.N,Net-(D5-Pad1)*
X-4023360Y7861060D02*
X-4023360Y6032740D01*
G04 #@! TO.N,/PWR_IN*
X1402080Y15145285D02*
X1407160Y15150365D01*
X1402080Y14579600D02*
X1402080Y15145285D01*
X1407160Y15150365D02*
X1407160Y17693640D01*
X1407160Y17693640D02*
X2052320Y18338800D01*
G04 #@! TD*
D21*
G04 #@! TO.N,Earth*
G36*
X2562829Y11062370D02*
X2605231Y10998911D01*
X2762878Y10893574D01*
X2856622Y10830936D01*
X2904765Y10821360D01*
X3078308Y10786840D01*
X3078312Y10786840D01*
X3153160Y10771952D01*
X3228008Y10786840D01*
X3388519Y10786840D01*
X3423487Y10751872D01*
X3150304Y10569336D01*
X2957118Y10280214D01*
X2889280Y9939170D01*
X2889280Y9451670D01*
X2957118Y9110626D01*
X3150304Y8821504D01*
X3245464Y8757920D01*
X3150304Y8694336D01*
X2957118Y8405214D01*
X2889280Y8064170D01*
X2889280Y7576670D01*
X2957118Y7235626D01*
X3135848Y6968140D01*
X3135064Y6967616D01*
X2941878Y6678494D01*
X2874040Y6337450D01*
X2874040Y5849950D01*
X2941878Y5508906D01*
X3135064Y5219784D01*
X3136247Y5218993D01*
X2983153Y5065898D01*
X2886480Y4832509D01*
X2886480Y4504450D01*
X3045230Y4345700D01*
X4094480Y4345700D01*
X4094480Y4365700D01*
X4348480Y4365700D01*
X4348480Y4345700D01*
X5397730Y4345700D01*
X5556480Y4504450D01*
X5556480Y4832509D01*
X5459807Y5065898D01*
X5306713Y5218993D01*
X5307896Y5219784D01*
X5501082Y5508906D01*
X5568920Y5849950D01*
X5568920Y6337450D01*
X5501082Y6678494D01*
X5322352Y6945980D01*
X5323136Y6946504D01*
X5334623Y6963695D01*
X5357529Y6948390D01*
X5759672Y6546245D01*
X5802071Y6482791D01*
X5865524Y6440393D01*
X5865526Y6440391D01*
X5955793Y6380077D01*
X6053463Y6314816D01*
X6275148Y6270720D01*
X6275152Y6270720D01*
X6349999Y6255832D01*
X6424846Y6270720D01*
X7606113Y6270720D01*
X7669846Y6258043D01*
X5516274Y3973156D01*
X5397730Y4091700D01*
X4348480Y4091700D01*
X4348480Y3254950D01*
X4507230Y3096200D01*
X4689718Y3096200D01*
X939393Y-882803D01*
X616009Y-1125165D01*
X263935Y-1257151D01*
X12177Y-1284500D01*
X-360027Y-1231197D01*
X-702311Y-1075570D01*
X-931030Y-891675D01*
X-4632261Y3035240D01*
X-4309110Y3035240D01*
X-4150360Y3193990D01*
X-4150360Y4030740D01*
X-3896360Y4030740D01*
X-3896360Y3193990D01*
X-3737610Y3035240D01*
X-3197050Y3035240D01*
X-2963661Y3131913D01*
X-2785033Y3310542D01*
X-2688360Y3543931D01*
X-2688360Y3871990D01*
X-2718840Y3902470D01*
X-2508480Y3902470D01*
X-2508480Y3574411D01*
X-2411807Y3341022D01*
X-2233179Y3162393D01*
X-1999790Y3065720D01*
X-1459230Y3065720D01*
X-1300480Y3224470D01*
X-1300480Y4061220D01*
X-1046480Y4061220D01*
X-1046480Y3224470D01*
X-887730Y3065720D01*
X-347170Y3065720D01*
X-113781Y3162393D01*
X27940Y3304115D01*
X154421Y3177633D01*
X387810Y3080960D01*
X928370Y3080960D01*
X1087120Y3239710D01*
X1087120Y4076460D01*
X1341120Y4076460D01*
X1341120Y3239710D01*
X1499870Y3080960D01*
X2040430Y3080960D01*
X2273819Y3177633D01*
X2452447Y3356262D01*
X2549120Y3589651D01*
X2549120Y3917710D01*
X2533880Y3932950D01*
X2886480Y3932950D01*
X2886480Y3604891D01*
X2983153Y3371502D01*
X3161781Y3192873D01*
X3395170Y3096200D01*
X3935730Y3096200D01*
X4094480Y3254950D01*
X4094480Y4091700D01*
X3045230Y4091700D01*
X2886480Y3932950D01*
X2533880Y3932950D01*
X2390370Y4076460D01*
X1341120Y4076460D01*
X1087120Y4076460D01*
X37870Y4076460D01*
X12700Y4051290D01*
X2770Y4061220D01*
X-1046480Y4061220D01*
X-1300480Y4061220D01*
X-2349730Y4061220D01*
X-2508480Y3902470D01*
X-2718840Y3902470D01*
X-2847110Y4030740D01*
X-3896360Y4030740D01*
X-4150360Y4030740D01*
X-5199610Y4030740D01*
X-5358360Y3871990D01*
X-5358360Y3805613D01*
X-8583682Y7227600D01*
X-8379790Y7227600D01*
X-8038746Y7295438D01*
X-7749624Y7488624D01*
X-7686040Y7583784D01*
X-7622456Y7488624D01*
X-7333334Y7295438D01*
X-6992290Y7227600D01*
X-6504790Y7227600D01*
X-6163746Y7295438D01*
X-5874624Y7488624D01*
X-5681438Y7777746D01*
X-5613600Y8118790D01*
X-5613600Y9031290D01*
X-5681438Y9372334D01*
X-5805364Y9557802D01*
X-5767821Y9573353D01*
X-5589193Y9751982D01*
X-5492520Y9985371D01*
X-5492520Y10313430D01*
X-5651268Y10472178D01*
X-5492520Y10472178D01*
X-5492520Y10505809D01*
X-5325920Y10339209D01*
X-5298333Y10327782D01*
X-5302962Y10320854D01*
X-5370800Y9979810D01*
X-5370800Y9492310D01*
X-5302962Y9151266D01*
X-5109776Y8862144D01*
X-5014616Y8798560D01*
X-5109776Y8734976D01*
X-5302962Y8445854D01*
X-5370800Y8104810D01*
X-5370800Y7617310D01*
X-5302962Y7276266D01*
X-5109776Y6987144D01*
X-5049547Y6946900D01*
X-5109776Y6906656D01*
X-5302962Y6617534D01*
X-5370800Y6276490D01*
X-5370800Y5788990D01*
X-5302962Y5447946D01*
X-5109776Y5158824D01*
X-5108593Y5158033D01*
X-5261687Y5004938D01*
X-5358360Y4771549D01*
X-5358360Y4443490D01*
X-5199610Y4284740D01*
X-4150360Y4284740D01*
X-4150360Y4304740D01*
X-3896360Y4304740D01*
X-3896360Y4284740D01*
X-2847110Y4284740D01*
X-2688360Y4443490D01*
X-2688360Y4771549D01*
X-2785033Y5004938D01*
X-2938127Y5158033D01*
X-2936944Y5158824D01*
X-2743758Y5447946D01*
X-2675920Y5788990D01*
X-2675920Y6276490D01*
X-2743758Y6617534D01*
X-2936944Y6906656D01*
X-2997173Y6946900D01*
X-2936944Y6987144D01*
X-2743758Y7276266D01*
X-2675920Y7617310D01*
X-2675920Y8104810D01*
X-2743758Y8445854D01*
X-2936944Y8734976D01*
X-3032104Y8798560D01*
X-2936944Y8862144D01*
X-2743758Y9151266D01*
X-2675920Y9492310D01*
X-2675920Y9979810D01*
X-2743758Y10320854D01*
X-2936944Y10609976D01*
X-3057865Y10690773D01*
X-2951638Y10797000D01*
X-1936799Y10797000D01*
X-2209096Y10615056D01*
X-2402282Y10325934D01*
X-2470120Y9984890D01*
X-2470120Y9497390D01*
X-2402282Y9156346D01*
X-2209096Y8867224D01*
X-2113936Y8803640D01*
X-2209096Y8740056D01*
X-2402282Y8450934D01*
X-2470120Y8109890D01*
X-2470120Y7622390D01*
X-2402282Y7281346D01*
X-2209096Y6992224D01*
X-2193274Y6981652D01*
X-2259896Y6937136D01*
X-2453082Y6648014D01*
X-2520920Y6306970D01*
X-2520920Y5819470D01*
X-2453082Y5478426D01*
X-2259896Y5189304D01*
X-2258713Y5188513D01*
X-2411807Y5035418D01*
X-2508480Y4802029D01*
X-2508480Y4473970D01*
X-2349730Y4315220D01*
X-1300480Y4315220D01*
X-1300480Y4335220D01*
X-1046480Y4335220D01*
X-1046480Y4315220D01*
X2770Y4315220D01*
X27940Y4340390D01*
X37870Y4330460D01*
X1087120Y4330460D01*
X1087120Y4350460D01*
X1341120Y4350460D01*
X1341120Y4330460D01*
X2390370Y4330460D01*
X2549120Y4489210D01*
X2549120Y4817269D01*
X2452447Y5050658D01*
X2299353Y5203753D01*
X2300536Y5204544D01*
X2493722Y5493666D01*
X2561560Y5834710D01*
X2561560Y6322210D01*
X2493722Y6663254D01*
X2300536Y6952376D01*
X2292265Y6957903D01*
X2305616Y6966824D01*
X2498802Y7255946D01*
X2566640Y7596990D01*
X2566640Y8084490D01*
X2498802Y8425534D01*
X2305616Y8714656D01*
X2210456Y8778240D01*
X2305616Y8841824D01*
X2498802Y9130946D01*
X2566640Y9471990D01*
X2566640Y9959490D01*
X2498802Y10300534D01*
X2305616Y10589656D01*
X2059840Y10753879D01*
X2465580Y11159619D01*
X2562829Y11062370D01*
X2562829Y11062370D01*
G37*
X2562829Y11062370D02*
X2605231Y10998911D01*
X2762878Y10893574D01*
X2856622Y10830936D01*
X2904765Y10821360D01*
X3078308Y10786840D01*
X3078312Y10786840D01*
X3153160Y10771952D01*
X3228008Y10786840D01*
X3388519Y10786840D01*
X3423487Y10751872D01*
X3150304Y10569336D01*
X2957118Y10280214D01*
X2889280Y9939170D01*
X2889280Y9451670D01*
X2957118Y9110626D01*
X3150304Y8821504D01*
X3245464Y8757920D01*
X3150304Y8694336D01*
X2957118Y8405214D01*
X2889280Y8064170D01*
X2889280Y7576670D01*
X2957118Y7235626D01*
X3135848Y6968140D01*
X3135064Y6967616D01*
X2941878Y6678494D01*
X2874040Y6337450D01*
X2874040Y5849950D01*
X2941878Y5508906D01*
X3135064Y5219784D01*
X3136247Y5218993D01*
X2983153Y5065898D01*
X2886480Y4832509D01*
X2886480Y4504450D01*
X3045230Y4345700D01*
X4094480Y4345700D01*
X4094480Y4365700D01*
X4348480Y4365700D01*
X4348480Y4345700D01*
X5397730Y4345700D01*
X5556480Y4504450D01*
X5556480Y4832509D01*
X5459807Y5065898D01*
X5306713Y5218993D01*
X5307896Y5219784D01*
X5501082Y5508906D01*
X5568920Y5849950D01*
X5568920Y6337450D01*
X5501082Y6678494D01*
X5322352Y6945980D01*
X5323136Y6946504D01*
X5334623Y6963695D01*
X5357529Y6948390D01*
X5759672Y6546245D01*
X5802071Y6482791D01*
X5865524Y6440393D01*
X5865526Y6440391D01*
X5955793Y6380077D01*
X6053463Y6314816D01*
X6275148Y6270720D01*
X6275152Y6270720D01*
X6349999Y6255832D01*
X6424846Y6270720D01*
X7606113Y6270720D01*
X7669846Y6258043D01*
X5516274Y3973156D01*
X5397730Y4091700D01*
X4348480Y4091700D01*
X4348480Y3254950D01*
X4507230Y3096200D01*
X4689718Y3096200D01*
X939393Y-882803D01*
X616009Y-1125165D01*
X263935Y-1257151D01*
X12177Y-1284500D01*
X-360027Y-1231197D01*
X-702311Y-1075570D01*
X-931030Y-891675D01*
X-4632261Y3035240D01*
X-4309110Y3035240D01*
X-4150360Y3193990D01*
X-4150360Y4030740D01*
X-3896360Y4030740D01*
X-3896360Y3193990D01*
X-3737610Y3035240D01*
X-3197050Y3035240D01*
X-2963661Y3131913D01*
X-2785033Y3310542D01*
X-2688360Y3543931D01*
X-2688360Y3871990D01*
X-2718840Y3902470D01*
X-2508480Y3902470D01*
X-2508480Y3574411D01*
X-2411807Y3341022D01*
X-2233179Y3162393D01*
X-1999790Y3065720D01*
X-1459230Y3065720D01*
X-1300480Y3224470D01*
X-1300480Y4061220D01*
X-1046480Y4061220D01*
X-1046480Y3224470D01*
X-887730Y3065720D01*
X-347170Y3065720D01*
X-113781Y3162393D01*
X27940Y3304115D01*
X154421Y3177633D01*
X387810Y3080960D01*
X928370Y3080960D01*
X1087120Y3239710D01*
X1087120Y4076460D01*
X1341120Y4076460D01*
X1341120Y3239710D01*
X1499870Y3080960D01*
X2040430Y3080960D01*
X2273819Y3177633D01*
X2452447Y3356262D01*
X2549120Y3589651D01*
X2549120Y3917710D01*
X2533880Y3932950D01*
X2886480Y3932950D01*
X2886480Y3604891D01*
X2983153Y3371502D01*
X3161781Y3192873D01*
X3395170Y3096200D01*
X3935730Y3096200D01*
X4094480Y3254950D01*
X4094480Y4091700D01*
X3045230Y4091700D01*
X2886480Y3932950D01*
X2533880Y3932950D01*
X2390370Y4076460D01*
X1341120Y4076460D01*
X1087120Y4076460D01*
X37870Y4076460D01*
X12700Y4051290D01*
X2770Y4061220D01*
X-1046480Y4061220D01*
X-1300480Y4061220D01*
X-2349730Y4061220D01*
X-2508480Y3902470D01*
X-2718840Y3902470D01*
X-2847110Y4030740D01*
X-3896360Y4030740D01*
X-4150360Y4030740D01*
X-5199610Y4030740D01*
X-5358360Y3871990D01*
X-5358360Y3805613D01*
X-8583682Y7227600D01*
X-8379790Y7227600D01*
X-8038746Y7295438D01*
X-7749624Y7488624D01*
X-7686040Y7583784D01*
X-7622456Y7488624D01*
X-7333334Y7295438D01*
X-6992290Y7227600D01*
X-6504790Y7227600D01*
X-6163746Y7295438D01*
X-5874624Y7488624D01*
X-5681438Y7777746D01*
X-5613600Y8118790D01*
X-5613600Y9031290D01*
X-5681438Y9372334D01*
X-5805364Y9557802D01*
X-5767821Y9573353D01*
X-5589193Y9751982D01*
X-5492520Y9985371D01*
X-5492520Y10313430D01*
X-5651268Y10472178D01*
X-5492520Y10472178D01*
X-5492520Y10505809D01*
X-5325920Y10339209D01*
X-5298333Y10327782D01*
X-5302962Y10320854D01*
X-5370800Y9979810D01*
X-5370800Y9492310D01*
X-5302962Y9151266D01*
X-5109776Y8862144D01*
X-5014616Y8798560D01*
X-5109776Y8734976D01*
X-5302962Y8445854D01*
X-5370800Y8104810D01*
X-5370800Y7617310D01*
X-5302962Y7276266D01*
X-5109776Y6987144D01*
X-5049547Y6946900D01*
X-5109776Y6906656D01*
X-5302962Y6617534D01*
X-5370800Y6276490D01*
X-5370800Y5788990D01*
X-5302962Y5447946D01*
X-5109776Y5158824D01*
X-5108593Y5158033D01*
X-5261687Y5004938D01*
X-5358360Y4771549D01*
X-5358360Y4443490D01*
X-5199610Y4284740D01*
X-4150360Y4284740D01*
X-4150360Y4304740D01*
X-3896360Y4304740D01*
X-3896360Y4284740D01*
X-2847110Y4284740D01*
X-2688360Y4443490D01*
X-2688360Y4771549D01*
X-2785033Y5004938D01*
X-2938127Y5158033D01*
X-2936944Y5158824D01*
X-2743758Y5447946D01*
X-2675920Y5788990D01*
X-2675920Y6276490D01*
X-2743758Y6617534D01*
X-2936944Y6906656D01*
X-2997173Y6946900D01*
X-2936944Y6987144D01*
X-2743758Y7276266D01*
X-2675920Y7617310D01*
X-2675920Y8104810D01*
X-2743758Y8445854D01*
X-2936944Y8734976D01*
X-3032104Y8798560D01*
X-2936944Y8862144D01*
X-2743758Y9151266D01*
X-2675920Y9492310D01*
X-2675920Y9979810D01*
X-2743758Y10320854D01*
X-2936944Y10609976D01*
X-3057865Y10690773D01*
X-2951638Y10797000D01*
X-1936799Y10797000D01*
X-2209096Y10615056D01*
X-2402282Y10325934D01*
X-2470120Y9984890D01*
X-2470120Y9497390D01*
X-2402282Y9156346D01*
X-2209096Y8867224D01*
X-2113936Y8803640D01*
X-2209096Y8740056D01*
X-2402282Y8450934D01*
X-2470120Y8109890D01*
X-2470120Y7622390D01*
X-2402282Y7281346D01*
X-2209096Y6992224D01*
X-2193274Y6981652D01*
X-2259896Y6937136D01*
X-2453082Y6648014D01*
X-2520920Y6306970D01*
X-2520920Y5819470D01*
X-2453082Y5478426D01*
X-2259896Y5189304D01*
X-2258713Y5188513D01*
X-2411807Y5035418D01*
X-2508480Y4802029D01*
X-2508480Y4473970D01*
X-2349730Y4315220D01*
X-1300480Y4315220D01*
X-1300480Y4335220D01*
X-1046480Y4335220D01*
X-1046480Y4315220D01*
X2770Y4315220D01*
X27940Y4340390D01*
X37870Y4330460D01*
X1087120Y4330460D01*
X1087120Y4350460D01*
X1341120Y4350460D01*
X1341120Y4330460D01*
X2390370Y4330460D01*
X2549120Y4489210D01*
X2549120Y4817269D01*
X2452447Y5050658D01*
X2299353Y5203753D01*
X2300536Y5204544D01*
X2493722Y5493666D01*
X2561560Y5834710D01*
X2561560Y6322210D01*
X2493722Y6663254D01*
X2300536Y6952376D01*
X2292265Y6957903D01*
X2305616Y6966824D01*
X2498802Y7255946D01*
X2566640Y7596990D01*
X2566640Y8084490D01*
X2498802Y8425534D01*
X2305616Y8714656D01*
X2210456Y8778240D01*
X2305616Y8841824D01*
X2498802Y9130946D01*
X2566640Y9471990D01*
X2566640Y9959490D01*
X2498802Y10300534D01*
X2305616Y10589656D01*
X2059840Y10753879D01*
X2465580Y11159619D01*
X2562829Y11062370D01*
G36*
X11142220Y28825731D02*
X12219659Y28299646D01*
X13222665Y27642670D01*
X14135419Y26865168D01*
X14943531Y25979393D01*
X15634256Y24999318D01*
X16196695Y23940405D01*
X16621983Y22819353D01*
X16903410Y21653837D01*
X17036543Y20462229D01*
X17019277Y19263346D01*
X16851887Y18076068D01*
X16537013Y16919140D01*
X16079620Y15810797D01*
X15908560Y15509984D01*
X15908560Y16843228D01*
X15911162Y16856309D01*
X15950184Y16872472D01*
X16360888Y17283176D01*
X16583160Y17819788D01*
X16583160Y18400612D01*
X16360888Y18937224D01*
X15950184Y19347928D01*
X15887746Y19373791D01*
X15892204Y19375637D01*
X15969408Y19624347D01*
X15123160Y20470595D01*
X14276912Y19624347D01*
X14354116Y19375637D01*
X14358879Y19373917D01*
X14296136Y19347928D01*
X13885432Y18937224D01*
X13700421Y18490568D01*
X13547843Y18858924D01*
X13299133Y18936128D01*
X12452885Y18089880D01*
X13299133Y17243632D01*
X13547843Y17320836D01*
X13697814Y17736126D01*
X13885432Y17283176D01*
X14296136Y16872472D01*
X14368345Y16842562D01*
X14387266Y16747440D01*
X14388560Y16740932D01*
X14388561Y15564963D01*
X9436770Y10613171D01*
X9373311Y10570769D01*
X9205336Y10319376D01*
X9161240Y10097691D01*
X9161240Y10097687D01*
X9146352Y10022840D01*
X9161240Y9947993D01*
X9161240Y9585802D01*
X8983810Y9408372D01*
X8548051Y9844130D01*
X8505649Y9907589D01*
X8426712Y9960333D01*
X8244136Y10233576D01*
X8148976Y10297160D01*
X8244136Y10360744D01*
X8437322Y10649866D01*
X8505160Y10990910D01*
X8505160Y11478410D01*
X8437322Y11819454D01*
X8403648Y11869851D01*
X8552510Y11840240D01*
X9040010Y11840240D01*
X9381054Y11908078D01*
X9670176Y12101264D01*
X9863362Y12390386D01*
X9931200Y12731430D01*
X9931200Y13643930D01*
X9863362Y13984974D01*
X9670176Y14274096D01*
X9556260Y14350213D01*
X9556260Y14669614D01*
X9571148Y14744461D01*
X9556260Y14819308D01*
X9556260Y14819312D01*
X9512164Y15040997D01*
X9439087Y15150364D01*
X9386589Y15228934D01*
X9386587Y15228936D01*
X9344189Y15292389D01*
X9280736Y15334787D01*
X8775230Y15840292D01*
X10813280Y15840292D01*
X10813280Y15259468D01*
X11035552Y14722856D01*
X11446256Y14312152D01*
X11982868Y14089880D01*
X12563692Y14089880D01*
X13100304Y14312152D01*
X13511008Y14722856D01*
X13733280Y15259468D01*
X13733280Y15840292D01*
X13511008Y16376904D01*
X13100304Y16787608D01*
X13037866Y16813471D01*
X13042324Y16815317D01*
X13119528Y17064027D01*
X12273280Y17910275D01*
X11427032Y17064027D01*
X11504236Y16815317D01*
X11508999Y16813597D01*
X11446256Y16787608D01*
X11035552Y16376904D01*
X10813280Y15840292D01*
X8775230Y15840292D01*
X8415560Y16199961D01*
X8415560Y18312630D01*
X10801437Y18312630D01*
X10828232Y17732424D01*
X10998717Y17320836D01*
X11247427Y17243632D01*
X12093675Y18089880D01*
X11247427Y18936128D01*
X10998717Y18858924D01*
X10801437Y18312630D01*
X8415560Y18312630D01*
X8415560Y18995472D01*
X8430448Y19070320D01*
X8430251Y19071310D01*
X8502170Y19041520D01*
X9142730Y19041520D01*
X9301480Y19200270D01*
X9301480Y21299520D01*
X9555480Y21299520D01*
X9555480Y19200270D01*
X9714230Y19041520D01*
X10354790Y19041520D01*
X10533955Y19115733D01*
X11427032Y19115733D01*
X12273280Y18269485D01*
X13119528Y19115733D01*
X13042324Y19364443D01*
X12496030Y19561723D01*
X11915824Y19534928D01*
X11504236Y19364443D01*
X11427032Y19115733D01*
X10533955Y19115733D01*
X10588179Y19138193D01*
X10766807Y19316822D01*
X10863480Y19550211D01*
X10863480Y20872950D01*
X13651317Y20872950D01*
X13678112Y20292744D01*
X13848597Y19881156D01*
X14097307Y19803952D01*
X14943555Y20650200D01*
X15302765Y20650200D01*
X16149013Y19803952D01*
X16397723Y19881156D01*
X16595003Y20427450D01*
X16568208Y21007656D01*
X16397723Y21419244D01*
X16149013Y21496448D01*
X15302765Y20650200D01*
X14943555Y20650200D01*
X14097307Y21496448D01*
X13848597Y21419244D01*
X13651317Y20872950D01*
X10863480Y20872950D01*
X10863480Y21140770D01*
X10704730Y21299520D01*
X9555480Y21299520D01*
X9301480Y21299520D01*
X8152230Y21299520D01*
X7993480Y21140770D01*
X7993480Y19807202D01*
X6266937Y21533744D01*
X6266937Y22960436D01*
X6281825Y23035283D01*
X6266937Y23110130D01*
X6266937Y23110135D01*
X6228608Y23302829D01*
X7993480Y23302829D01*
X7993480Y21712270D01*
X8152230Y21553520D01*
X9301480Y21553520D01*
X9301480Y23652770D01*
X9555480Y23652770D01*
X9555480Y21553520D01*
X10704730Y21553520D01*
X10827263Y21676053D01*
X14276912Y21676053D01*
X15123160Y20829805D01*
X15969408Y21676053D01*
X15892204Y21924763D01*
X15345910Y22122043D01*
X14765704Y22095248D01*
X14354116Y21924763D01*
X14276912Y21676053D01*
X10827263Y21676053D01*
X10863480Y21712270D01*
X10863480Y23302829D01*
X10766807Y23536218D01*
X10588179Y23714847D01*
X10354790Y23811520D01*
X9714230Y23811520D01*
X9555480Y23652770D01*
X9301480Y23652770D01*
X9142730Y23811520D01*
X8502170Y23811520D01*
X8268781Y23714847D01*
X8090153Y23536218D01*
X7993480Y23302829D01*
X6228608Y23302829D01*
X6222841Y23331820D01*
X6085640Y23537156D01*
X6085640Y24047770D01*
X6017802Y24388814D01*
X5824616Y24677936D01*
X5535494Y24871122D01*
X5194450Y24938960D01*
X4706950Y24938960D01*
X4365906Y24871122D01*
X4076784Y24677936D01*
X4013200Y24582776D01*
X3949616Y24677936D01*
X3660494Y24871122D01*
X3319450Y24938960D01*
X2831950Y24938960D01*
X2490906Y24871122D01*
X2201784Y24677936D01*
X2092419Y24514260D01*
X1964551Y24822960D01*
X1673400Y25114111D01*
X1292994Y25271680D01*
X1080040Y25271680D01*
X1080040Y25283318D01*
X1437482Y25640760D01*
X1484713Y25640760D01*
X1559560Y25625872D01*
X1634407Y25640760D01*
X1634412Y25640760D01*
X1856097Y25684856D01*
X2107489Y25852831D01*
X2149891Y25916290D01*
X2961482Y26727880D01*
X3222073Y26727880D01*
X3296920Y26712992D01*
X3371767Y26727880D01*
X3371772Y26727880D01*
X3593457Y26771976D01*
X3844849Y26939951D01*
X3887251Y27003409D01*
X4612483Y27728640D01*
X5589353Y27728640D01*
X5664200Y27713752D01*
X5739047Y27728640D01*
X5739052Y27728640D01*
X5960737Y27772736D01*
X6212129Y27940711D01*
X6254531Y28004170D01*
X6542882Y28292520D01*
X7981040Y28292520D01*
X7981040Y25526520D01*
X8049354Y25183085D01*
X8243894Y24891934D01*
X8535045Y24697394D01*
X8878480Y24629080D01*
X9978480Y24629080D01*
X10321915Y24697394D01*
X10613066Y24891934D01*
X10807606Y25183085D01*
X10875920Y25526520D01*
X10875920Y28526520D01*
X10807606Y28869955D01*
X10747165Y28960412D01*
X11142220Y28825731D01*
X11142220Y28825731D01*
G37*
X11142220Y28825731D02*
X12219659Y28299646D01*
X13222665Y27642670D01*
X14135419Y26865168D01*
X14943531Y25979393D01*
X15634256Y24999318D01*
X16196695Y23940405D01*
X16621983Y22819353D01*
X16903410Y21653837D01*
X17036543Y20462229D01*
X17019277Y19263346D01*
X16851887Y18076068D01*
X16537013Y16919140D01*
X16079620Y15810797D01*
X15908560Y15509984D01*
X15908560Y16843228D01*
X15911162Y16856309D01*
X15950184Y16872472D01*
X16360888Y17283176D01*
X16583160Y17819788D01*
X16583160Y18400612D01*
X16360888Y18937224D01*
X15950184Y19347928D01*
X15887746Y19373791D01*
X15892204Y19375637D01*
X15969408Y19624347D01*
X15123160Y20470595D01*
X14276912Y19624347D01*
X14354116Y19375637D01*
X14358879Y19373917D01*
X14296136Y19347928D01*
X13885432Y18937224D01*
X13700421Y18490568D01*
X13547843Y18858924D01*
X13299133Y18936128D01*
X12452885Y18089880D01*
X13299133Y17243632D01*
X13547843Y17320836D01*
X13697814Y17736126D01*
X13885432Y17283176D01*
X14296136Y16872472D01*
X14368345Y16842562D01*
X14387266Y16747440D01*
X14388560Y16740932D01*
X14388561Y15564963D01*
X9436770Y10613171D01*
X9373311Y10570769D01*
X9205336Y10319376D01*
X9161240Y10097691D01*
X9161240Y10097687D01*
X9146352Y10022840D01*
X9161240Y9947993D01*
X9161240Y9585802D01*
X8983810Y9408372D01*
X8548051Y9844130D01*
X8505649Y9907589D01*
X8426712Y9960333D01*
X8244136Y10233576D01*
X8148976Y10297160D01*
X8244136Y10360744D01*
X8437322Y10649866D01*
X8505160Y10990910D01*
X8505160Y11478410D01*
X8437322Y11819454D01*
X8403648Y11869851D01*
X8552510Y11840240D01*
X9040010Y11840240D01*
X9381054Y11908078D01*
X9670176Y12101264D01*
X9863362Y12390386D01*
X9931200Y12731430D01*
X9931200Y13643930D01*
X9863362Y13984974D01*
X9670176Y14274096D01*
X9556260Y14350213D01*
X9556260Y14669614D01*
X9571148Y14744461D01*
X9556260Y14819308D01*
X9556260Y14819312D01*
X9512164Y15040997D01*
X9439087Y15150364D01*
X9386589Y15228934D01*
X9386587Y15228936D01*
X9344189Y15292389D01*
X9280736Y15334787D01*
X8775230Y15840292D01*
X10813280Y15840292D01*
X10813280Y15259468D01*
X11035552Y14722856D01*
X11446256Y14312152D01*
X11982868Y14089880D01*
X12563692Y14089880D01*
X13100304Y14312152D01*
X13511008Y14722856D01*
X13733280Y15259468D01*
X13733280Y15840292D01*
X13511008Y16376904D01*
X13100304Y16787608D01*
X13037866Y16813471D01*
X13042324Y16815317D01*
X13119528Y17064027D01*
X12273280Y17910275D01*
X11427032Y17064027D01*
X11504236Y16815317D01*
X11508999Y16813597D01*
X11446256Y16787608D01*
X11035552Y16376904D01*
X10813280Y15840292D01*
X8775230Y15840292D01*
X8415560Y16199961D01*
X8415560Y18312630D01*
X10801437Y18312630D01*
X10828232Y17732424D01*
X10998717Y17320836D01*
X11247427Y17243632D01*
X12093675Y18089880D01*
X11247427Y18936128D01*
X10998717Y18858924D01*
X10801437Y18312630D01*
X8415560Y18312630D01*
X8415560Y18995472D01*
X8430448Y19070320D01*
X8430251Y19071310D01*
X8502170Y19041520D01*
X9142730Y19041520D01*
X9301480Y19200270D01*
X9301480Y21299520D01*
X9555480Y21299520D01*
X9555480Y19200270D01*
X9714230Y19041520D01*
X10354790Y19041520D01*
X10533955Y19115733D01*
X11427032Y19115733D01*
X12273280Y18269485D01*
X13119528Y19115733D01*
X13042324Y19364443D01*
X12496030Y19561723D01*
X11915824Y19534928D01*
X11504236Y19364443D01*
X11427032Y19115733D01*
X10533955Y19115733D01*
X10588179Y19138193D01*
X10766807Y19316822D01*
X10863480Y19550211D01*
X10863480Y20872950D01*
X13651317Y20872950D01*
X13678112Y20292744D01*
X13848597Y19881156D01*
X14097307Y19803952D01*
X14943555Y20650200D01*
X15302765Y20650200D01*
X16149013Y19803952D01*
X16397723Y19881156D01*
X16595003Y20427450D01*
X16568208Y21007656D01*
X16397723Y21419244D01*
X16149013Y21496448D01*
X15302765Y20650200D01*
X14943555Y20650200D01*
X14097307Y21496448D01*
X13848597Y21419244D01*
X13651317Y20872950D01*
X10863480Y20872950D01*
X10863480Y21140770D01*
X10704730Y21299520D01*
X9555480Y21299520D01*
X9301480Y21299520D01*
X8152230Y21299520D01*
X7993480Y21140770D01*
X7993480Y19807202D01*
X6266937Y21533744D01*
X6266937Y22960436D01*
X6281825Y23035283D01*
X6266937Y23110130D01*
X6266937Y23110135D01*
X6228608Y23302829D01*
X7993480Y23302829D01*
X7993480Y21712270D01*
X8152230Y21553520D01*
X9301480Y21553520D01*
X9301480Y23652770D01*
X9555480Y23652770D01*
X9555480Y21553520D01*
X10704730Y21553520D01*
X10827263Y21676053D01*
X14276912Y21676053D01*
X15123160Y20829805D01*
X15969408Y21676053D01*
X15892204Y21924763D01*
X15345910Y22122043D01*
X14765704Y22095248D01*
X14354116Y21924763D01*
X14276912Y21676053D01*
X10827263Y21676053D01*
X10863480Y21712270D01*
X10863480Y23302829D01*
X10766807Y23536218D01*
X10588179Y23714847D01*
X10354790Y23811520D01*
X9714230Y23811520D01*
X9555480Y23652770D01*
X9301480Y23652770D01*
X9142730Y23811520D01*
X8502170Y23811520D01*
X8268781Y23714847D01*
X8090153Y23536218D01*
X7993480Y23302829D01*
X6228608Y23302829D01*
X6222841Y23331820D01*
X6085640Y23537156D01*
X6085640Y24047770D01*
X6017802Y24388814D01*
X5824616Y24677936D01*
X5535494Y24871122D01*
X5194450Y24938960D01*
X4706950Y24938960D01*
X4365906Y24871122D01*
X4076784Y24677936D01*
X4013200Y24582776D01*
X3949616Y24677936D01*
X3660494Y24871122D01*
X3319450Y24938960D01*
X2831950Y24938960D01*
X2490906Y24871122D01*
X2201784Y24677936D01*
X2092419Y24514260D01*
X1964551Y24822960D01*
X1673400Y25114111D01*
X1292994Y25271680D01*
X1080040Y25271680D01*
X1080040Y25283318D01*
X1437482Y25640760D01*
X1484713Y25640760D01*
X1559560Y25625872D01*
X1634407Y25640760D01*
X1634412Y25640760D01*
X1856097Y25684856D01*
X2107489Y25852831D01*
X2149891Y25916290D01*
X2961482Y26727880D01*
X3222073Y26727880D01*
X3296920Y26712992D01*
X3371767Y26727880D01*
X3371772Y26727880D01*
X3593457Y26771976D01*
X3844849Y26939951D01*
X3887251Y27003409D01*
X4612483Y27728640D01*
X5589353Y27728640D01*
X5664200Y27713752D01*
X5739047Y27728640D01*
X5739052Y27728640D01*
X5960737Y27772736D01*
X6212129Y27940711D01*
X6254531Y28004170D01*
X6542882Y28292520D01*
X7981040Y28292520D01*
X7981040Y25526520D01*
X8049354Y25183085D01*
X8243894Y24891934D01*
X8535045Y24697394D01*
X8878480Y24629080D01*
X9978480Y24629080D01*
X10321915Y24697394D01*
X10613066Y24891934D01*
X10807606Y25183085D01*
X10875920Y25526520D01*
X10875920Y28526520D01*
X10807606Y28869955D01*
X10747165Y28960412D01*
X11142220Y28825731D01*
G36*
X-15714454Y24774500D02*
X-15745648Y24617680D01*
X-15730759Y24542829D01*
X-15730760Y23996212D01*
X-15783294Y23985762D01*
X-16072416Y23792576D01*
X-16265602Y23503454D01*
X-16333440Y23162410D01*
X-16333440Y22674910D01*
X-16265602Y22333866D01*
X-16072416Y22044744D01*
X-16071233Y22043953D01*
X-16224327Y21890858D01*
X-16321000Y21657469D01*
X-16321000Y21329410D01*
X-16162250Y21170660D01*
X-15113000Y21170660D01*
X-15113000Y21190660D01*
X-14859000Y21190660D01*
X-14859000Y21170660D01*
X-13809750Y21170660D01*
X-13651000Y21329410D01*
X-13651000Y21657469D01*
X-13747673Y21890858D01*
X-13900767Y22043953D01*
X-13899584Y22044744D01*
X-13706398Y22333866D01*
X-13638560Y22674910D01*
X-13638560Y23162410D01*
X-13706398Y23503454D01*
X-13899584Y23792576D01*
X-14188706Y23985762D01*
X-14210760Y23990149D01*
X-14210760Y24302879D01*
X-13822838Y24690800D01*
X-12381480Y24690800D01*
X-12381480Y20501360D01*
X-12332197Y20253595D01*
X-12191849Y20043551D01*
X-11981805Y19903203D01*
X-11734040Y19853920D01*
X-11382522Y19853920D01*
X-11281969Y19703431D01*
X-11218510Y19661029D01*
X-8888567Y17331084D01*
X-8846169Y17267631D01*
X-8782716Y17225233D01*
X-8782714Y17225231D01*
X-8669178Y17149369D01*
X-8594777Y17099656D01*
X-8491759Y17079164D01*
X-8491760Y14127322D01*
X-8719153Y13899929D01*
X-8782608Y13857529D01*
X-8825008Y13794073D01*
X-8825009Y13794072D01*
X-8931229Y13635103D01*
X-8950583Y13606137D01*
X-8962823Y13544600D01*
X-9009568Y13309600D01*
X-8994679Y13234748D01*
X-8994680Y10128167D01*
X-9009568Y10053320D01*
X-8994680Y9978473D01*
X-8994680Y9978469D01*
X-8979118Y9900236D01*
X-9208334Y9854642D01*
X-9497456Y9661456D01*
X-9500932Y9656254D01*
X-10113021Y10268342D01*
X-10143711Y10314273D01*
X-10186111Y10377729D01*
X-10249567Y10420129D01*
X-11183359Y11353920D01*
X-9734040Y11353920D01*
X-9486275Y11403203D01*
X-9276231Y11543551D01*
X-9135883Y11753595D01*
X-9086600Y12001360D01*
X-9086600Y16501360D01*
X-9135883Y16749125D01*
X-9276231Y16959169D01*
X-9486275Y17099517D01*
X-9734040Y17148800D01*
X-11734040Y17148800D01*
X-11981805Y17099517D01*
X-12191849Y16959169D01*
X-12332197Y16749125D01*
X-12381480Y16501360D01*
X-12381480Y14899843D01*
X-12531969Y14799289D01*
X-12574370Y14735832D01*
X-12788233Y14521969D01*
X-12851688Y14479569D01*
X-12894088Y14416113D01*
X-12894089Y14416112D01*
X-12970178Y14302237D01*
X-13019663Y14228177D01*
X-13043357Y14109057D01*
X-13078648Y13931640D01*
X-13063759Y13856788D01*
X-13063759Y13219081D01*
X-14302200Y14457521D01*
X-14302200Y15473340D01*
X-14264906Y15480758D01*
X-13975784Y15673944D01*
X-13782598Y15963066D01*
X-13714760Y16304110D01*
X-13714760Y16791610D01*
X-13782598Y17132654D01*
X-13975784Y17421776D01*
X-13976967Y17422567D01*
X-13823873Y17575662D01*
X-13727200Y17809051D01*
X-13727200Y18137110D01*
X-13885950Y18295860D01*
X-14935200Y18295860D01*
X-14935200Y18275860D01*
X-15189200Y18275860D01*
X-15189200Y18295860D01*
X-16238450Y18295860D01*
X-16397200Y18137110D01*
X-16397200Y17809051D01*
X-16300527Y17575662D01*
X-16147433Y17422567D01*
X-16148616Y17421776D01*
X-16341802Y17132654D01*
X-16409640Y16791610D01*
X-16409640Y16579809D01*
X-16754985Y17653819D01*
X-16976061Y18832276D01*
X-16988293Y19036669D01*
X-16397200Y19036669D01*
X-16397200Y18708610D01*
X-16238450Y18549860D01*
X-15189200Y18549860D01*
X-15189200Y19386610D01*
X-14935200Y19386610D01*
X-14935200Y18549860D01*
X-13885950Y18549860D01*
X-13727200Y18708610D01*
X-13727200Y19036669D01*
X-13823873Y19270058D01*
X-14002501Y19448687D01*
X-14235890Y19545360D01*
X-14776450Y19545360D01*
X-14935200Y19386610D01*
X-15189200Y19386610D01*
X-15347950Y19545360D01*
X-15888510Y19545360D01*
X-16121899Y19448687D01*
X-16300527Y19270058D01*
X-16397200Y19036669D01*
X-16988293Y19036669D01*
X-17047693Y20029149D01*
X-16999610Y20757910D01*
X-16321000Y20757910D01*
X-16321000Y20429851D01*
X-16224327Y20196462D01*
X-16045699Y20017833D01*
X-15812310Y19921160D01*
X-15271750Y19921160D01*
X-15113000Y20079910D01*
X-15113000Y20916660D01*
X-14859000Y20916660D01*
X-14859000Y20079910D01*
X-14700250Y19921160D01*
X-14159690Y19921160D01*
X-13926301Y20017833D01*
X-13747673Y20196462D01*
X-13651000Y20429851D01*
X-13651000Y20757910D01*
X-13809750Y20916660D01*
X-14859000Y20916660D01*
X-15113000Y20916660D01*
X-16162250Y20916660D01*
X-16321000Y20757910D01*
X-16999610Y20757910D01*
X-16968754Y21225570D01*
X-16740487Y22402647D01*
X-16366490Y23541845D01*
X-15852666Y24625179D01*
X-15695102Y24871794D01*
X-15714454Y24774500D01*
X-15714454Y24774500D01*
G37*
X-15714454Y24774500D02*
X-15745648Y24617680D01*
X-15730759Y24542829D01*
X-15730760Y23996212D01*
X-15783294Y23985762D01*
X-16072416Y23792576D01*
X-16265602Y23503454D01*
X-16333440Y23162410D01*
X-16333440Y22674910D01*
X-16265602Y22333866D01*
X-16072416Y22044744D01*
X-16071233Y22043953D01*
X-16224327Y21890858D01*
X-16321000Y21657469D01*
X-16321000Y21329410D01*
X-16162250Y21170660D01*
X-15113000Y21170660D01*
X-15113000Y21190660D01*
X-14859000Y21190660D01*
X-14859000Y21170660D01*
X-13809750Y21170660D01*
X-13651000Y21329410D01*
X-13651000Y21657469D01*
X-13747673Y21890858D01*
X-13900767Y22043953D01*
X-13899584Y22044744D01*
X-13706398Y22333866D01*
X-13638560Y22674910D01*
X-13638560Y23162410D01*
X-13706398Y23503454D01*
X-13899584Y23792576D01*
X-14188706Y23985762D01*
X-14210760Y23990149D01*
X-14210760Y24302879D01*
X-13822838Y24690800D01*
X-12381480Y24690800D01*
X-12381480Y20501360D01*
X-12332197Y20253595D01*
X-12191849Y20043551D01*
X-11981805Y19903203D01*
X-11734040Y19853920D01*
X-11382522Y19853920D01*
X-11281969Y19703431D01*
X-11218510Y19661029D01*
X-8888567Y17331084D01*
X-8846169Y17267631D01*
X-8782716Y17225233D01*
X-8782714Y17225231D01*
X-8669178Y17149369D01*
X-8594777Y17099656D01*
X-8491759Y17079164D01*
X-8491760Y14127322D01*
X-8719153Y13899929D01*
X-8782608Y13857529D01*
X-8825008Y13794073D01*
X-8825009Y13794072D01*
X-8931229Y13635103D01*
X-8950583Y13606137D01*
X-8962823Y13544600D01*
X-9009568Y13309600D01*
X-8994679Y13234748D01*
X-8994680Y10128167D01*
X-9009568Y10053320D01*
X-8994680Y9978473D01*
X-8994680Y9978469D01*
X-8979118Y9900236D01*
X-9208334Y9854642D01*
X-9497456Y9661456D01*
X-9500932Y9656254D01*
X-10113021Y10268342D01*
X-10143711Y10314273D01*
X-10186111Y10377729D01*
X-10249567Y10420129D01*
X-11183359Y11353920D01*
X-9734040Y11353920D01*
X-9486275Y11403203D01*
X-9276231Y11543551D01*
X-9135883Y11753595D01*
X-9086600Y12001360D01*
X-9086600Y16501360D01*
X-9135883Y16749125D01*
X-9276231Y16959169D01*
X-9486275Y17099517D01*
X-9734040Y17148800D01*
X-11734040Y17148800D01*
X-11981805Y17099517D01*
X-12191849Y16959169D01*
X-12332197Y16749125D01*
X-12381480Y16501360D01*
X-12381480Y14899843D01*
X-12531969Y14799289D01*
X-12574370Y14735832D01*
X-12788233Y14521969D01*
X-12851688Y14479569D01*
X-12894088Y14416113D01*
X-12894089Y14416112D01*
X-12970178Y14302237D01*
X-13019663Y14228177D01*
X-13043357Y14109057D01*
X-13078648Y13931640D01*
X-13063759Y13856788D01*
X-13063759Y13219081D01*
X-14302200Y14457521D01*
X-14302200Y15473340D01*
X-14264906Y15480758D01*
X-13975784Y15673944D01*
X-13782598Y15963066D01*
X-13714760Y16304110D01*
X-13714760Y16791610D01*
X-13782598Y17132654D01*
X-13975784Y17421776D01*
X-13976967Y17422567D01*
X-13823873Y17575662D01*
X-13727200Y17809051D01*
X-13727200Y18137110D01*
X-13885950Y18295860D01*
X-14935200Y18295860D01*
X-14935200Y18275860D01*
X-15189200Y18275860D01*
X-15189200Y18295860D01*
X-16238450Y18295860D01*
X-16397200Y18137110D01*
X-16397200Y17809051D01*
X-16300527Y17575662D01*
X-16147433Y17422567D01*
X-16148616Y17421776D01*
X-16341802Y17132654D01*
X-16409640Y16791610D01*
X-16409640Y16579809D01*
X-16754985Y17653819D01*
X-16976061Y18832276D01*
X-16988293Y19036669D01*
X-16397200Y19036669D01*
X-16397200Y18708610D01*
X-16238450Y18549860D01*
X-15189200Y18549860D01*
X-15189200Y19386610D01*
X-14935200Y19386610D01*
X-14935200Y18549860D01*
X-13885950Y18549860D01*
X-13727200Y18708610D01*
X-13727200Y19036669D01*
X-13823873Y19270058D01*
X-14002501Y19448687D01*
X-14235890Y19545360D01*
X-14776450Y19545360D01*
X-14935200Y19386610D01*
X-15189200Y19386610D01*
X-15347950Y19545360D01*
X-15888510Y19545360D01*
X-16121899Y19448687D01*
X-16300527Y19270058D01*
X-16397200Y19036669D01*
X-16988293Y19036669D01*
X-17047693Y20029149D01*
X-16999610Y20757910D01*
X-16321000Y20757910D01*
X-16321000Y20429851D01*
X-16224327Y20196462D01*
X-16045699Y20017833D01*
X-15812310Y19921160D01*
X-15271750Y19921160D01*
X-15113000Y20079910D01*
X-15113000Y20916660D01*
X-14859000Y20916660D01*
X-14859000Y20079910D01*
X-14700250Y19921160D01*
X-14159690Y19921160D01*
X-13926301Y20017833D01*
X-13747673Y20196462D01*
X-13651000Y20429851D01*
X-13651000Y20757910D01*
X-13809750Y20916660D01*
X-14859000Y20916660D01*
X-15113000Y20916660D01*
X-16162250Y20916660D01*
X-16321000Y20757910D01*
X-16999610Y20757910D01*
X-16968754Y21225570D01*
X-16740487Y22402647D01*
X-16366490Y23541845D01*
X-15852666Y24625179D01*
X-15695102Y24871794D01*
X-15714454Y24774500D01*
G36*
X-6700520Y10726180D02*
X-6680520Y10726180D01*
X-6680520Y10472180D01*
X-6700520Y10472180D01*
X-6700520Y10452180D01*
X-6954520Y10452180D01*
X-6954520Y10472180D01*
X-6974520Y10472180D01*
X-6974520Y10726180D01*
X-6954520Y10726180D01*
X-6954520Y10746180D01*
X-6700520Y10746180D01*
X-6700520Y10726180D01*
X-6700520Y10726180D01*
G37*
X-6700520Y10726180D02*
X-6680520Y10726180D01*
X-6680520Y10472180D01*
X-6700520Y10472180D01*
X-6700520Y10452180D01*
X-6954520Y10452180D01*
X-6954520Y10472180D01*
X-6974520Y10472180D01*
X-6974520Y10726180D01*
X-6954520Y10726180D01*
X-6954520Y10746180D01*
X-6700520Y10746180D01*
X-6700520Y10726180D01*
G36*
X-5097765Y13301843D02*
X-4850000Y13252560D01*
X-3747440Y13252560D01*
X-3747440Y12843570D01*
X-3756018Y12841864D01*
X-3890328Y12752120D01*
X-4007409Y12673889D01*
X-4049809Y12610433D01*
X-4445261Y12214980D01*
X-4533766Y12251640D01*
X-4781853Y12251640D01*
X-4885911Y12407373D01*
X-4928311Y12470829D01*
X-4991767Y12513229D01*
X-5436274Y12957735D01*
X-5193169Y13200840D01*
X-5139720Y13329877D01*
X-5097765Y13301843D01*
X-5097765Y13301843D01*
G37*
X-5097765Y13301843D02*
X-4850000Y13252560D01*
X-3747440Y13252560D01*
X-3747440Y12843570D01*
X-3756018Y12841864D01*
X-3890328Y12752120D01*
X-4007409Y12673889D01*
X-4049809Y12610433D01*
X-4445261Y12214980D01*
X-4533766Y12251640D01*
X-4781853Y12251640D01*
X-4885911Y12407373D01*
X-4928311Y12470829D01*
X-4991767Y12513229D01*
X-5436274Y12957735D01*
X-5193169Y13200840D01*
X-5139720Y13329877D01*
X-5097765Y13301843D01*
G36*
X1466040Y19216231D02*
X1174889Y18925080D01*
X1017320Y18544674D01*
X1017320Y18378601D01*
X922688Y18283969D01*
X859232Y18241569D01*
X816832Y18178113D01*
X816831Y18178112D01*
X691257Y17990177D01*
X632272Y17693640D01*
X647161Y17618788D01*
X647160Y15288391D01*
X524649Y15165880D01*
X367080Y14785474D01*
X367080Y14373726D01*
X522942Y13997440D01*
X100000Y13997440D01*
X0Y13977549D01*
X-100000Y13997440D01*
X-700000Y13997440D01*
X-800000Y13977549D01*
X-900000Y13997440D01*
X-1500000Y13997440D01*
X-1600000Y13977549D01*
X-1700000Y13997440D01*
X-2300000Y13997440D01*
X-2400000Y13977549D01*
X-2500000Y13997440D01*
X-3002560Y13997440D01*
X-3002560Y14500000D01*
X-3022451Y14600000D01*
X-3002560Y14700000D01*
X-3002560Y15300000D01*
X-3022451Y15400000D01*
X-3002560Y15500000D01*
X-3002560Y16100000D01*
X-3022451Y16200000D01*
X-3002560Y16300000D01*
X-3002560Y16900000D01*
X-3016498Y16970073D01*
X-3015000Y16973690D01*
X-3015000Y17114250D01*
X-3058545Y17157795D01*
X-3192191Y17357809D01*
X-3255334Y17400000D01*
X-3192191Y17442191D01*
X-3058545Y17642205D01*
X-3015000Y17685750D01*
X-3015000Y17826310D01*
X-3016498Y17829927D01*
X-3002560Y17900000D01*
X-3002560Y18500000D01*
X-3022451Y18600000D01*
X-3002560Y18700000D01*
X-3002560Y19300000D01*
X-3013595Y19355478D01*
X-3006950Y19356800D01*
X1805404Y19356800D01*
X1466040Y19216231D01*
X1466040Y19216231D01*
G37*
X1466040Y19216231D02*
X1174889Y18925080D01*
X1017320Y18544674D01*
X1017320Y18378601D01*
X922688Y18283969D01*
X859232Y18241569D01*
X816832Y18178113D01*
X816831Y18178112D01*
X691257Y17990177D01*
X632272Y17693640D01*
X647161Y17618788D01*
X647160Y15288391D01*
X524649Y15165880D01*
X367080Y14785474D01*
X367080Y14373726D01*
X522942Y13997440D01*
X100000Y13997440D01*
X0Y13977549D01*
X-100000Y13997440D01*
X-700000Y13997440D01*
X-800000Y13977549D01*
X-900000Y13997440D01*
X-1500000Y13997440D01*
X-1600000Y13977549D01*
X-1700000Y13997440D01*
X-2300000Y13997440D01*
X-2400000Y13977549D01*
X-2500000Y13997440D01*
X-3002560Y13997440D01*
X-3002560Y14500000D01*
X-3022451Y14600000D01*
X-3002560Y14700000D01*
X-3002560Y15300000D01*
X-3022451Y15400000D01*
X-3002560Y15500000D01*
X-3002560Y16100000D01*
X-3022451Y16200000D01*
X-3002560Y16300000D01*
X-3002560Y16900000D01*
X-3016498Y16970073D01*
X-3015000Y16973690D01*
X-3015000Y17114250D01*
X-3058545Y17157795D01*
X-3192191Y17357809D01*
X-3255334Y17400000D01*
X-3192191Y17442191D01*
X-3058545Y17642205D01*
X-3015000Y17685750D01*
X-3015000Y17826310D01*
X-3016498Y17829927D01*
X-3002560Y17900000D01*
X-3002560Y18500000D01*
X-3022451Y18600000D01*
X-3002560Y18700000D01*
X-3002560Y19300000D01*
X-3013595Y19355478D01*
X-3006950Y19356800D01*
X1805404Y19356800D01*
X1466040Y19216231D01*
G36*
X-2488160Y24631410D02*
X-2329410Y24472660D01*
X-1280160Y24472660D01*
X-1280160Y24492660D01*
X-1026160Y24492660D01*
X-1026160Y24472660D01*
X-1006160Y24472660D01*
X-1006160Y24218660D01*
X-1026160Y24218660D01*
X-1026160Y24198660D01*
X-1280160Y24198660D01*
X-1280160Y24218660D01*
X-2329410Y24218660D01*
X-2488160Y24059910D01*
X-2488160Y23731851D01*
X-2397641Y23513320D01*
X-3507609Y23513320D01*
X-3625040Y23630751D01*
X-3961381Y23770068D01*
X-3916880Y23993790D01*
X-3916880Y24504404D01*
X-3899654Y24530185D01*
X-3769519Y24660320D01*
X-3112687Y24660320D01*
X-3037840Y24645432D01*
X-2962993Y24660320D01*
X-2962988Y24660320D01*
X-2741303Y24704416D01*
X-2489911Y24872391D01*
X-2488160Y24875012D01*
X-2488160Y24631410D01*
X-2488160Y24631410D01*
G37*
X-2488160Y24631410D02*
X-2329410Y24472660D01*
X-1280160Y24472660D01*
X-1280160Y24492660D01*
X-1026160Y24492660D01*
X-1026160Y24472660D01*
X-1006160Y24472660D01*
X-1006160Y24218660D01*
X-1026160Y24218660D01*
X-1026160Y24198660D01*
X-1280160Y24198660D01*
X-1280160Y24218660D01*
X-2329410Y24218660D01*
X-2488160Y24059910D01*
X-2488160Y23731851D01*
X-2397641Y23513320D01*
X-3507609Y23513320D01*
X-3625040Y23630751D01*
X-3961381Y23770068D01*
X-3916880Y23993790D01*
X-3916880Y24504404D01*
X-3899654Y24530185D01*
X-3769519Y24660320D01*
X-3112687Y24660320D01*
X-3037840Y24645432D01*
X-2962993Y24660320D01*
X-2962988Y24660320D01*
X-2741303Y24704416D01*
X-2489911Y24872391D01*
X-2488160Y24875012D01*
X-2488160Y24631410D01*
G36*
X-3590853Y27100703D02*
X-3604995Y27086560D01*
X-3590853Y27072418D01*
X-3770458Y26892813D01*
X-3784600Y26906955D01*
X-3798743Y26892813D01*
X-3978348Y27072418D01*
X-3964205Y27086560D01*
X-3978348Y27100703D01*
X-3798743Y27280308D01*
X-3784600Y27266165D01*
X-3770458Y27280308D01*
X-3590853Y27100703D01*
X-3590853Y27100703D01*
G37*
X-3590853Y27100703D02*
X-3604995Y27086560D01*
X-3590853Y27072418D01*
X-3770458Y26892813D01*
X-3784600Y26906955D01*
X-3798743Y26892813D01*
X-3978348Y27072418D01*
X-3964205Y27086560D01*
X-3978348Y27100703D01*
X-3798743Y27280308D01*
X-3784600Y27266165D01*
X-3770458Y27280308D01*
X-3590853Y27100703D01*
G04 #@! TD*
M02*
