G04 #@! TF.GenerationSoftware,KiCad,Pcbnew,(5.0.2)-1*
G04 #@! TF.CreationDate,2019-01-23T22:06:34-08:00*
G04 #@! TF.ProjectId,heart,68656172-742e-46b6-9963-61645f706362,rev?*
G04 #@! TF.SameCoordinates,Original*
G04 #@! TF.FileFunction,Legend,Top*
G04 #@! TF.FilePolarity,Positive*
%FSLAX46Y46*%
G04 Gerber Fmt 4.6, Leading zero omitted, Abs format (unit mm)*
G04 Created by KiCad (PCBNEW (5.0.2)-1) date 1/23/2019 10:06:34 PM*
%MOMM*%
%LPD*%
G01*
G04 APERTURE LIST*
%ADD10C,0.150000*%
%ADD11C,0.120000*%
%ADD12C,0.100000*%
G04 APERTURE END LIST*
D10*
G04 #@! TO.C,SW2*
X6731000Y21089620D02*
X6731000Y21140420D01*
G04 #@! TO.C,J1*
X13543280Y19359880D02*
X13543280Y14279880D01*
X11003280Y19359880D02*
X13543280Y19359880D01*
X11003280Y14279880D02*
X11003280Y19359880D01*
X13543280Y14279880D02*
X11003280Y14279880D01*
D11*
G04 #@! TO.C,D5*
X-3063360Y7113560D02*
X-3063360Y9798560D01*
X-4983360Y7113560D02*
X-3063360Y7113560D01*
X-4983360Y9798560D02*
X-4983360Y7113560D01*
G04 #@! TO.C,R8*
X-3313360Y4836662D02*
X-3313360Y5353818D01*
X-4733360Y4836662D02*
X-4733360Y5353818D01*
G04 #@! TO.C,X1*
X-8184040Y11801360D02*
X-8184040Y24401360D01*
X-13284040Y11801360D02*
X-8184040Y11801360D01*
X-13284040Y24401360D02*
X-13284040Y11801360D01*
D10*
G04 #@! TO.C,SW1*
X16393160Y21920200D02*
X16393160Y16840200D01*
X13853160Y21920200D02*
X16393160Y21920200D01*
X13853160Y16840200D02*
X13853160Y21920200D01*
X16393160Y16840200D02*
X13853160Y16840200D01*
G04 #@! TO.C,U1*
X-3625000Y20400000D02*
X-4850000Y20400000D01*
X3625000Y20625000D02*
X3325000Y20625000D01*
X3625000Y13375000D02*
X3325000Y13375000D01*
X-3625000Y13375000D02*
X-3325000Y13375000D01*
X-3625000Y20625000D02*
X-3325000Y20625000D01*
X-3625000Y13375000D02*
X-3625000Y13675000D01*
X3625000Y13375000D02*
X3625000Y13675000D01*
X3625000Y20625000D02*
X3625000Y20325000D01*
X-3625000Y20625000D02*
X-3625000Y20400000D01*
D11*
G04 #@! TO.C,C5*
X11669730Y28270270D02*
X10882230Y28270270D01*
X11275980Y28664020D02*
X11275980Y27876520D01*
X7082917Y27636520D02*
X6018480Y26572083D01*
X11774043Y27636520D02*
X12838480Y26572083D01*
X11774043Y27636520D02*
X10488480Y27636520D01*
X7082917Y27636520D02*
X8368480Y27636520D01*
X6018480Y26572083D02*
X6018480Y20816520D01*
X12838480Y26572083D02*
X12838480Y20816520D01*
X12838480Y20816520D02*
X10488480Y20816520D01*
X6018480Y20816520D02*
X8368480Y20816520D01*
G04 #@! TO.C,C1*
X-14276000Y21722582D02*
X-14276000Y22239738D01*
X-15696000Y21722582D02*
X-15696000Y22239738D01*
G04 #@! TO.C,C2*
X-15772200Y17743938D02*
X-15772200Y17226782D01*
X-14352200Y17743938D02*
X-14352200Y17226782D01*
G04 #@! TO.C,C3*
X-1863160Y25541738D02*
X-1863160Y25024582D01*
X-443160Y25541738D02*
X-443160Y25024582D01*
G04 #@! TO.C,C4*
X-7537520Y11795258D02*
X-7537520Y11278102D01*
X-6117520Y11795258D02*
X-6117520Y11278102D01*
G04 #@! TO.C,C6*
X-6203880Y21265382D02*
X-6203880Y21782538D01*
X-7623880Y21265382D02*
X-7623880Y21782538D01*
G04 #@! TO.C,D4*
X5196720Y7072920D02*
X5196720Y9757920D01*
X3276720Y7072920D02*
X5196720Y7072920D01*
X3276720Y9757920D02*
X3276720Y7072920D01*
G04 #@! TO.C,D3*
X2179200Y7093240D02*
X2179200Y9778240D01*
X259200Y7093240D02*
X2179200Y7093240D01*
X259200Y9778240D02*
X259200Y7093240D01*
G04 #@! TO.C,D2*
X9543760Y14147680D02*
X6858760Y14147680D01*
X9543760Y12227680D02*
X9543760Y14147680D01*
X6858760Y12227680D02*
X9543760Y12227680D01*
G04 #@! TO.C,D1*
X-162680Y7118640D02*
X-162680Y9803640D01*
X-2082680Y7118640D02*
X-162680Y7118640D01*
X-2082680Y9803640D02*
X-2082680Y7118640D01*
G04 #@! TO.C,R4*
X-463480Y4867142D02*
X-463480Y5384298D01*
X-1883480Y4867142D02*
X-1883480Y5384298D01*
G04 #@! TO.C,R3*
X7867720Y10038582D02*
X7867720Y10555738D01*
X6447720Y10038582D02*
X6447720Y10555738D01*
G04 #@! TO.C,R2*
X-7944618Y7865040D02*
X-7427462Y7865040D01*
X-7944618Y9285040D02*
X-7427462Y9285040D01*
G04 #@! TO.C,R1*
X-5730742Y25160040D02*
X-6247898Y25160040D01*
X-5730742Y23740040D02*
X-6247898Y23740040D01*
G04 #@! TO.C,R5*
X3754622Y22881520D02*
X4271778Y22881520D01*
X3754622Y24301520D02*
X4271778Y24301520D01*
G04 #@! TO.C,R6*
X1924120Y4882382D02*
X1924120Y5399538D01*
X504120Y4882382D02*
X504120Y5399538D01*
G04 #@! TO.C,R7*
X4931480Y4897622D02*
X4931480Y5414778D01*
X3511480Y4897622D02*
X3511480Y5414778D01*
D10*
G04 #@! TO.C,CN1*
X-12674600Y28356560D02*
X-12674600Y25816560D01*
X-2514600Y28356560D02*
X-12674600Y28356560D01*
X-2514600Y25816560D02*
X-2514600Y28356560D01*
X-12674600Y25816560D02*
X-2514600Y25816560D01*
G04 #@! TO.C,J1*
D12*
X13767310Y14377373D02*
X14124453Y14377373D01*
X14195881Y14353563D01*
X14243500Y14305944D01*
X14267310Y14234516D01*
X14267310Y14186897D01*
X14267310Y14877373D02*
X14267310Y14591659D01*
X14267310Y14734516D02*
X13767310Y14734516D01*
X13838739Y14686897D01*
X13886358Y14639278D01*
X13910167Y14591659D01*
G04 #@! TO.C,D5*
X-2349369Y9714752D02*
X-2849369Y9714752D01*
X-2849369Y9833800D01*
X-2825560Y9905228D01*
X-2777940Y9952847D01*
X-2730321Y9976657D01*
X-2635083Y10000466D01*
X-2563655Y10000466D01*
X-2468417Y9976657D01*
X-2420798Y9952847D01*
X-2373179Y9905228D01*
X-2349369Y9833800D01*
X-2349369Y9714752D01*
X-2849369Y10452847D02*
X-2849369Y10214752D01*
X-2611274Y10190942D01*
X-2635083Y10214752D01*
X-2658893Y10262371D01*
X-2658893Y10381419D01*
X-2635083Y10429038D01*
X-2611274Y10452847D01*
X-2563655Y10476657D01*
X-2444607Y10476657D01*
X-2396988Y10452847D01*
X-2373179Y10429038D01*
X-2349369Y10381419D01*
X-2349369Y10262371D01*
X-2373179Y10214752D01*
X-2396988Y10190942D01*
G04 #@! TO.C,R8*
X-2415409Y6266666D02*
X-2653504Y6100000D01*
X-2415409Y5980952D02*
X-2915409Y5980952D01*
X-2915409Y6171428D01*
X-2891600Y6219047D01*
X-2867790Y6242857D01*
X-2820171Y6266666D01*
X-2748742Y6266666D01*
X-2701123Y6242857D01*
X-2677314Y6219047D01*
X-2653504Y6171428D01*
X-2653504Y5980952D01*
X-2701123Y6552380D02*
X-2724933Y6504761D01*
X-2748742Y6480952D01*
X-2796361Y6457142D01*
X-2820171Y6457142D01*
X-2867790Y6480952D01*
X-2891600Y6504761D01*
X-2915409Y6552380D01*
X-2915409Y6647619D01*
X-2891600Y6695238D01*
X-2867790Y6719047D01*
X-2820171Y6742857D01*
X-2796361Y6742857D01*
X-2748742Y6719047D01*
X-2724933Y6695238D01*
X-2701123Y6647619D01*
X-2701123Y6552380D01*
X-2677314Y6504761D01*
X-2653504Y6480952D01*
X-2605885Y6457142D01*
X-2510647Y6457142D01*
X-2463028Y6480952D01*
X-2439219Y6504761D01*
X-2415409Y6552380D01*
X-2415409Y6647619D01*
X-2439219Y6695238D01*
X-2463028Y6719047D01*
X-2510647Y6742857D01*
X-2605885Y6742857D01*
X-2653504Y6719047D01*
X-2677314Y6695238D01*
X-2701123Y6647619D01*
G04 #@! TO.C,X1*
X-14177769Y23649038D02*
X-13677769Y23982371D01*
X-14177769Y23982371D02*
X-13677769Y23649038D01*
X-13677769Y24434752D02*
X-13677769Y24149038D01*
X-13677769Y24291895D02*
X-14177769Y24291895D01*
X-14106340Y24244276D01*
X-14058721Y24196657D01*
X-14034912Y24149038D01*
G04 #@! TO.C,SW1*
X15015293Y22200419D02*
X15086721Y22176609D01*
X15205769Y22176609D01*
X15253388Y22200419D01*
X15277198Y22224228D01*
X15301007Y22271847D01*
X15301007Y22319466D01*
X15277198Y22367085D01*
X15253388Y22390895D01*
X15205769Y22414704D01*
X15110531Y22438514D01*
X15062912Y22462323D01*
X15039102Y22486133D01*
X15015293Y22533752D01*
X15015293Y22581371D01*
X15039102Y22628990D01*
X15062912Y22652800D01*
X15110531Y22676609D01*
X15229579Y22676609D01*
X15301007Y22652800D01*
X15467674Y22676609D02*
X15586721Y22176609D01*
X15681960Y22533752D01*
X15777198Y22176609D01*
X15896245Y22676609D01*
X16348626Y22176609D02*
X16062912Y22176609D01*
X16205769Y22176609D02*
X16205769Y22676609D01*
X16158150Y22605180D01*
X16110531Y22557561D01*
X16062912Y22533752D01*
G04 #@! TO.C,U1*
X-5059632Y22773129D02*
X-5059632Y22368367D01*
X-5035822Y22320748D01*
X-5012013Y22296939D01*
X-4964394Y22273129D01*
X-4869156Y22273129D01*
X-4821537Y22296939D01*
X-4797727Y22320748D01*
X-4773918Y22368367D01*
X-4773918Y22773129D01*
X-4273918Y22273129D02*
X-4559632Y22273129D01*
X-4416775Y22273129D02*
X-4416775Y22773129D01*
X-4464394Y22701700D01*
X-4512013Y22654081D01*
X-4559632Y22630272D01*
G04 #@! TO.C,C5*
X13726931Y26027866D02*
X13750740Y26004057D01*
X13774550Y25932628D01*
X13774550Y25885009D01*
X13750740Y25813580D01*
X13703121Y25765961D01*
X13655502Y25742152D01*
X13560264Y25718342D01*
X13488836Y25718342D01*
X13393598Y25742152D01*
X13345979Y25765961D01*
X13298360Y25813580D01*
X13274550Y25885009D01*
X13274550Y25932628D01*
X13298360Y26004057D01*
X13322169Y26027866D01*
X13274550Y26480247D02*
X13274550Y26242152D01*
X13512645Y26218342D01*
X13488836Y26242152D01*
X13465026Y26289771D01*
X13465026Y26408819D01*
X13488836Y26456438D01*
X13512645Y26480247D01*
X13560264Y26504057D01*
X13679312Y26504057D01*
X13726931Y26480247D01*
X13750740Y26456438D01*
X13774550Y26408819D01*
X13774550Y26289771D01*
X13750740Y26242152D01*
X13726931Y26218342D01*
G04 #@! TO.C,C1*
X-16184108Y20607506D02*
X-16160299Y20583697D01*
X-16136489Y20512268D01*
X-16136489Y20464649D01*
X-16160299Y20393220D01*
X-16207918Y20345601D01*
X-16255537Y20321792D01*
X-16350775Y20297982D01*
X-16422203Y20297982D01*
X-16517441Y20321792D01*
X-16565060Y20345601D01*
X-16612680Y20393220D01*
X-16636489Y20464649D01*
X-16636489Y20512268D01*
X-16612680Y20583697D01*
X-16588870Y20607506D01*
X-16136489Y21083697D02*
X-16136489Y20797982D01*
X-16136489Y20940840D02*
X-16636489Y20940840D01*
X-16565060Y20893220D01*
X-16517441Y20845601D01*
X-16493632Y20797982D01*
G04 #@! TO.C,C2*
X-16285708Y18687266D02*
X-16261899Y18663457D01*
X-16238089Y18592028D01*
X-16238089Y18544409D01*
X-16261899Y18472980D01*
X-16309518Y18425361D01*
X-16357137Y18401552D01*
X-16452375Y18377742D01*
X-16523803Y18377742D01*
X-16619041Y18401552D01*
X-16666660Y18425361D01*
X-16714280Y18472980D01*
X-16738089Y18544409D01*
X-16738089Y18592028D01*
X-16714280Y18663457D01*
X-16690470Y18687266D01*
X-16690470Y18877742D02*
X-16714280Y18901552D01*
X-16738089Y18949171D01*
X-16738089Y19068219D01*
X-16714280Y19115838D01*
X-16690470Y19139647D01*
X-16642851Y19163457D01*
X-16595232Y19163457D01*
X-16523803Y19139647D01*
X-16238089Y18853933D01*
X-16238089Y19163457D01*
G04 #@! TO.C,C3*
X328146Y23707588D02*
X304337Y23683779D01*
X232908Y23659969D01*
X185289Y23659969D01*
X113860Y23683779D01*
X66241Y23731398D01*
X42432Y23779017D01*
X18622Y23874255D01*
X18622Y23945683D01*
X42432Y24040921D01*
X66241Y24088540D01*
X113860Y24136160D01*
X185289Y24159969D01*
X232908Y24159969D01*
X304337Y24136160D01*
X328146Y24112350D01*
X494813Y24159969D02*
X804337Y24159969D01*
X637670Y23969493D01*
X709099Y23969493D01*
X756718Y23945683D01*
X780527Y23921874D01*
X804337Y23874255D01*
X804337Y23755207D01*
X780527Y23707588D01*
X756718Y23683779D01*
X709099Y23659969D01*
X566241Y23659969D01*
X518622Y23683779D01*
X494813Y23707588D01*
G04 #@! TO.C,C4*
X-7344908Y13805386D02*
X-7321099Y13781577D01*
X-7297289Y13710148D01*
X-7297289Y13662529D01*
X-7321099Y13591100D01*
X-7368718Y13543481D01*
X-7416337Y13519672D01*
X-7511575Y13495862D01*
X-7583003Y13495862D01*
X-7678241Y13519672D01*
X-7725860Y13543481D01*
X-7773480Y13591100D01*
X-7797289Y13662529D01*
X-7797289Y13710148D01*
X-7773480Y13781577D01*
X-7749670Y13805386D01*
X-7630622Y14233958D02*
X-7297289Y14233958D01*
X-7821099Y14114910D02*
X-7463956Y13995862D01*
X-7463956Y14305386D01*
G04 #@! TO.C,C6*
X-7339828Y19180026D02*
X-7316019Y19156217D01*
X-7292209Y19084788D01*
X-7292209Y19037169D01*
X-7316019Y18965740D01*
X-7363638Y18918121D01*
X-7411257Y18894312D01*
X-7506495Y18870502D01*
X-7577923Y18870502D01*
X-7673161Y18894312D01*
X-7720780Y18918121D01*
X-7768400Y18965740D01*
X-7792209Y19037169D01*
X-7792209Y19084788D01*
X-7768400Y19156217D01*
X-7744590Y19180026D01*
X-7792209Y19608598D02*
X-7792209Y19513360D01*
X-7768400Y19465740D01*
X-7744590Y19441931D01*
X-7673161Y19394312D01*
X-7577923Y19370502D01*
X-7387447Y19370502D01*
X-7339828Y19394312D01*
X-7316019Y19418121D01*
X-7292209Y19465740D01*
X-7292209Y19560979D01*
X-7316019Y19608598D01*
X-7339828Y19632407D01*
X-7387447Y19656217D01*
X-7506495Y19656217D01*
X-7554114Y19632407D01*
X-7577923Y19608598D01*
X-7601733Y19560979D01*
X-7601733Y19465740D01*
X-7577923Y19418121D01*
X-7554114Y19394312D01*
X-7506495Y19370502D01*
G04 #@! TO.C,D4*
X3065910Y7098552D02*
X2565910Y7098552D01*
X2565910Y7217600D01*
X2589720Y7289028D01*
X2637339Y7336647D01*
X2684958Y7360457D01*
X2780196Y7384266D01*
X2851624Y7384266D01*
X2946862Y7360457D01*
X2994481Y7336647D01*
X3042100Y7289028D01*
X3065910Y7217600D01*
X3065910Y7098552D01*
X2732577Y7812838D02*
X3065910Y7812838D01*
X2542100Y7693790D02*
X2899243Y7574742D01*
X2899243Y7884266D01*
G04 #@! TO.C,D3*
X2888110Y9669032D02*
X2388110Y9669032D01*
X2388110Y9788080D01*
X2411920Y9859508D01*
X2459539Y9907127D01*
X2507158Y9930937D01*
X2602396Y9954746D01*
X2673824Y9954746D01*
X2769062Y9930937D01*
X2816681Y9907127D01*
X2864300Y9859508D01*
X2888110Y9788080D01*
X2888110Y9669032D01*
X2388110Y10121413D02*
X2388110Y10430937D01*
X2578586Y10264270D01*
X2578586Y10335699D01*
X2602396Y10383318D01*
X2626205Y10407127D01*
X2673824Y10430937D01*
X2792872Y10430937D01*
X2840491Y10407127D01*
X2864300Y10383318D01*
X2888110Y10335699D01*
X2888110Y10192841D01*
X2864300Y10145222D01*
X2840491Y10121413D01*
G04 #@! TO.C,D2*
X8785112Y11523849D02*
X8785112Y12023849D01*
X8904160Y12023849D01*
X8975588Y12000040D01*
X9023207Y11952420D01*
X9047017Y11904801D01*
X9070826Y11809563D01*
X9070826Y11738135D01*
X9047017Y11642897D01*
X9023207Y11595278D01*
X8975588Y11547659D01*
X8904160Y11523849D01*
X8785112Y11523849D01*
X9261302Y11976230D02*
X9285112Y12000040D01*
X9332731Y12023849D01*
X9451779Y12023849D01*
X9499398Y12000040D01*
X9523207Y11976230D01*
X9547017Y11928611D01*
X9547017Y11880992D01*
X9523207Y11809563D01*
X9237493Y11523849D01*
X9547017Y11523849D01*
G04 #@! TO.C,D1*
X-2273169Y7118872D02*
X-2773169Y7118872D01*
X-2773169Y7237920D01*
X-2749360Y7309348D01*
X-2701740Y7356967D01*
X-2654121Y7380777D01*
X-2558883Y7404586D01*
X-2487455Y7404586D01*
X-2392217Y7380777D01*
X-2344598Y7356967D01*
X-2296979Y7309348D01*
X-2273169Y7237920D01*
X-2273169Y7118872D01*
X-2273169Y7880777D02*
X-2273169Y7595062D01*
X-2273169Y7737920D02*
X-2773169Y7737920D01*
X-2701740Y7690300D01*
X-2654121Y7642681D01*
X-2630312Y7595062D01*
G04 #@! TO.C,R4*
X-2252849Y3767306D02*
X-2490944Y3600640D01*
X-2252849Y3481592D02*
X-2752849Y3481592D01*
X-2752849Y3672068D01*
X-2729040Y3719687D01*
X-2705230Y3743497D01*
X-2657611Y3767306D01*
X-2586182Y3767306D01*
X-2538563Y3743497D01*
X-2514754Y3719687D01*
X-2490944Y3672068D01*
X-2490944Y3481592D01*
X-2586182Y4195878D02*
X-2252849Y4195878D01*
X-2776659Y4076830D02*
X-2419516Y3957782D01*
X-2419516Y4267306D01*
G04 #@! TO.C,R3*
X6546066Y7822829D02*
X6379400Y8060924D01*
X6260352Y7822829D02*
X6260352Y8322829D01*
X6450828Y8322829D01*
X6498447Y8299020D01*
X6522257Y8275210D01*
X6546066Y8227591D01*
X6546066Y8156162D01*
X6522257Y8108543D01*
X6498447Y8084734D01*
X6450828Y8060924D01*
X6260352Y8060924D01*
X6712733Y8322829D02*
X7022257Y8322829D01*
X6855590Y8132353D01*
X6927019Y8132353D01*
X6974638Y8108543D01*
X6998447Y8084734D01*
X7022257Y8037115D01*
X7022257Y7918067D01*
X6998447Y7870448D01*
X6974638Y7846639D01*
X6927019Y7822829D01*
X6784161Y7822829D01*
X6736542Y7846639D01*
X6712733Y7870448D01*
G04 #@! TO.C,R2*
X-10151893Y8953369D02*
X-10318560Y9191464D01*
X-10437607Y8953369D02*
X-10437607Y9453369D01*
X-10247131Y9453369D01*
X-10199512Y9429560D01*
X-10175702Y9405750D01*
X-10151893Y9358131D01*
X-10151893Y9286702D01*
X-10175702Y9239083D01*
X-10199512Y9215274D01*
X-10247131Y9191464D01*
X-10437607Y9191464D01*
X-9961417Y9405750D02*
X-9937607Y9429560D01*
X-9889988Y9453369D01*
X-9770940Y9453369D01*
X-9723321Y9429560D01*
X-9699512Y9405750D01*
X-9675702Y9358131D01*
X-9675702Y9310512D01*
X-9699512Y9239083D01*
X-9985226Y8953369D01*
X-9675702Y8953369D01*
G04 #@! TO.C,R1*
X-3672113Y23568529D02*
X-3838780Y23806624D01*
X-3957827Y23568529D02*
X-3957827Y24068529D01*
X-3767351Y24068529D01*
X-3719732Y24044720D01*
X-3695922Y24020910D01*
X-3672113Y23973291D01*
X-3672113Y23901862D01*
X-3695922Y23854243D01*
X-3719732Y23830434D01*
X-3767351Y23806624D01*
X-3957827Y23806624D01*
X-3195922Y23568529D02*
X-3481637Y23568529D01*
X-3338780Y23568529D02*
X-3338780Y24068529D01*
X-3386399Y23997100D01*
X-3434018Y23949481D01*
X-3481637Y23925672D01*
G04 #@! TO.C,R5*
X2634466Y24747089D02*
X2467800Y24985184D01*
X2348752Y24747089D02*
X2348752Y25247089D01*
X2539228Y25247089D01*
X2586847Y25223280D01*
X2610657Y25199470D01*
X2634466Y25151851D01*
X2634466Y25080422D01*
X2610657Y25032803D01*
X2586847Y25008994D01*
X2539228Y24985184D01*
X2348752Y24985184D01*
X3086847Y25247089D02*
X2848752Y25247089D01*
X2824942Y25008994D01*
X2848752Y25032803D01*
X2896371Y25056613D01*
X3015419Y25056613D01*
X3063038Y25032803D01*
X3086847Y25008994D01*
X3110657Y24961375D01*
X3110657Y24842327D01*
X3086847Y24794708D01*
X3063038Y24770899D01*
X3015419Y24747089D01*
X2896371Y24747089D01*
X2848752Y24770899D01*
X2824942Y24794708D01*
G04 #@! TO.C,R6*
X2771270Y6322546D02*
X2533175Y6155880D01*
X2771270Y6036832D02*
X2271270Y6036832D01*
X2271270Y6227308D01*
X2295080Y6274927D01*
X2318889Y6298737D01*
X2366508Y6322546D01*
X2437937Y6322546D01*
X2485556Y6298737D01*
X2509365Y6274927D01*
X2533175Y6227308D01*
X2533175Y6036832D01*
X2271270Y6751118D02*
X2271270Y6655880D01*
X2295080Y6608260D01*
X2318889Y6584451D01*
X2390318Y6536832D01*
X2485556Y6513022D01*
X2676032Y6513022D01*
X2723651Y6536832D01*
X2747460Y6560641D01*
X2771270Y6608260D01*
X2771270Y6703499D01*
X2747460Y6751118D01*
X2723651Y6774927D01*
X2676032Y6798737D01*
X2556984Y6798737D01*
X2509365Y6774927D01*
X2485556Y6751118D01*
X2461746Y6703499D01*
X2461746Y6608260D01*
X2485556Y6560641D01*
X2509365Y6536832D01*
X2556984Y6513022D01*
G04 #@! TO.C,R7*
X3142110Y3782546D02*
X2904015Y3615880D01*
X3142110Y3496832D02*
X2642110Y3496832D01*
X2642110Y3687308D01*
X2665920Y3734927D01*
X2689729Y3758737D01*
X2737348Y3782546D01*
X2808777Y3782546D01*
X2856396Y3758737D01*
X2880205Y3734927D01*
X2904015Y3687308D01*
X2904015Y3496832D01*
X2642110Y3949213D02*
X2642110Y4282546D01*
X3142110Y4068260D01*
G04 #@! TO.C,CN1*
X-13908838Y25902148D02*
X-13932647Y25878339D01*
X-14004076Y25854529D01*
X-14051695Y25854529D01*
X-14123123Y25878339D01*
X-14170742Y25925958D01*
X-14194552Y25973577D01*
X-14218361Y26068815D01*
X-14218361Y26140243D01*
X-14194552Y26235481D01*
X-14170742Y26283100D01*
X-14123123Y26330720D01*
X-14051695Y26354529D01*
X-14004076Y26354529D01*
X-13932647Y26330720D01*
X-13908838Y26306910D01*
X-13694552Y25854529D02*
X-13694552Y26354529D01*
X-13408838Y25854529D01*
X-13408838Y26354529D01*
X-12908838Y25854529D02*
X-13194552Y25854529D01*
X-13051695Y25854529D02*
X-13051695Y26354529D01*
X-13099314Y26283100D01*
X-13146933Y26235481D01*
X-13194552Y26211672D01*
G04 #@! TD*
M02*
