G04 #@! TF.GenerationSoftware,KiCad,Pcbnew,(5.0.2)-1*
G04 #@! TF.CreationDate,2019-01-23T22:06:34-08:00*
G04 #@! TF.ProjectId,heart,68656172-742e-46b6-9963-61645f706362,rev?*
G04 #@! TF.SameCoordinates,Original*
G04 #@! TF.FileFunction,Copper,L2,Bot*
G04 #@! TF.FilePolarity,Positive*
%FSLAX46Y46*%
G04 Gerber Fmt 4.6, Leading zero omitted, Abs format (unit mm)*
G04 Created by KiCad (PCBNEW (5.0.2)-1) date 1/23/2019 10:06:34 PM*
%MOMM*%
%LPD*%
G01*
G04 APERTURE LIST*
G04 #@! TA.AperFunction,SMDPad,CuDef*
%ADD10R,3.180000X3.180000*%
G04 #@! TD*
G04 #@! TA.AperFunction,SMDPad,CuDef*
%ADD11R,3.960000X3.960000*%
G04 #@! TD*
G04 #@! TA.AperFunction,SMDPad,CuDef*
%ADD12R,1.500000X1.200000*%
G04 #@! TD*
G04 #@! TA.AperFunction,ComponentPad*
%ADD13C,1.650000*%
G04 #@! TD*
G04 #@! TA.AperFunction,WasherPad*
%ADD14C,2.500000*%
G04 #@! TD*
G04 #@! TA.AperFunction,ViaPad*
%ADD15C,0.800000*%
G04 #@! TD*
G04 #@! TA.AperFunction,ViaPad*
%ADD16C,0.650000*%
G04 #@! TD*
G04 #@! TA.AperFunction,Conductor*
%ADD17C,0.250000*%
G04 #@! TD*
G04 #@! TA.AperFunction,Conductor*
%ADD18C,0.254000*%
G04 #@! TD*
G04 APERTURE END LIST*
D10*
G04 #@! TO.P,BT1,2*
G04 #@! TO.N,Earth*
X-11080560Y16139160D03*
X4659440Y16139160D03*
D11*
G04 #@! TO.P,BT1,1*
G04 #@! TO.N,/PWR_IN*
X-3210560Y16139160D03*
G04 #@! TD*
D12*
G04 #@! TO.P,SW2,6*
G04 #@! TO.N,Net-(SW2-Pad6)*
X12724200Y26878920D03*
G04 #@! TO.P,SW2,5*
G04 #@! TO.N,Net-(SW2-Pad5)*
X12724200Y24378920D03*
G04 #@! TO.P,SW2,4*
G04 #@! TO.N,Net-(SW2-Pad4)*
X12724200Y21878920D03*
G04 #@! TO.P,SW2,3*
G04 #@! TO.N,Net-(SW2-Pad3)*
X6224200Y26878920D03*
G04 #@! TO.P,SW2,2*
G04 #@! TO.N,/PWR_IN*
X6224200Y24378920D03*
G04 #@! TO.P,SW2,1*
G04 #@! TO.N,VDD*
X6224200Y21878920D03*
G04 #@! TD*
D13*
G04 #@! TO.P,J1,2*
G04 #@! TO.N,Earth*
X12273280Y18089880D03*
G04 #@! TO.P,J1,1*
G04 #@! TO.N,/PWR_IN*
X12273280Y15549880D03*
G04 #@! TD*
D14*
G04 #@! TO.P,MH1,*
G04 #@! TO.N,*
X0Y29000000D03*
G04 #@! TD*
D13*
G04 #@! TO.P,SW1,2*
G04 #@! TO.N,Earth*
X15123160Y20650200D03*
G04 #@! TO.P,SW1,1*
G04 #@! TO.N,/PB7*
X15123160Y18110200D03*
G04 #@! TD*
G04 #@! TO.P,CN1,4*
G04 #@! TO.N,Earth*
X-3784600Y27086560D03*
G04 #@! TO.P,CN1,3*
G04 #@! TO.N,/NRST*
X-6324600Y27086560D03*
G04 #@! TO.P,CN1,2*
G04 #@! TO.N,/PS1*
X-8864600Y27086560D03*
G04 #@! TO.P,CN1,1*
G04 #@! TO.N,VDD*
X-11404600Y27086560D03*
G04 #@! TD*
D15*
G04 #@! TO.N,VDD*
X-4709160Y21122640D03*
X-8544560Y21777960D03*
X6253480Y19410680D03*
G04 #@! TO.N,Earth*
X-11709400Y18765520D03*
X-8229600Y7000240D03*
X-3962400Y12898120D03*
X-228600Y18023840D03*
X-3784600Y23769320D03*
G04 #@! TO.N,/PS1*
X1087120Y24236680D03*
X-2006600Y27467560D03*
G04 #@! TO.N,/PB7*
X5095240Y11084560D03*
X-4739640Y11216640D03*
G04 #@! TO.N,Net-(C5-Pad1)*
X-6974840Y14610080D03*
X-4211320Y22753320D03*
D16*
G04 #@! TO.N,Net-(C6-Pad1)*
X-7975600Y19420840D03*
D15*
X-6070600Y13787120D03*
G04 #@! TO.N,/PWR_IN*
X1402080Y14579600D03*
X2052320Y18338800D03*
G04 #@! TD*
D17*
G04 #@! TO.N,VDD*
X-5274845Y21122640D02*
X-5706645Y21554440D01*
X-4709160Y21122640D02*
X-5274845Y21122640D01*
X-5706645Y21554440D02*
X-8321040Y21554440D01*
X-8321040Y21554440D02*
X-8544560Y21777960D01*
X6224200Y19439960D02*
X6253480Y19410680D01*
X6224200Y21878920D02*
X6224200Y19439960D01*
G04 #@! TO.N,Earth*
X-6085840Y7000240D02*
X-8229600Y7000240D01*
X-5679440Y7406640D02*
X-6085840Y7000240D01*
X-5679440Y11651715D02*
X-5679440Y7406640D01*
X-3784600Y25151080D02*
X-3784600Y27086560D01*
X-3784600Y23769320D02*
X-3784600Y23769320D01*
X-3784600Y23769320D02*
X-3784600Y25151080D01*
X-10934320Y15803880D02*
X-10934320Y17643880D01*
X-10934320Y13963880D02*
X-10932160Y13961720D01*
X-10934320Y15803880D02*
X-10934320Y13963880D01*
X-10932160Y9702800D02*
X-8229600Y7000240D01*
X-10932160Y13961720D02*
X-10932160Y9702800D01*
X-5679440Y11651715D02*
X-4458435Y12872720D01*
X-4458435Y12872720D02*
X-3987800Y12872720D01*
X-3987800Y12872720D02*
X-3962400Y12898120D01*
X10884401Y17264881D02*
X11448281Y17264881D01*
X9423400Y15803880D02*
X10884401Y17264881D01*
X-3103880Y23088600D02*
X-3103880Y19207480D01*
X-3784600Y23769320D02*
X-3103880Y23088600D01*
X-3103880Y19207480D02*
X-2753360Y18856960D01*
X11448281Y17264881D02*
X12273280Y18089880D01*
X-1061720Y18856960D02*
X-228600Y18023840D01*
X-2753360Y18856960D02*
X-1061720Y18856960D01*
X-228600Y18023840D02*
X746760Y17048480D01*
X-3784600Y23769320D02*
X-3784600Y23769320D01*
X-11080560Y18136680D02*
X-11709400Y18765520D01*
X-11080560Y16139160D02*
X-11080560Y18136680D01*
X6834720Y15803880D02*
X9423400Y15803880D01*
X6499440Y16139160D02*
X6834720Y15803880D01*
X4659440Y16139160D02*
X6499440Y16139160D01*
X2819440Y16139160D02*
X2809280Y16129000D01*
X4659440Y16139160D02*
X2819440Y16139160D01*
X1666240Y16129000D02*
X746760Y17048480D01*
X2809280Y16129000D02*
X1666240Y16129000D01*
G04 #@! TO.N,/PS1*
X1087120Y24236680D02*
X-2006600Y27330400D01*
X-2006600Y27330400D02*
X-2006600Y27467560D01*
G04 #@! TO.N,/PB7*
X-4607560Y11084560D02*
X-4739640Y11216640D01*
X5095240Y11084560D02*
X-4607560Y11084560D01*
G04 #@! TO.N,Net-(C5-Pad1)*
X-4211320Y21696680D02*
X-4211320Y22753320D01*
X-3820160Y21305520D02*
X-4211320Y21696680D01*
X-6574841Y15010079D02*
X-6574841Y15319959D01*
X-6974840Y14610080D02*
X-6574841Y15010079D01*
X-6574841Y15319959D02*
X-5781040Y16113760D01*
X-5781040Y16113760D02*
X-5781040Y18364200D01*
X-5781040Y18364200D02*
X-5339080Y18806160D01*
X-3820160Y19080480D02*
X-3820160Y21305520D01*
X-4094480Y18806160D02*
X-3820160Y19080480D01*
X-5339080Y18806160D02*
X-4094480Y18806160D01*
G04 #@! TO.N,Net-(C6-Pad1)*
X-7975600Y14305280D02*
X-7975600Y19420840D01*
X-6070600Y13787120D02*
X-7457440Y13787120D01*
X-7457440Y13787120D02*
X-7975600Y14305280D01*
G04 #@! TO.N,/PWR_IN*
X12273280Y15549880D02*
X12273280Y13909040D01*
X5217160Y6852920D02*
X3559880Y6852920D01*
X7101840Y12120880D02*
X8793480Y10429240D01*
X7101840Y12128160D02*
X7101840Y12120880D01*
X12273280Y13909040D02*
X8793480Y10429240D01*
X8793480Y10429240D02*
X5217160Y6852920D01*
X7101840Y12128160D02*
X7094560Y12128160D01*
X7094560Y12128160D02*
X5770880Y13451840D01*
X5770880Y13451840D02*
X2529840Y13451840D01*
X177800Y15803880D02*
X-3064320Y15803880D01*
X177800Y15803880D02*
X1402080Y14579600D01*
X2529840Y13451840D02*
X1402080Y14579600D01*
X2052320Y18338800D02*
X4434840Y20721320D01*
X6074200Y24378920D02*
X6224200Y24378920D01*
X4434840Y22739560D02*
X6074200Y24378920D01*
X4434840Y20721320D02*
X4434840Y22739560D01*
G04 #@! TD*
D18*
G04 #@! TO.N,VDD*
G36*
X8832927Y29454237D02*
X10007346Y29212628D01*
X11142220Y28825731D01*
X12219659Y28299646D01*
X12484216Y28126360D01*
X11974200Y28126360D01*
X11726435Y28077077D01*
X11516391Y27936729D01*
X11376043Y27726685D01*
X11326760Y27478920D01*
X11326760Y26278920D01*
X11376043Y26031155D01*
X11516391Y25821111D01*
X11726435Y25680763D01*
X11974200Y25631480D01*
X13474200Y25631480D01*
X13721965Y25680763D01*
X13932009Y25821111D01*
X14072357Y26031155D01*
X14121640Y26278920D01*
X14121640Y26876905D01*
X14135419Y26865168D01*
X14943531Y25979393D01*
X15634256Y24999318D01*
X16196695Y23940405D01*
X16621983Y22819353D01*
X16903410Y21653837D01*
X17036543Y20462229D01*
X17019277Y19263346D01*
X16851887Y18076068D01*
X16537013Y16919140D01*
X16079620Y15810797D01*
X15486916Y14768511D01*
X14759694Y13797300D01*
X14476592Y13479833D01*
X939393Y-882803D01*
X616009Y-1125165D01*
X263935Y-1257151D01*
X12177Y-1284500D01*
X-360027Y-1231197D01*
X-702311Y-1075570D01*
X-931030Y-891675D01*
X-7591359Y6174770D01*
X-7525889Y6240240D01*
X-6160687Y6240240D01*
X-6085840Y6225352D01*
X-6010993Y6240240D01*
X-6010988Y6240240D01*
X-5789303Y6284336D01*
X-5537911Y6452311D01*
X-5495509Y6515769D01*
X-5194968Y6816311D01*
X-5131511Y6858711D01*
X-4963536Y7110103D01*
X-4919440Y7331788D01*
X-4919440Y7331792D01*
X-4904552Y7406639D01*
X-4919440Y7481486D01*
X-4919440Y10181640D01*
X-4533766Y10181640D01*
X-4188726Y10324560D01*
X4391529Y10324560D01*
X4508960Y10207129D01*
X4889366Y10049560D01*
X5301114Y10049560D01*
X5681520Y10207129D01*
X5972671Y10498280D01*
X6130240Y10878686D01*
X6130240Y11290434D01*
X5972671Y11670840D01*
X5681520Y11961991D01*
X5301114Y12119560D01*
X4889366Y12119560D01*
X4508960Y11961991D01*
X4391529Y11844560D01*
X-3903849Y11844560D01*
X-3922409Y11863120D01*
X-3756526Y11863120D01*
X-3376120Y12020689D01*
X-3084969Y12311840D01*
X-2927400Y12692246D01*
X-2927400Y13103994D01*
X-3084969Y13484400D01*
X-3112289Y13511720D01*
X-1230560Y13511720D01*
X-982795Y13561003D01*
X-772751Y13701351D01*
X-632403Y13911395D01*
X-583120Y14159160D01*
X-583120Y15043880D01*
X-137001Y15043880D01*
X367080Y14539798D01*
X367080Y14373726D01*
X524649Y13993320D01*
X815800Y13702169D01*
X1196206Y13544600D01*
X1362278Y13544600D01*
X1939513Y12967365D01*
X1981911Y12903911D01*
X2045364Y12861513D01*
X2045366Y12861511D01*
X2146548Y12793904D01*
X2233303Y12735936D01*
X2454988Y12691840D01*
X2454992Y12691840D01*
X2529839Y12676952D01*
X2604686Y12691840D01*
X5456079Y12691840D01*
X6504231Y11643687D01*
X6546631Y11580231D01*
X6550995Y11577315D01*
X6553911Y11572951D01*
X6617369Y11530550D01*
X7718678Y10429240D01*
X4902359Y7612920D01*
X3485028Y7612920D01*
X3263343Y7568824D01*
X3011951Y7400849D01*
X2843976Y7149457D01*
X2784991Y6852920D01*
X2843976Y6556383D01*
X3011951Y6304991D01*
X3263343Y6137016D01*
X3485028Y6092920D01*
X5142313Y6092920D01*
X5217160Y6078032D01*
X5292007Y6092920D01*
X5292012Y6092920D01*
X5513697Y6137016D01*
X5765089Y6304991D01*
X5807491Y6368450D01*
X9277954Y9838912D01*
X9341409Y9881311D01*
X9383810Y9944769D01*
X12757756Y13318713D01*
X12821209Y13361111D01*
X12863607Y13424564D01*
X12863609Y13424566D01*
X12968299Y13581246D01*
X12989184Y13612503D01*
X13033280Y13834188D01*
X13033280Y13834192D01*
X13048168Y13909039D01*
X13033280Y13983886D01*
X13033280Y14284390D01*
X13100304Y14312152D01*
X13511008Y14722856D01*
X13733280Y15259468D01*
X13733280Y15840292D01*
X13511008Y16376904D01*
X13100304Y16787608D01*
X13022393Y16819880D01*
X13100304Y16852152D01*
X13511008Y17262856D01*
X13702428Y17724986D01*
X13885432Y17283176D01*
X14296136Y16872472D01*
X14832748Y16650200D01*
X15413572Y16650200D01*
X15950184Y16872472D01*
X16360888Y17283176D01*
X16583160Y17819788D01*
X16583160Y18400612D01*
X16360888Y18937224D01*
X15950184Y19347928D01*
X15872273Y19380200D01*
X15950184Y19412472D01*
X16360888Y19823176D01*
X16583160Y20359788D01*
X16583160Y20940612D01*
X16360888Y21477224D01*
X15950184Y21887928D01*
X15413572Y22110200D01*
X14832748Y22110200D01*
X14296136Y21887928D01*
X14121640Y21713432D01*
X14121640Y22478920D01*
X14072357Y22726685D01*
X13932009Y22936729D01*
X13721965Y23077077D01*
X13474200Y23126360D01*
X11974200Y23126360D01*
X11726435Y23077077D01*
X11516391Y22936729D01*
X11376043Y22726685D01*
X11326760Y22478920D01*
X11326760Y21278920D01*
X11376043Y21031155D01*
X11516391Y20821111D01*
X11726435Y20680763D01*
X11974200Y20631480D01*
X13474200Y20631480D01*
X13663160Y20669066D01*
X13663160Y20359788D01*
X13885432Y19823176D01*
X14296136Y19412472D01*
X14374047Y19380200D01*
X14296136Y19347928D01*
X13885432Y18937224D01*
X13694012Y18475094D01*
X13511008Y18916904D01*
X13100304Y19327608D01*
X12563692Y19549880D01*
X11982868Y19549880D01*
X11446256Y19327608D01*
X11035552Y18916904D01*
X10813280Y18380292D01*
X10813280Y18025622D01*
X10809553Y18024881D01*
X10809549Y18024881D01*
X10587864Y17980785D01*
X10531225Y17942940D01*
X10399927Y17855210D01*
X10399925Y17855208D01*
X10336472Y17812810D01*
X10294074Y17749357D01*
X9108599Y16563880D01*
X7149521Y16563880D01*
X7089771Y16623630D01*
X7047369Y16687089D01*
X6896880Y16787643D01*
X6896880Y17729160D01*
X6847597Y17976925D01*
X6707249Y18186969D01*
X6497205Y18327317D01*
X6249440Y18376600D01*
X3164921Y18376600D01*
X4919313Y20130991D01*
X4982769Y20173391D01*
X5150744Y20424783D01*
X5194840Y20646468D01*
X5194840Y20646472D01*
X5206021Y20702684D01*
X5347890Y20643920D01*
X5938450Y20643920D01*
X6097200Y20802670D01*
X6097200Y21751920D01*
X6351200Y21751920D01*
X6351200Y20802670D01*
X6509950Y20643920D01*
X7100510Y20643920D01*
X7333899Y20740593D01*
X7512527Y20919222D01*
X7609200Y21152611D01*
X7609200Y21593170D01*
X7450450Y21751920D01*
X6351200Y21751920D01*
X6097200Y21751920D01*
X6077200Y21751920D01*
X6077200Y22005920D01*
X6097200Y22005920D01*
X6097200Y22955170D01*
X6351200Y22955170D01*
X6351200Y22005920D01*
X7450450Y22005920D01*
X7609200Y22164670D01*
X7609200Y22605229D01*
X7512527Y22838618D01*
X7333899Y23017247D01*
X7100510Y23113920D01*
X6509950Y23113920D01*
X6351200Y22955170D01*
X6097200Y22955170D01*
X5938450Y23113920D01*
X5884002Y23113920D01*
X5901562Y23131480D01*
X6974200Y23131480D01*
X7221965Y23180763D01*
X7432009Y23321111D01*
X7572357Y23531155D01*
X7621640Y23778920D01*
X7621640Y24978920D01*
X11326760Y24978920D01*
X11326760Y23778920D01*
X11376043Y23531155D01*
X11516391Y23321111D01*
X11726435Y23180763D01*
X11974200Y23131480D01*
X13474200Y23131480D01*
X13721965Y23180763D01*
X13932009Y23321111D01*
X14072357Y23531155D01*
X14121640Y23778920D01*
X14121640Y24978920D01*
X14072357Y25226685D01*
X13932009Y25436729D01*
X13721965Y25577077D01*
X13474200Y25626360D01*
X11974200Y25626360D01*
X11726435Y25577077D01*
X11516391Y25436729D01*
X11376043Y25226685D01*
X11326760Y24978920D01*
X7621640Y24978920D01*
X7572357Y25226685D01*
X7432009Y25436729D01*
X7221965Y25577077D01*
X6974200Y25626360D01*
X5474200Y25626360D01*
X5226435Y25577077D01*
X5016391Y25436729D01*
X4876043Y25226685D01*
X4826760Y24978920D01*
X4826760Y24206282D01*
X3950368Y23329889D01*
X3886912Y23287489D01*
X3844512Y23224033D01*
X3844511Y23224032D01*
X3718937Y23036097D01*
X3659952Y22739560D01*
X3674841Y22664708D01*
X3674840Y21036122D01*
X2012519Y19373800D01*
X1846446Y19373800D01*
X1466040Y19216231D01*
X1174889Y18925080D01*
X1017320Y18544674D01*
X1017320Y18132926D01*
X1174889Y17752520D01*
X1466040Y17461369D01*
X1846446Y17303800D01*
X2258194Y17303800D01*
X2422000Y17371651D01*
X2422000Y16889000D01*
X1981042Y16889000D01*
X1337093Y17532948D01*
X1337089Y17532954D01*
X806400Y18063642D01*
X806400Y18229714D01*
X648831Y18610120D01*
X357680Y18901271D01*
X-22726Y19058840D01*
X-188799Y19058840D01*
X-471389Y19341430D01*
X-513791Y19404889D01*
X-765183Y19572864D01*
X-986868Y19616960D01*
X-986873Y19616960D01*
X-1061720Y19631848D01*
X-1136567Y19616960D01*
X-2343880Y19616960D01*
X-2343880Y23013754D01*
X-2328992Y23088601D01*
X-2343880Y23163448D01*
X-2343880Y23163452D01*
X-2387976Y23385137D01*
X-2465717Y23501485D01*
X-2513551Y23573074D01*
X-2513553Y23573076D01*
X-2555951Y23636529D01*
X-2619404Y23678927D01*
X-2749600Y23809122D01*
X-2749600Y23975194D01*
X-2907169Y24355600D01*
X-3024600Y24473031D01*
X-3024600Y25821070D01*
X-2957576Y25848832D01*
X-2546872Y26259536D01*
X-2436727Y26525449D01*
X-2212474Y26432560D01*
X-2183561Y26432560D01*
X52120Y24196878D01*
X52120Y24030806D01*
X209689Y23650400D01*
X500840Y23359249D01*
X881246Y23201680D01*
X1292994Y23201680D01*
X1673400Y23359249D01*
X1964551Y23650400D01*
X2122120Y24030806D01*
X2122120Y24442554D01*
X1964551Y24822960D01*
X1673400Y25114111D01*
X1292994Y25271680D01*
X1126922Y25271680D01*
X-957839Y27356440D01*
X-374950Y27115000D01*
X374950Y27115000D01*
X1067767Y27401974D01*
X1144713Y27478920D01*
X4826760Y27478920D01*
X4826760Y26278920D01*
X4876043Y26031155D01*
X5016391Y25821111D01*
X5226435Y25680763D01*
X5474200Y25631480D01*
X6974200Y25631480D01*
X7221965Y25680763D01*
X7432009Y25821111D01*
X7572357Y26031155D01*
X7621640Y26278920D01*
X7621640Y27478920D01*
X7572357Y27726685D01*
X7432009Y27936729D01*
X7221965Y28077077D01*
X6974200Y28126360D01*
X5474200Y28126360D01*
X5226435Y28077077D01*
X5016391Y27936729D01*
X4876043Y27726685D01*
X4826760Y27478920D01*
X1144713Y27478920D01*
X1598026Y27932233D01*
X1885000Y28625050D01*
X1885000Y28716193D01*
X2040412Y28485837D01*
X2275964Y28329965D01*
X2553234Y28276098D01*
X2760150Y28318219D01*
X3026436Y28429914D01*
X3046867Y28443698D01*
X4113441Y28926955D01*
X5258983Y29281010D01*
X6439875Y29488702D01*
X7637477Y29546748D01*
X8832927Y29454237D01*
X8832927Y29454237D01*
G37*
X8832927Y29454237D02*
X10007346Y29212628D01*
X11142220Y28825731D01*
X12219659Y28299646D01*
X12484216Y28126360D01*
X11974200Y28126360D01*
X11726435Y28077077D01*
X11516391Y27936729D01*
X11376043Y27726685D01*
X11326760Y27478920D01*
X11326760Y26278920D01*
X11376043Y26031155D01*
X11516391Y25821111D01*
X11726435Y25680763D01*
X11974200Y25631480D01*
X13474200Y25631480D01*
X13721965Y25680763D01*
X13932009Y25821111D01*
X14072357Y26031155D01*
X14121640Y26278920D01*
X14121640Y26876905D01*
X14135419Y26865168D01*
X14943531Y25979393D01*
X15634256Y24999318D01*
X16196695Y23940405D01*
X16621983Y22819353D01*
X16903410Y21653837D01*
X17036543Y20462229D01*
X17019277Y19263346D01*
X16851887Y18076068D01*
X16537013Y16919140D01*
X16079620Y15810797D01*
X15486916Y14768511D01*
X14759694Y13797300D01*
X14476592Y13479833D01*
X939393Y-882803D01*
X616009Y-1125165D01*
X263935Y-1257151D01*
X12177Y-1284500D01*
X-360027Y-1231197D01*
X-702311Y-1075570D01*
X-931030Y-891675D01*
X-7591359Y6174770D01*
X-7525889Y6240240D01*
X-6160687Y6240240D01*
X-6085840Y6225352D01*
X-6010993Y6240240D01*
X-6010988Y6240240D01*
X-5789303Y6284336D01*
X-5537911Y6452311D01*
X-5495509Y6515769D01*
X-5194968Y6816311D01*
X-5131511Y6858711D01*
X-4963536Y7110103D01*
X-4919440Y7331788D01*
X-4919440Y7331792D01*
X-4904552Y7406639D01*
X-4919440Y7481486D01*
X-4919440Y10181640D01*
X-4533766Y10181640D01*
X-4188726Y10324560D01*
X4391529Y10324560D01*
X4508960Y10207129D01*
X4889366Y10049560D01*
X5301114Y10049560D01*
X5681520Y10207129D01*
X5972671Y10498280D01*
X6130240Y10878686D01*
X6130240Y11290434D01*
X5972671Y11670840D01*
X5681520Y11961991D01*
X5301114Y12119560D01*
X4889366Y12119560D01*
X4508960Y11961991D01*
X4391529Y11844560D01*
X-3903849Y11844560D01*
X-3922409Y11863120D01*
X-3756526Y11863120D01*
X-3376120Y12020689D01*
X-3084969Y12311840D01*
X-2927400Y12692246D01*
X-2927400Y13103994D01*
X-3084969Y13484400D01*
X-3112289Y13511720D01*
X-1230560Y13511720D01*
X-982795Y13561003D01*
X-772751Y13701351D01*
X-632403Y13911395D01*
X-583120Y14159160D01*
X-583120Y15043880D01*
X-137001Y15043880D01*
X367080Y14539798D01*
X367080Y14373726D01*
X524649Y13993320D01*
X815800Y13702169D01*
X1196206Y13544600D01*
X1362278Y13544600D01*
X1939513Y12967365D01*
X1981911Y12903911D01*
X2045364Y12861513D01*
X2045366Y12861511D01*
X2146548Y12793904D01*
X2233303Y12735936D01*
X2454988Y12691840D01*
X2454992Y12691840D01*
X2529839Y12676952D01*
X2604686Y12691840D01*
X5456079Y12691840D01*
X6504231Y11643687D01*
X6546631Y11580231D01*
X6550995Y11577315D01*
X6553911Y11572951D01*
X6617369Y11530550D01*
X7718678Y10429240D01*
X4902359Y7612920D01*
X3485028Y7612920D01*
X3263343Y7568824D01*
X3011951Y7400849D01*
X2843976Y7149457D01*
X2784991Y6852920D01*
X2843976Y6556383D01*
X3011951Y6304991D01*
X3263343Y6137016D01*
X3485028Y6092920D01*
X5142313Y6092920D01*
X5217160Y6078032D01*
X5292007Y6092920D01*
X5292012Y6092920D01*
X5513697Y6137016D01*
X5765089Y6304991D01*
X5807491Y6368450D01*
X9277954Y9838912D01*
X9341409Y9881311D01*
X9383810Y9944769D01*
X12757756Y13318713D01*
X12821209Y13361111D01*
X12863607Y13424564D01*
X12863609Y13424566D01*
X12968299Y13581246D01*
X12989184Y13612503D01*
X13033280Y13834188D01*
X13033280Y13834192D01*
X13048168Y13909039D01*
X13033280Y13983886D01*
X13033280Y14284390D01*
X13100304Y14312152D01*
X13511008Y14722856D01*
X13733280Y15259468D01*
X13733280Y15840292D01*
X13511008Y16376904D01*
X13100304Y16787608D01*
X13022393Y16819880D01*
X13100304Y16852152D01*
X13511008Y17262856D01*
X13702428Y17724986D01*
X13885432Y17283176D01*
X14296136Y16872472D01*
X14832748Y16650200D01*
X15413572Y16650200D01*
X15950184Y16872472D01*
X16360888Y17283176D01*
X16583160Y17819788D01*
X16583160Y18400612D01*
X16360888Y18937224D01*
X15950184Y19347928D01*
X15872273Y19380200D01*
X15950184Y19412472D01*
X16360888Y19823176D01*
X16583160Y20359788D01*
X16583160Y20940612D01*
X16360888Y21477224D01*
X15950184Y21887928D01*
X15413572Y22110200D01*
X14832748Y22110200D01*
X14296136Y21887928D01*
X14121640Y21713432D01*
X14121640Y22478920D01*
X14072357Y22726685D01*
X13932009Y22936729D01*
X13721965Y23077077D01*
X13474200Y23126360D01*
X11974200Y23126360D01*
X11726435Y23077077D01*
X11516391Y22936729D01*
X11376043Y22726685D01*
X11326760Y22478920D01*
X11326760Y21278920D01*
X11376043Y21031155D01*
X11516391Y20821111D01*
X11726435Y20680763D01*
X11974200Y20631480D01*
X13474200Y20631480D01*
X13663160Y20669066D01*
X13663160Y20359788D01*
X13885432Y19823176D01*
X14296136Y19412472D01*
X14374047Y19380200D01*
X14296136Y19347928D01*
X13885432Y18937224D01*
X13694012Y18475094D01*
X13511008Y18916904D01*
X13100304Y19327608D01*
X12563692Y19549880D01*
X11982868Y19549880D01*
X11446256Y19327608D01*
X11035552Y18916904D01*
X10813280Y18380292D01*
X10813280Y18025622D01*
X10809553Y18024881D01*
X10809549Y18024881D01*
X10587864Y17980785D01*
X10531225Y17942940D01*
X10399927Y17855210D01*
X10399925Y17855208D01*
X10336472Y17812810D01*
X10294074Y17749357D01*
X9108599Y16563880D01*
X7149521Y16563880D01*
X7089771Y16623630D01*
X7047369Y16687089D01*
X6896880Y16787643D01*
X6896880Y17729160D01*
X6847597Y17976925D01*
X6707249Y18186969D01*
X6497205Y18327317D01*
X6249440Y18376600D01*
X3164921Y18376600D01*
X4919313Y20130991D01*
X4982769Y20173391D01*
X5150744Y20424783D01*
X5194840Y20646468D01*
X5194840Y20646472D01*
X5206021Y20702684D01*
X5347890Y20643920D01*
X5938450Y20643920D01*
X6097200Y20802670D01*
X6097200Y21751920D01*
X6351200Y21751920D01*
X6351200Y20802670D01*
X6509950Y20643920D01*
X7100510Y20643920D01*
X7333899Y20740593D01*
X7512527Y20919222D01*
X7609200Y21152611D01*
X7609200Y21593170D01*
X7450450Y21751920D01*
X6351200Y21751920D01*
X6097200Y21751920D01*
X6077200Y21751920D01*
X6077200Y22005920D01*
X6097200Y22005920D01*
X6097200Y22955170D01*
X6351200Y22955170D01*
X6351200Y22005920D01*
X7450450Y22005920D01*
X7609200Y22164670D01*
X7609200Y22605229D01*
X7512527Y22838618D01*
X7333899Y23017247D01*
X7100510Y23113920D01*
X6509950Y23113920D01*
X6351200Y22955170D01*
X6097200Y22955170D01*
X5938450Y23113920D01*
X5884002Y23113920D01*
X5901562Y23131480D01*
X6974200Y23131480D01*
X7221965Y23180763D01*
X7432009Y23321111D01*
X7572357Y23531155D01*
X7621640Y23778920D01*
X7621640Y24978920D01*
X11326760Y24978920D01*
X11326760Y23778920D01*
X11376043Y23531155D01*
X11516391Y23321111D01*
X11726435Y23180763D01*
X11974200Y23131480D01*
X13474200Y23131480D01*
X13721965Y23180763D01*
X13932009Y23321111D01*
X14072357Y23531155D01*
X14121640Y23778920D01*
X14121640Y24978920D01*
X14072357Y25226685D01*
X13932009Y25436729D01*
X13721965Y25577077D01*
X13474200Y25626360D01*
X11974200Y25626360D01*
X11726435Y25577077D01*
X11516391Y25436729D01*
X11376043Y25226685D01*
X11326760Y24978920D01*
X7621640Y24978920D01*
X7572357Y25226685D01*
X7432009Y25436729D01*
X7221965Y25577077D01*
X6974200Y25626360D01*
X5474200Y25626360D01*
X5226435Y25577077D01*
X5016391Y25436729D01*
X4876043Y25226685D01*
X4826760Y24978920D01*
X4826760Y24206282D01*
X3950368Y23329889D01*
X3886912Y23287489D01*
X3844512Y23224033D01*
X3844511Y23224032D01*
X3718937Y23036097D01*
X3659952Y22739560D01*
X3674841Y22664708D01*
X3674840Y21036122D01*
X2012519Y19373800D01*
X1846446Y19373800D01*
X1466040Y19216231D01*
X1174889Y18925080D01*
X1017320Y18544674D01*
X1017320Y18132926D01*
X1174889Y17752520D01*
X1466040Y17461369D01*
X1846446Y17303800D01*
X2258194Y17303800D01*
X2422000Y17371651D01*
X2422000Y16889000D01*
X1981042Y16889000D01*
X1337093Y17532948D01*
X1337089Y17532954D01*
X806400Y18063642D01*
X806400Y18229714D01*
X648831Y18610120D01*
X357680Y18901271D01*
X-22726Y19058840D01*
X-188799Y19058840D01*
X-471389Y19341430D01*
X-513791Y19404889D01*
X-765183Y19572864D01*
X-986868Y19616960D01*
X-986873Y19616960D01*
X-1061720Y19631848D01*
X-1136567Y19616960D01*
X-2343880Y19616960D01*
X-2343880Y23013754D01*
X-2328992Y23088601D01*
X-2343880Y23163448D01*
X-2343880Y23163452D01*
X-2387976Y23385137D01*
X-2465717Y23501485D01*
X-2513551Y23573074D01*
X-2513553Y23573076D01*
X-2555951Y23636529D01*
X-2619404Y23678927D01*
X-2749600Y23809122D01*
X-2749600Y23975194D01*
X-2907169Y24355600D01*
X-3024600Y24473031D01*
X-3024600Y25821070D01*
X-2957576Y25848832D01*
X-2546872Y26259536D01*
X-2436727Y26525449D01*
X-2212474Y26432560D01*
X-2183561Y26432560D01*
X52120Y24196878D01*
X52120Y24030806D01*
X209689Y23650400D01*
X500840Y23359249D01*
X881246Y23201680D01*
X1292994Y23201680D01*
X1673400Y23359249D01*
X1964551Y23650400D01*
X2122120Y24030806D01*
X2122120Y24442554D01*
X1964551Y24822960D01*
X1673400Y25114111D01*
X1292994Y25271680D01*
X1126922Y25271680D01*
X-957839Y27356440D01*
X-374950Y27115000D01*
X374950Y27115000D01*
X1067767Y27401974D01*
X1144713Y27478920D01*
X4826760Y27478920D01*
X4826760Y26278920D01*
X4876043Y26031155D01*
X5016391Y25821111D01*
X5226435Y25680763D01*
X5474200Y25631480D01*
X6974200Y25631480D01*
X7221965Y25680763D01*
X7432009Y25821111D01*
X7572357Y26031155D01*
X7621640Y26278920D01*
X7621640Y27478920D01*
X7572357Y27726685D01*
X7432009Y27936729D01*
X7221965Y28077077D01*
X6974200Y28126360D01*
X5474200Y28126360D01*
X5226435Y28077077D01*
X5016391Y27936729D01*
X4876043Y27726685D01*
X4826760Y27478920D01*
X1144713Y27478920D01*
X1598026Y27932233D01*
X1885000Y28625050D01*
X1885000Y28716193D01*
X2040412Y28485837D01*
X2275964Y28329965D01*
X2553234Y28276098D01*
X2760150Y28318219D01*
X3026436Y28429914D01*
X3046867Y28443698D01*
X4113441Y28926955D01*
X5258983Y29281010D01*
X6439875Y29488702D01*
X7637477Y29546748D01*
X8832927Y29454237D01*
G36*
X-6871396Y29527023D02*
X-5682312Y29373117D01*
X-4521870Y29071386D01*
X-3395150Y28621303D01*
X-3062111Y28453984D01*
X-3026436Y28429915D01*
X-2760150Y28318219D01*
X-2643415Y28294456D01*
X-2785580Y28152292D01*
X-2957576Y28324288D01*
X-3494188Y28546560D01*
X-4075012Y28546560D01*
X-4611624Y28324288D01*
X-5022328Y27913584D01*
X-5054600Y27835673D01*
X-5086872Y27913584D01*
X-5497576Y28324288D01*
X-6034188Y28546560D01*
X-6615012Y28546560D01*
X-7151624Y28324288D01*
X-7562328Y27913584D01*
X-7594600Y27835673D01*
X-7626872Y27913584D01*
X-8037576Y28324288D01*
X-8574188Y28546560D01*
X-9155012Y28546560D01*
X-9691624Y28324288D01*
X-10102328Y27913584D01*
X-10128191Y27851146D01*
X-10130037Y27855604D01*
X-10378747Y27932808D01*
X-11224995Y27086560D01*
X-10378747Y26240312D01*
X-10130037Y26317516D01*
X-10128317Y26322279D01*
X-10102328Y26259536D01*
X-9691624Y25848832D01*
X-9155012Y25626560D01*
X-8574188Y25626560D01*
X-8037576Y25848832D01*
X-7626872Y26259536D01*
X-7594600Y26337447D01*
X-7562328Y26259536D01*
X-7151624Y25848832D01*
X-6615012Y25626560D01*
X-6034188Y25626560D01*
X-5497576Y25848832D01*
X-5086872Y26259536D01*
X-5054600Y26337447D01*
X-5022328Y26259536D01*
X-4611624Y25848832D01*
X-4544600Y25821070D01*
X-4544600Y25076229D01*
X-4544599Y25076224D01*
X-4544599Y24473032D01*
X-4662031Y24355600D01*
X-4819600Y23975194D01*
X-4819600Y23608751D01*
X-5088751Y23339600D01*
X-5246320Y22959194D01*
X-5246320Y22547446D01*
X-5088751Y22167040D01*
X-4971320Y22049609D01*
X-4971320Y21771527D01*
X-4986208Y21696680D01*
X-4971320Y21621833D01*
X-4971320Y21621829D01*
X-4927224Y21400144D01*
X-4759249Y21148751D01*
X-4695790Y21106349D01*
X-4580159Y20990718D01*
X-4580160Y19566160D01*
X-5264232Y19566160D01*
X-5339080Y19581048D01*
X-5413928Y19566160D01*
X-5413932Y19566160D01*
X-5587475Y19531640D01*
X-5635618Y19522064D01*
X-5728068Y19460290D01*
X-5887009Y19354089D01*
X-5929411Y19290630D01*
X-6265512Y18954529D01*
X-6328968Y18912129D01*
X-6371368Y18848673D01*
X-6371369Y18848672D01*
X-6496943Y18660737D01*
X-6555928Y18364200D01*
X-6541039Y18289348D01*
X-6541040Y16428562D01*
X-7059312Y15910289D01*
X-7122770Y15867888D01*
X-7215600Y15728958D01*
X-7215600Y18823194D01*
X-7161751Y18877043D01*
X-7015600Y19229884D01*
X-7015600Y19611796D01*
X-7161751Y19964637D01*
X-7431803Y20234689D01*
X-7784644Y20380840D01*
X-8166556Y20380840D01*
X-8519397Y20234689D01*
X-8789449Y19964637D01*
X-8935600Y19611796D01*
X-8935600Y19229884D01*
X-8789449Y18877043D01*
X-8735599Y18823193D01*
X-8735600Y14380127D01*
X-8750488Y14305280D01*
X-8735600Y14230433D01*
X-8735600Y14230429D01*
X-8691504Y14008744D01*
X-8523529Y13757351D01*
X-8460070Y13714949D01*
X-8047769Y13302648D01*
X-8005369Y13239191D01*
X-7753977Y13071216D01*
X-7532292Y13027120D01*
X-7532287Y13027120D01*
X-7457440Y13012232D01*
X-7382593Y13027120D01*
X-6774311Y13027120D01*
X-6656880Y12909689D01*
X-6276474Y12752120D01*
X-5864726Y12752120D01*
X-5504716Y12901241D01*
X-6163910Y12242046D01*
X-6227369Y12199644D01*
X-6395344Y11948251D01*
X-6439440Y11726566D01*
X-6439440Y11726562D01*
X-6454328Y11651715D01*
X-6439440Y11576868D01*
X-6439439Y7760240D01*
X-7525889Y7760240D01*
X-7643320Y7877671D01*
X-8023726Y8035240D01*
X-8189798Y8035240D01*
X-10172160Y10017601D01*
X-10172160Y13886872D01*
X-10169207Y13901720D01*
X-9490560Y13901720D01*
X-9242795Y13951003D01*
X-9032751Y14091351D01*
X-8892403Y14301395D01*
X-8843120Y14549160D01*
X-8843120Y17729160D01*
X-8892403Y17976925D01*
X-9032751Y18186969D01*
X-9242795Y18327317D01*
X-9490560Y18376600D01*
X-10353394Y18376600D01*
X-10364656Y18433217D01*
X-10532631Y18684609D01*
X-10596087Y18727009D01*
X-10674400Y18805322D01*
X-10674400Y18971394D01*
X-10831969Y19351800D01*
X-11123120Y19642951D01*
X-11503526Y19800520D01*
X-11915274Y19800520D01*
X-12295680Y19642951D01*
X-12586831Y19351800D01*
X-12744400Y18971394D01*
X-12744400Y18559646D01*
X-12668580Y18376600D01*
X-12670560Y18376600D01*
X-12918325Y18327317D01*
X-13128369Y18186969D01*
X-13268717Y17976925D01*
X-13318000Y17729160D01*
X-13318000Y14549160D01*
X-13268717Y14301395D01*
X-13128369Y14091351D01*
X-12918325Y13951003D01*
X-12670560Y13901720D01*
X-11696844Y13901720D01*
X-11692160Y13878174D01*
X-11692159Y10525618D01*
X-14466825Y13469471D01*
X-15241381Y14411590D01*
X-15880753Y15425911D01*
X-16387953Y16512364D01*
X-16754985Y17653819D01*
X-16976061Y18832276D01*
X-17047693Y20029149D01*
X-16968754Y21225570D01*
X-16740487Y22402647D01*
X-16366490Y23541845D01*
X-15852666Y24625179D01*
X-15207113Y25635577D01*
X-14853223Y26060707D01*
X-12250848Y26060707D01*
X-12173644Y25811997D01*
X-11627350Y25614717D01*
X-11047144Y25641512D01*
X-10635556Y25811997D01*
X-10558352Y26060707D01*
X-11404600Y26906955D01*
X-12250848Y26060707D01*
X-14853223Y26060707D01*
X-14440015Y26557096D01*
X-13634071Y27309310D01*
X-12876443Y27309310D01*
X-12849648Y26729104D01*
X-12679163Y26317516D01*
X-12430453Y26240312D01*
X-11584205Y27086560D01*
X-12430453Y27932808D01*
X-12679163Y27855604D01*
X-12876443Y27309310D01*
X-13634071Y27309310D01*
X-13563467Y27375207D01*
X-12591299Y28077004D01*
X-12194636Y28293497D01*
X-12250848Y28112413D01*
X-11404600Y27266165D01*
X-10558352Y28112413D01*
X-10635556Y28361123D01*
X-11181850Y28558403D01*
X-11758022Y28531794D01*
X-11538834Y28651424D01*
X-10422679Y29089404D01*
X-9260424Y29384040D01*
X-8070413Y29530684D01*
X-6871396Y29527023D01*
X-6871396Y29527023D01*
G37*
X-6871396Y29527023D02*
X-5682312Y29373117D01*
X-4521870Y29071386D01*
X-3395150Y28621303D01*
X-3062111Y28453984D01*
X-3026436Y28429915D01*
X-2760150Y28318219D01*
X-2643415Y28294456D01*
X-2785580Y28152292D01*
X-2957576Y28324288D01*
X-3494188Y28546560D01*
X-4075012Y28546560D01*
X-4611624Y28324288D01*
X-5022328Y27913584D01*
X-5054600Y27835673D01*
X-5086872Y27913584D01*
X-5497576Y28324288D01*
X-6034188Y28546560D01*
X-6615012Y28546560D01*
X-7151624Y28324288D01*
X-7562328Y27913584D01*
X-7594600Y27835673D01*
X-7626872Y27913584D01*
X-8037576Y28324288D01*
X-8574188Y28546560D01*
X-9155012Y28546560D01*
X-9691624Y28324288D01*
X-10102328Y27913584D01*
X-10128191Y27851146D01*
X-10130037Y27855604D01*
X-10378747Y27932808D01*
X-11224995Y27086560D01*
X-10378747Y26240312D01*
X-10130037Y26317516D01*
X-10128317Y26322279D01*
X-10102328Y26259536D01*
X-9691624Y25848832D01*
X-9155012Y25626560D01*
X-8574188Y25626560D01*
X-8037576Y25848832D01*
X-7626872Y26259536D01*
X-7594600Y26337447D01*
X-7562328Y26259536D01*
X-7151624Y25848832D01*
X-6615012Y25626560D01*
X-6034188Y25626560D01*
X-5497576Y25848832D01*
X-5086872Y26259536D01*
X-5054600Y26337447D01*
X-5022328Y26259536D01*
X-4611624Y25848832D01*
X-4544600Y25821070D01*
X-4544600Y25076229D01*
X-4544599Y25076224D01*
X-4544599Y24473032D01*
X-4662031Y24355600D01*
X-4819600Y23975194D01*
X-4819600Y23608751D01*
X-5088751Y23339600D01*
X-5246320Y22959194D01*
X-5246320Y22547446D01*
X-5088751Y22167040D01*
X-4971320Y22049609D01*
X-4971320Y21771527D01*
X-4986208Y21696680D01*
X-4971320Y21621833D01*
X-4971320Y21621829D01*
X-4927224Y21400144D01*
X-4759249Y21148751D01*
X-4695790Y21106349D01*
X-4580159Y20990718D01*
X-4580160Y19566160D01*
X-5264232Y19566160D01*
X-5339080Y19581048D01*
X-5413928Y19566160D01*
X-5413932Y19566160D01*
X-5587475Y19531640D01*
X-5635618Y19522064D01*
X-5728068Y19460290D01*
X-5887009Y19354089D01*
X-5929411Y19290630D01*
X-6265512Y18954529D01*
X-6328968Y18912129D01*
X-6371368Y18848673D01*
X-6371369Y18848672D01*
X-6496943Y18660737D01*
X-6555928Y18364200D01*
X-6541039Y18289348D01*
X-6541040Y16428562D01*
X-7059312Y15910289D01*
X-7122770Y15867888D01*
X-7215600Y15728958D01*
X-7215600Y18823194D01*
X-7161751Y18877043D01*
X-7015600Y19229884D01*
X-7015600Y19611796D01*
X-7161751Y19964637D01*
X-7431803Y20234689D01*
X-7784644Y20380840D01*
X-8166556Y20380840D01*
X-8519397Y20234689D01*
X-8789449Y19964637D01*
X-8935600Y19611796D01*
X-8935600Y19229884D01*
X-8789449Y18877043D01*
X-8735599Y18823193D01*
X-8735600Y14380127D01*
X-8750488Y14305280D01*
X-8735600Y14230433D01*
X-8735600Y14230429D01*
X-8691504Y14008744D01*
X-8523529Y13757351D01*
X-8460070Y13714949D01*
X-8047769Y13302648D01*
X-8005369Y13239191D01*
X-7753977Y13071216D01*
X-7532292Y13027120D01*
X-7532287Y13027120D01*
X-7457440Y13012232D01*
X-7382593Y13027120D01*
X-6774311Y13027120D01*
X-6656880Y12909689D01*
X-6276474Y12752120D01*
X-5864726Y12752120D01*
X-5504716Y12901241D01*
X-6163910Y12242046D01*
X-6227369Y12199644D01*
X-6395344Y11948251D01*
X-6439440Y11726566D01*
X-6439440Y11726562D01*
X-6454328Y11651715D01*
X-6439440Y11576868D01*
X-6439439Y7760240D01*
X-7525889Y7760240D01*
X-7643320Y7877671D01*
X-8023726Y8035240D01*
X-8189798Y8035240D01*
X-10172160Y10017601D01*
X-10172160Y13886872D01*
X-10169207Y13901720D01*
X-9490560Y13901720D01*
X-9242795Y13951003D01*
X-9032751Y14091351D01*
X-8892403Y14301395D01*
X-8843120Y14549160D01*
X-8843120Y17729160D01*
X-8892403Y17976925D01*
X-9032751Y18186969D01*
X-9242795Y18327317D01*
X-9490560Y18376600D01*
X-10353394Y18376600D01*
X-10364656Y18433217D01*
X-10532631Y18684609D01*
X-10596087Y18727009D01*
X-10674400Y18805322D01*
X-10674400Y18971394D01*
X-10831969Y19351800D01*
X-11123120Y19642951D01*
X-11503526Y19800520D01*
X-11915274Y19800520D01*
X-12295680Y19642951D01*
X-12586831Y19351800D01*
X-12744400Y18971394D01*
X-12744400Y18559646D01*
X-12668580Y18376600D01*
X-12670560Y18376600D01*
X-12918325Y18327317D01*
X-13128369Y18186969D01*
X-13268717Y17976925D01*
X-13318000Y17729160D01*
X-13318000Y14549160D01*
X-13268717Y14301395D01*
X-13128369Y14091351D01*
X-12918325Y13951003D01*
X-12670560Y13901720D01*
X-11696844Y13901720D01*
X-11692160Y13878174D01*
X-11692159Y10525618D01*
X-14466825Y13469471D01*
X-15241381Y14411590D01*
X-15880753Y15425911D01*
X-16387953Y16512364D01*
X-16754985Y17653819D01*
X-16976061Y18832276D01*
X-17047693Y20029149D01*
X-16968754Y21225570D01*
X-16740487Y22402647D01*
X-16366490Y23541845D01*
X-15852666Y24625179D01*
X-15207113Y25635577D01*
X-14853223Y26060707D01*
X-12250848Y26060707D01*
X-12173644Y25811997D01*
X-11627350Y25614717D01*
X-11047144Y25641512D01*
X-10635556Y25811997D01*
X-10558352Y26060707D01*
X-11404600Y26906955D01*
X-12250848Y26060707D01*
X-14853223Y26060707D01*
X-14440015Y26557096D01*
X-13634071Y27309310D01*
X-12876443Y27309310D01*
X-12849648Y26729104D01*
X-12679163Y26317516D01*
X-12430453Y26240312D01*
X-11584205Y27086560D01*
X-12430453Y27932808D01*
X-12679163Y27855604D01*
X-12876443Y27309310D01*
X-13634071Y27309310D01*
X-13563467Y27375207D01*
X-12591299Y28077004D01*
X-12194636Y28293497D01*
X-12250848Y28112413D01*
X-11404600Y27266165D01*
X-10558352Y28112413D01*
X-10635556Y28361123D01*
X-11181850Y28558403D01*
X-11758022Y28531794D01*
X-11538834Y28651424D01*
X-10422679Y29089404D01*
X-9260424Y29384040D01*
X-8070413Y29530684D01*
X-6871396Y29527023D01*
G04 #@! TD*
M02*
