G04 #@! TF.GenerationSoftware,KiCad,Pcbnew,(5.0.2)-1*
G04 #@! TF.CreationDate,2019-01-23T22:06:34-08:00*
G04 #@! TF.ProjectId,heart,68656172-742e-46b6-9963-61645f706362,rev?*
G04 #@! TF.SameCoordinates,Original*
G04 #@! TF.FileFunction,Soldermask,Top*
G04 #@! TF.FilePolarity,Negative*
%FSLAX46Y46*%
G04 Gerber Fmt 4.6, Leading zero omitted, Abs format (unit mm)*
G04 Created by KiCad (PCBNEW (5.0.2)-1) date 1/23/2019 10:06:34 PM*
%MOMM*%
%LPD*%
G01*
G04 APERTURE LIST*
%ADD10C,0.100000*%
G04 APERTURE END LIST*
D10*
G36*
X-3438894Y4691675D02*
X-3400223Y4679944D01*
X-3364581Y4660892D01*
X-3333343Y4635257D01*
X-3307708Y4604019D01*
X-3288656Y4568377D01*
X-3276925Y4529706D01*
X-3272360Y4483352D01*
X-3272360Y3832128D01*
X-3276925Y3785774D01*
X-3288656Y3747103D01*
X-3307708Y3711461D01*
X-3333343Y3680223D01*
X-3364581Y3654588D01*
X-3400223Y3635536D01*
X-3438894Y3623805D01*
X-3485248Y3619240D01*
X-4561472Y3619240D01*
X-4607826Y3623805D01*
X-4646497Y3635536D01*
X-4682139Y3654588D01*
X-4713377Y3680223D01*
X-4739012Y3711461D01*
X-4758064Y3747103D01*
X-4769795Y3785774D01*
X-4774360Y3832128D01*
X-4774360Y4483352D01*
X-4769795Y4529706D01*
X-4758064Y4568377D01*
X-4739012Y4604019D01*
X-4713377Y4635257D01*
X-4682139Y4660892D01*
X-4646497Y4679944D01*
X-4607826Y4691675D01*
X-4561472Y4696240D01*
X-3485248Y4696240D01*
X-3438894Y4691675D01*
X-3438894Y4691675D01*
G37*
G36*
X-589014Y4722155D02*
X-550343Y4710424D01*
X-514701Y4691372D01*
X-483463Y4665737D01*
X-457828Y4634499D01*
X-438776Y4598857D01*
X-427045Y4560186D01*
X-422480Y4513832D01*
X-422480Y3862608D01*
X-427045Y3816254D01*
X-438776Y3777583D01*
X-457828Y3741941D01*
X-483463Y3710703D01*
X-514701Y3685068D01*
X-550343Y3666016D01*
X-589014Y3654285D01*
X-635368Y3649720D01*
X-1711592Y3649720D01*
X-1757946Y3654285D01*
X-1796617Y3666016D01*
X-1832259Y3685068D01*
X-1863497Y3710703D01*
X-1889132Y3741941D01*
X-1908184Y3777583D01*
X-1919915Y3816254D01*
X-1924480Y3862608D01*
X-1924480Y4513832D01*
X-1919915Y4560186D01*
X-1908184Y4598857D01*
X-1889132Y4634499D01*
X-1863497Y4665737D01*
X-1832259Y4691372D01*
X-1796617Y4710424D01*
X-1757946Y4722155D01*
X-1711592Y4726720D01*
X-635368Y4726720D01*
X-589014Y4722155D01*
X-589014Y4722155D01*
G37*
G36*
X1798586Y4737395D02*
X1837257Y4725664D01*
X1872899Y4706612D01*
X1904137Y4680977D01*
X1929772Y4649739D01*
X1948824Y4614097D01*
X1960555Y4575426D01*
X1965120Y4529072D01*
X1965120Y3877848D01*
X1960555Y3831494D01*
X1948824Y3792823D01*
X1929772Y3757181D01*
X1904137Y3725943D01*
X1872899Y3700308D01*
X1837257Y3681256D01*
X1798586Y3669525D01*
X1752232Y3664960D01*
X676008Y3664960D01*
X629654Y3669525D01*
X590983Y3681256D01*
X555341Y3700308D01*
X524103Y3725943D01*
X498468Y3757181D01*
X479416Y3792823D01*
X467685Y3831494D01*
X463120Y3877848D01*
X463120Y4529072D01*
X467685Y4575426D01*
X479416Y4614097D01*
X498468Y4649739D01*
X524103Y4680977D01*
X555341Y4706612D01*
X590983Y4725664D01*
X629654Y4737395D01*
X676008Y4741960D01*
X1752232Y4741960D01*
X1798586Y4737395D01*
X1798586Y4737395D01*
G37*
G36*
X4805946Y4752635D02*
X4844617Y4740904D01*
X4880259Y4721852D01*
X4911497Y4696217D01*
X4937132Y4664979D01*
X4956184Y4629337D01*
X4967915Y4590666D01*
X4972480Y4544312D01*
X4972480Y3893088D01*
X4967915Y3846734D01*
X4956184Y3808063D01*
X4937132Y3772421D01*
X4911497Y3741183D01*
X4880259Y3715548D01*
X4844617Y3696496D01*
X4805946Y3684765D01*
X4759592Y3680200D01*
X3683368Y3680200D01*
X3637014Y3684765D01*
X3598343Y3696496D01*
X3562701Y3715548D01*
X3531463Y3741183D01*
X3505828Y3772421D01*
X3486776Y3808063D01*
X3475045Y3846734D01*
X3470480Y3893088D01*
X3470480Y4544312D01*
X3475045Y4590666D01*
X3486776Y4629337D01*
X3505828Y4664979D01*
X3531463Y4696217D01*
X3562701Y4721852D01*
X3598343Y4740904D01*
X3637014Y4752635D01*
X3683368Y4757200D01*
X4759592Y4757200D01*
X4805946Y4752635D01*
X4805946Y4752635D01*
G37*
G36*
X-3438894Y6566675D02*
X-3400223Y6554944D01*
X-3364581Y6535892D01*
X-3333343Y6510257D01*
X-3307708Y6479019D01*
X-3288656Y6443377D01*
X-3276925Y6404706D01*
X-3272360Y6358352D01*
X-3272360Y5707128D01*
X-3276925Y5660774D01*
X-3288656Y5622103D01*
X-3307708Y5586461D01*
X-3333343Y5555223D01*
X-3364581Y5529588D01*
X-3400223Y5510536D01*
X-3438894Y5498805D01*
X-3485248Y5494240D01*
X-4561472Y5494240D01*
X-4607826Y5498805D01*
X-4646497Y5510536D01*
X-4682139Y5529588D01*
X-4713377Y5555223D01*
X-4739012Y5586461D01*
X-4758064Y5622103D01*
X-4769795Y5660774D01*
X-4774360Y5707128D01*
X-4774360Y6358352D01*
X-4769795Y6404706D01*
X-4758064Y6443377D01*
X-4739012Y6479019D01*
X-4713377Y6510257D01*
X-4682139Y6535892D01*
X-4646497Y6554944D01*
X-4607826Y6566675D01*
X-4561472Y6571240D01*
X-3485248Y6571240D01*
X-3438894Y6566675D01*
X-3438894Y6566675D01*
G37*
G36*
X-589014Y6597155D02*
X-550343Y6585424D01*
X-514701Y6566372D01*
X-483463Y6540737D01*
X-457828Y6509499D01*
X-438776Y6473857D01*
X-427045Y6435186D01*
X-422480Y6388832D01*
X-422480Y5737608D01*
X-427045Y5691254D01*
X-438776Y5652583D01*
X-457828Y5616941D01*
X-483463Y5585703D01*
X-514701Y5560068D01*
X-550343Y5541016D01*
X-589014Y5529285D01*
X-635368Y5524720D01*
X-1711592Y5524720D01*
X-1757946Y5529285D01*
X-1796617Y5541016D01*
X-1832259Y5560068D01*
X-1863497Y5585703D01*
X-1889132Y5616941D01*
X-1908184Y5652583D01*
X-1919915Y5691254D01*
X-1924480Y5737608D01*
X-1924480Y6388832D01*
X-1919915Y6435186D01*
X-1908184Y6473857D01*
X-1889132Y6509499D01*
X-1863497Y6540737D01*
X-1832259Y6566372D01*
X-1796617Y6585424D01*
X-1757946Y6597155D01*
X-1711592Y6601720D01*
X-635368Y6601720D01*
X-589014Y6597155D01*
X-589014Y6597155D01*
G37*
G36*
X1798586Y6612395D02*
X1837257Y6600664D01*
X1872899Y6581612D01*
X1904137Y6555977D01*
X1929772Y6524739D01*
X1948824Y6489097D01*
X1960555Y6450426D01*
X1965120Y6404072D01*
X1965120Y5752848D01*
X1960555Y5706494D01*
X1948824Y5667823D01*
X1929772Y5632181D01*
X1904137Y5600943D01*
X1872899Y5575308D01*
X1837257Y5556256D01*
X1798586Y5544525D01*
X1752232Y5539960D01*
X676008Y5539960D01*
X629654Y5544525D01*
X590983Y5556256D01*
X555341Y5575308D01*
X524103Y5600943D01*
X498468Y5632181D01*
X479416Y5667823D01*
X467685Y5706494D01*
X463120Y5752848D01*
X463120Y6404072D01*
X467685Y6450426D01*
X479416Y6489097D01*
X498468Y6524739D01*
X524103Y6555977D01*
X555341Y6581612D01*
X590983Y6600664D01*
X629654Y6612395D01*
X676008Y6616960D01*
X1752232Y6616960D01*
X1798586Y6612395D01*
X1798586Y6612395D01*
G37*
G36*
X4805946Y6627635D02*
X4844617Y6615904D01*
X4880259Y6596852D01*
X4911497Y6571217D01*
X4937132Y6539979D01*
X4956184Y6504337D01*
X4967915Y6465666D01*
X4972480Y6419312D01*
X4972480Y5768088D01*
X4967915Y5721734D01*
X4956184Y5683063D01*
X4937132Y5647421D01*
X4911497Y5616183D01*
X4880259Y5590548D01*
X4844617Y5571496D01*
X4805946Y5559765D01*
X4759592Y5555200D01*
X3683368Y5555200D01*
X3637014Y5559765D01*
X3598343Y5571496D01*
X3562701Y5590548D01*
X3531463Y5616183D01*
X3505828Y5647421D01*
X3486776Y5683063D01*
X3475045Y5721734D01*
X3470480Y5768088D01*
X3470480Y6419312D01*
X3475045Y6465666D01*
X3486776Y6504337D01*
X3505828Y6539979D01*
X3531463Y6571217D01*
X3562701Y6596852D01*
X3598343Y6615904D01*
X3637014Y6627635D01*
X3683368Y6632200D01*
X4759592Y6632200D01*
X4805946Y6627635D01*
X4805946Y6627635D01*
G37*
G36*
X4821186Y8354355D02*
X4859857Y8342624D01*
X4895499Y8323572D01*
X4926737Y8297937D01*
X4952372Y8266699D01*
X4971424Y8231057D01*
X4983155Y8192386D01*
X4987720Y8146032D01*
X4987720Y7494808D01*
X4983155Y7448454D01*
X4971424Y7409783D01*
X4952372Y7374141D01*
X4926737Y7342903D01*
X4895499Y7317268D01*
X4859857Y7298216D01*
X4821186Y7286485D01*
X4774832Y7281920D01*
X3698608Y7281920D01*
X3652254Y7286485D01*
X3613583Y7298216D01*
X3577941Y7317268D01*
X3546703Y7342903D01*
X3521068Y7374141D01*
X3502016Y7409783D01*
X3490285Y7448454D01*
X3485720Y7494808D01*
X3485720Y8146032D01*
X3490285Y8192386D01*
X3502016Y8231057D01*
X3521068Y8266699D01*
X3546703Y8297937D01*
X3577941Y8323572D01*
X3613583Y8342624D01*
X3652254Y8354355D01*
X3698608Y8358920D01*
X4774832Y8358920D01*
X4821186Y8354355D01*
X4821186Y8354355D01*
G37*
G36*
X1803666Y8374675D02*
X1842337Y8362944D01*
X1877979Y8343892D01*
X1909217Y8318257D01*
X1934852Y8287019D01*
X1953904Y8251377D01*
X1965635Y8212706D01*
X1970200Y8166352D01*
X1970200Y7515128D01*
X1965635Y7468774D01*
X1953904Y7430103D01*
X1934852Y7394461D01*
X1909217Y7363223D01*
X1877979Y7337588D01*
X1842337Y7318536D01*
X1803666Y7306805D01*
X1757312Y7302240D01*
X681088Y7302240D01*
X634734Y7306805D01*
X596063Y7318536D01*
X560421Y7337588D01*
X529183Y7363223D01*
X503548Y7394461D01*
X484496Y7430103D01*
X472765Y7468774D01*
X468200Y7515128D01*
X468200Y8166352D01*
X472765Y8212706D01*
X484496Y8251377D01*
X503548Y8287019D01*
X529183Y8318257D01*
X560421Y8343892D01*
X596063Y8362944D01*
X634734Y8374675D01*
X681088Y8379240D01*
X1757312Y8379240D01*
X1803666Y8374675D01*
X1803666Y8374675D01*
G37*
G36*
X-3438894Y8394995D02*
X-3400223Y8383264D01*
X-3364581Y8364212D01*
X-3333343Y8338577D01*
X-3307708Y8307339D01*
X-3288656Y8271697D01*
X-3276925Y8233026D01*
X-3272360Y8186672D01*
X-3272360Y7535448D01*
X-3276925Y7489094D01*
X-3288656Y7450423D01*
X-3307708Y7414781D01*
X-3333343Y7383543D01*
X-3364581Y7357908D01*
X-3400223Y7338856D01*
X-3438894Y7327125D01*
X-3485248Y7322560D01*
X-4561472Y7322560D01*
X-4607826Y7327125D01*
X-4646497Y7338856D01*
X-4682139Y7357908D01*
X-4713377Y7383543D01*
X-4739012Y7414781D01*
X-4758064Y7450423D01*
X-4769795Y7489094D01*
X-4774360Y7535448D01*
X-4774360Y8186672D01*
X-4769795Y8233026D01*
X-4758064Y8271697D01*
X-4739012Y8307339D01*
X-4713377Y8338577D01*
X-4682139Y8364212D01*
X-4646497Y8383264D01*
X-4607826Y8394995D01*
X-4561472Y8399560D01*
X-3485248Y8399560D01*
X-3438894Y8394995D01*
X-3438894Y8394995D01*
G37*
G36*
X-538214Y8400075D02*
X-499543Y8388344D01*
X-463901Y8369292D01*
X-432663Y8343657D01*
X-407028Y8312419D01*
X-387976Y8276777D01*
X-376245Y8238106D01*
X-371680Y8191752D01*
X-371680Y7540528D01*
X-376245Y7494174D01*
X-387976Y7455503D01*
X-407028Y7419861D01*
X-432663Y7388623D01*
X-463901Y7362988D01*
X-499543Y7343936D01*
X-538214Y7332205D01*
X-584568Y7327640D01*
X-1660792Y7327640D01*
X-1707146Y7332205D01*
X-1745817Y7343936D01*
X-1781459Y7362988D01*
X-1812697Y7388623D01*
X-1838332Y7419861D01*
X-1857384Y7455503D01*
X-1869115Y7494174D01*
X-1873680Y7540528D01*
X-1873680Y8191752D01*
X-1869115Y8238106D01*
X-1857384Y8276777D01*
X-1838332Y8312419D01*
X-1812697Y8343657D01*
X-1781459Y8369292D01*
X-1745817Y8388344D01*
X-1707146Y8400075D01*
X-1660792Y8404640D01*
X-584568Y8404640D01*
X-538214Y8400075D01*
X-538214Y8400075D01*
G37*
G36*
X-6376574Y9321475D02*
X-6337903Y9309744D01*
X-6302261Y9290692D01*
X-6271023Y9265057D01*
X-6245388Y9233819D01*
X-6226336Y9198177D01*
X-6214605Y9159506D01*
X-6210040Y9113152D01*
X-6210040Y8036928D01*
X-6214605Y7990574D01*
X-6226336Y7951903D01*
X-6245388Y7916261D01*
X-6271023Y7885023D01*
X-6302261Y7859388D01*
X-6337903Y7840336D01*
X-6376574Y7828605D01*
X-6422928Y7824040D01*
X-7074152Y7824040D01*
X-7120506Y7828605D01*
X-7159177Y7840336D01*
X-7194819Y7859388D01*
X-7226057Y7885023D01*
X-7251692Y7916261D01*
X-7270744Y7951903D01*
X-7282475Y7990574D01*
X-7287040Y8036928D01*
X-7287040Y9113152D01*
X-7282475Y9159506D01*
X-7270744Y9198177D01*
X-7251692Y9233819D01*
X-7226057Y9265057D01*
X-7194819Y9290692D01*
X-7159177Y9309744D01*
X-7120506Y9321475D01*
X-7074152Y9326040D01*
X-6422928Y9326040D01*
X-6376574Y9321475D01*
X-6376574Y9321475D01*
G37*
G36*
X-8251574Y9321475D02*
X-8212903Y9309744D01*
X-8177261Y9290692D01*
X-8146023Y9265057D01*
X-8120388Y9233819D01*
X-8101336Y9198177D01*
X-8089605Y9159506D01*
X-8085040Y9113152D01*
X-8085040Y8036928D01*
X-8089605Y7990574D01*
X-8101336Y7951903D01*
X-8120388Y7916261D01*
X-8146023Y7885023D01*
X-8177261Y7859388D01*
X-8212903Y7840336D01*
X-8251574Y7828605D01*
X-8297928Y7824040D01*
X-8949152Y7824040D01*
X-8995506Y7828605D01*
X-9034177Y7840336D01*
X-9069819Y7859388D01*
X-9101057Y7885023D01*
X-9126692Y7916261D01*
X-9145744Y7951903D01*
X-9157475Y7990574D01*
X-9162040Y8036928D01*
X-9162040Y9113152D01*
X-9157475Y9159506D01*
X-9145744Y9198177D01*
X-9126692Y9233819D01*
X-9101057Y9265057D01*
X-9069819Y9290692D01*
X-9034177Y9309744D01*
X-8995506Y9321475D01*
X-8949152Y9326040D01*
X-8297928Y9326040D01*
X-8251574Y9321475D01*
X-8251574Y9321475D01*
G37*
G36*
X7742186Y9893595D02*
X7780857Y9881864D01*
X7816499Y9862812D01*
X7847737Y9837177D01*
X7873372Y9805939D01*
X7892424Y9770297D01*
X7904155Y9731626D01*
X7908720Y9685272D01*
X7908720Y9034048D01*
X7904155Y8987694D01*
X7892424Y8949023D01*
X7873372Y8913381D01*
X7847737Y8882143D01*
X7816499Y8856508D01*
X7780857Y8837456D01*
X7742186Y8825725D01*
X7695832Y8821160D01*
X6619608Y8821160D01*
X6573254Y8825725D01*
X6534583Y8837456D01*
X6498941Y8856508D01*
X6467703Y8882143D01*
X6442068Y8913381D01*
X6423016Y8949023D01*
X6411285Y8987694D01*
X6406720Y9034048D01*
X6406720Y9685272D01*
X6411285Y9731626D01*
X6423016Y9770297D01*
X6442068Y9805939D01*
X6467703Y9837177D01*
X6498941Y9862812D01*
X6534583Y9881864D01*
X6573254Y9893595D01*
X6619608Y9898160D01*
X7695832Y9898160D01*
X7742186Y9893595D01*
X7742186Y9893595D01*
G37*
G36*
X4821186Y10229355D02*
X4859857Y10217624D01*
X4895499Y10198572D01*
X4926737Y10172937D01*
X4952372Y10141699D01*
X4971424Y10106057D01*
X4983155Y10067386D01*
X4987720Y10021032D01*
X4987720Y9369808D01*
X4983155Y9323454D01*
X4971424Y9284783D01*
X4952372Y9249141D01*
X4926737Y9217903D01*
X4895499Y9192268D01*
X4859857Y9173216D01*
X4821186Y9161485D01*
X4774832Y9156920D01*
X3698608Y9156920D01*
X3652254Y9161485D01*
X3613583Y9173216D01*
X3577941Y9192268D01*
X3546703Y9217903D01*
X3521068Y9249141D01*
X3502016Y9284783D01*
X3490285Y9323454D01*
X3485720Y9369808D01*
X3485720Y10021032D01*
X3490285Y10067386D01*
X3502016Y10106057D01*
X3521068Y10141699D01*
X3546703Y10172937D01*
X3577941Y10198572D01*
X3613583Y10217624D01*
X3652254Y10229355D01*
X3698608Y10233920D01*
X4774832Y10233920D01*
X4821186Y10229355D01*
X4821186Y10229355D01*
G37*
G36*
X1803666Y10249675D02*
X1842337Y10237944D01*
X1877979Y10218892D01*
X1909217Y10193257D01*
X1934852Y10162019D01*
X1953904Y10126377D01*
X1965635Y10087706D01*
X1970200Y10041352D01*
X1970200Y9390128D01*
X1965635Y9343774D01*
X1953904Y9305103D01*
X1934852Y9269461D01*
X1909217Y9238223D01*
X1877979Y9212588D01*
X1842337Y9193536D01*
X1803666Y9181805D01*
X1757312Y9177240D01*
X681088Y9177240D01*
X634734Y9181805D01*
X596063Y9193536D01*
X560421Y9212588D01*
X529183Y9238223D01*
X503548Y9269461D01*
X484496Y9305103D01*
X472765Y9343774D01*
X468200Y9390128D01*
X468200Y10041352D01*
X472765Y10087706D01*
X484496Y10126377D01*
X503548Y10162019D01*
X529183Y10193257D01*
X560421Y10218892D01*
X596063Y10237944D01*
X634734Y10249675D01*
X681088Y10254240D01*
X1757312Y10254240D01*
X1803666Y10249675D01*
X1803666Y10249675D01*
G37*
G36*
X-3438894Y10269995D02*
X-3400223Y10258264D01*
X-3364581Y10239212D01*
X-3333343Y10213577D01*
X-3307708Y10182339D01*
X-3288656Y10146697D01*
X-3276925Y10108026D01*
X-3272360Y10061672D01*
X-3272360Y9410448D01*
X-3276925Y9364094D01*
X-3288656Y9325423D01*
X-3307708Y9289781D01*
X-3333343Y9258543D01*
X-3364581Y9232908D01*
X-3400223Y9213856D01*
X-3438894Y9202125D01*
X-3485248Y9197560D01*
X-4561472Y9197560D01*
X-4607826Y9202125D01*
X-4646497Y9213856D01*
X-4682139Y9232908D01*
X-4713377Y9258543D01*
X-4739012Y9289781D01*
X-4758064Y9325423D01*
X-4769795Y9364094D01*
X-4774360Y9410448D01*
X-4774360Y10061672D01*
X-4769795Y10108026D01*
X-4758064Y10146697D01*
X-4739012Y10182339D01*
X-4713377Y10213577D01*
X-4682139Y10239212D01*
X-4646497Y10258264D01*
X-4607826Y10269995D01*
X-4561472Y10274560D01*
X-3485248Y10274560D01*
X-3438894Y10269995D01*
X-3438894Y10269995D01*
G37*
G36*
X-538214Y10275075D02*
X-499543Y10263344D01*
X-463901Y10244292D01*
X-432663Y10218657D01*
X-407028Y10187419D01*
X-387976Y10151777D01*
X-376245Y10113106D01*
X-371680Y10066752D01*
X-371680Y9415528D01*
X-376245Y9369174D01*
X-387976Y9330503D01*
X-407028Y9294861D01*
X-432663Y9263623D01*
X-463901Y9237988D01*
X-499543Y9218936D01*
X-538214Y9207205D01*
X-584568Y9202640D01*
X-1660792Y9202640D01*
X-1707146Y9207205D01*
X-1745817Y9218936D01*
X-1781459Y9237988D01*
X-1812697Y9263623D01*
X-1838332Y9294861D01*
X-1857384Y9330503D01*
X-1869115Y9369174D01*
X-1873680Y9415528D01*
X-1873680Y10066752D01*
X-1869115Y10113106D01*
X-1857384Y10151777D01*
X-1838332Y10187419D01*
X-1812697Y10218657D01*
X-1781459Y10244292D01*
X-1745817Y10263344D01*
X-1707146Y10275075D01*
X-1660792Y10279640D01*
X-584568Y10279640D01*
X-538214Y10275075D01*
X-538214Y10275075D01*
G37*
G36*
X-6243054Y11133115D02*
X-6204383Y11121384D01*
X-6168741Y11102332D01*
X-6137503Y11076697D01*
X-6111868Y11045459D01*
X-6092816Y11009817D01*
X-6081085Y10971146D01*
X-6076520Y10924792D01*
X-6076520Y10273569D01*
X-6081085Y10227214D01*
X-6092816Y10188543D01*
X-6111868Y10152901D01*
X-6137503Y10121663D01*
X-6168741Y10096028D01*
X-6204383Y10076976D01*
X-6243054Y10065245D01*
X-6289408Y10060680D01*
X-7365632Y10060680D01*
X-7411986Y10065245D01*
X-7450657Y10076976D01*
X-7486299Y10096028D01*
X-7517537Y10121663D01*
X-7543172Y10152901D01*
X-7562224Y10188543D01*
X-7573955Y10227214D01*
X-7578520Y10273569D01*
X-7578520Y10924792D01*
X-7573955Y10971146D01*
X-7562224Y11009817D01*
X-7543172Y11045459D01*
X-7517537Y11076697D01*
X-7486299Y11102332D01*
X-7450657Y11121384D01*
X-7411986Y11133115D01*
X-7365632Y11137680D01*
X-6289408Y11137680D01*
X-6243054Y11133115D01*
X-6243054Y11133115D01*
G37*
G36*
X7742186Y11768595D02*
X7780857Y11756864D01*
X7816499Y11737812D01*
X7847737Y11712177D01*
X7873372Y11680939D01*
X7892424Y11645297D01*
X7904155Y11606626D01*
X7908720Y11560272D01*
X7908720Y10909048D01*
X7904155Y10862694D01*
X7892424Y10824023D01*
X7873372Y10788381D01*
X7847737Y10757143D01*
X7816499Y10731508D01*
X7780857Y10712456D01*
X7742186Y10700725D01*
X7695832Y10696160D01*
X6619608Y10696160D01*
X6573254Y10700725D01*
X6534583Y10712456D01*
X6498941Y10731508D01*
X6467703Y10757143D01*
X6442068Y10788381D01*
X6423016Y10824023D01*
X6411285Y10862694D01*
X6406720Y10909048D01*
X6406720Y11560272D01*
X6411285Y11606626D01*
X6423016Y11645297D01*
X6442068Y11680939D01*
X6467703Y11712177D01*
X6498941Y11737812D01*
X6534583Y11756864D01*
X6573254Y11768595D01*
X6619608Y11773160D01*
X7695832Y11773160D01*
X7742186Y11768595D01*
X7742186Y11768595D01*
G37*
G36*
X-6243054Y13008115D02*
X-6204383Y12996384D01*
X-6168741Y12977332D01*
X-6137503Y12951697D01*
X-6111868Y12920459D01*
X-6092816Y12884817D01*
X-6081085Y12846146D01*
X-6076520Y12799792D01*
X-6076520Y12148568D01*
X-6081085Y12102214D01*
X-6092816Y12063543D01*
X-6111868Y12027901D01*
X-6137503Y11996663D01*
X-6168741Y11971028D01*
X-6204383Y11951976D01*
X-6243054Y11940245D01*
X-6289408Y11935680D01*
X-7365632Y11935680D01*
X-7411986Y11940245D01*
X-7450657Y11951976D01*
X-7486299Y11971028D01*
X-7517537Y11996663D01*
X-7543172Y12027901D01*
X-7562224Y12063543D01*
X-7573955Y12102214D01*
X-7578520Y12148568D01*
X-7578520Y12799792D01*
X-7573955Y12846146D01*
X-7562224Y12884817D01*
X-7543172Y12920459D01*
X-7517537Y12951697D01*
X-7486299Y12977332D01*
X-7450657Y12996384D01*
X-7411986Y13008115D01*
X-7365632Y13012680D01*
X-6289408Y13012680D01*
X-6243054Y13008115D01*
X-6243054Y13008115D01*
G37*
G36*
X-9683040Y11950360D02*
X-11785040Y11950360D01*
X-11785040Y16552360D01*
X-9683040Y16552360D01*
X-9683040Y11950360D01*
X-9683040Y11950360D01*
G37*
G36*
X3151000Y12099000D02*
X-3151000Y12099000D01*
X-3151000Y13401000D01*
X3151000Y13401000D01*
X3151000Y12099000D01*
X3151000Y12099000D01*
G37*
G36*
X7293226Y13934115D02*
X7331897Y13922384D01*
X7367539Y13903332D01*
X7398777Y13877697D01*
X7424412Y13846459D01*
X7443464Y13810817D01*
X7455195Y13772146D01*
X7459760Y13725792D01*
X7459760Y12649568D01*
X7455195Y12603214D01*
X7443464Y12564543D01*
X7424412Y12528901D01*
X7398777Y12497663D01*
X7367539Y12472028D01*
X7331897Y12452976D01*
X7293226Y12441245D01*
X7246872Y12436680D01*
X6595648Y12436680D01*
X6549294Y12441245D01*
X6510623Y12452976D01*
X6474981Y12472028D01*
X6443743Y12497663D01*
X6418108Y12528901D01*
X6399056Y12564543D01*
X6387325Y12603214D01*
X6382760Y12649568D01*
X6382760Y13725792D01*
X6387325Y13772146D01*
X6399056Y13810817D01*
X6418108Y13846459D01*
X6443743Y13877697D01*
X6474981Y13903332D01*
X6510623Y13922384D01*
X6549294Y13934115D01*
X6595648Y13938680D01*
X7246872Y13938680D01*
X7293226Y13934115D01*
X7293226Y13934115D01*
G37*
G36*
X9168226Y13934115D02*
X9206897Y13922384D01*
X9242539Y13903332D01*
X9273777Y13877697D01*
X9299412Y13846459D01*
X9318464Y13810817D01*
X9330195Y13772146D01*
X9334760Y13725792D01*
X9334760Y12649568D01*
X9330195Y12603214D01*
X9318464Y12564543D01*
X9299412Y12528901D01*
X9273777Y12497663D01*
X9242539Y12472028D01*
X9206897Y12452976D01*
X9168226Y12441245D01*
X9121872Y12436680D01*
X8470648Y12436680D01*
X8424294Y12441245D01*
X8385623Y12452976D01*
X8349981Y12472028D01*
X8318743Y12497663D01*
X8293108Y12528901D01*
X8274056Y12564543D01*
X8262325Y12603214D01*
X8257760Y12649568D01*
X8257760Y13725792D01*
X8262325Y13772146D01*
X8274056Y13810817D01*
X8293108Y13846459D01*
X8318743Y13877697D01*
X8349981Y13903332D01*
X8385623Y13922384D01*
X8424294Y13934115D01*
X8470648Y13938680D01*
X9121872Y13938680D01*
X9168226Y13934115D01*
X9168226Y13934115D01*
G37*
G36*
X4901000Y13849000D02*
X3599000Y13849000D01*
X3599000Y20151000D01*
X4901000Y20151000D01*
X4901000Y13849000D01*
X4901000Y13849000D01*
G37*
G36*
X-3599000Y13849000D02*
X-4901000Y13849000D01*
X-4901000Y20151000D01*
X-3599000Y20151000D01*
X-3599000Y13849000D01*
X-3599000Y13849000D01*
G37*
G36*
X12401869Y16417464D02*
X12528800Y16392216D01*
X12688222Y16326181D01*
X12831698Y16230314D01*
X12953714Y16108298D01*
X13049581Y15964822D01*
X13115616Y15805400D01*
X13149280Y15636159D01*
X13149280Y15463601D01*
X13115616Y15294360D01*
X13049581Y15134938D01*
X12953714Y14991462D01*
X12831698Y14869446D01*
X12688222Y14773579D01*
X12528800Y14707544D01*
X12401869Y14682296D01*
X12359560Y14673880D01*
X12187000Y14673880D01*
X12144691Y14682296D01*
X12017760Y14707544D01*
X11858338Y14773579D01*
X11714862Y14869446D01*
X11592846Y14991462D01*
X11496979Y15134938D01*
X11430944Y15294360D01*
X11397280Y15463601D01*
X11397280Y15636159D01*
X11430944Y15805400D01*
X11496979Y15964822D01*
X11592846Y16108298D01*
X11714862Y16230314D01*
X11858338Y16326181D01*
X12017760Y16392216D01*
X12144691Y16417464D01*
X12187000Y16425880D01*
X12359560Y16425880D01*
X12401869Y16417464D01*
X12401869Y16417464D01*
G37*
G36*
X-14477734Y17081795D02*
X-14439063Y17070064D01*
X-14403421Y17051012D01*
X-14372183Y17025377D01*
X-14346548Y16994139D01*
X-14327496Y16958497D01*
X-14315765Y16919826D01*
X-14311200Y16873472D01*
X-14311200Y16222248D01*
X-14315765Y16175894D01*
X-14327496Y16137223D01*
X-14346548Y16101581D01*
X-14372183Y16070343D01*
X-14403421Y16044708D01*
X-14439063Y16025656D01*
X-14477734Y16013925D01*
X-14524088Y16009360D01*
X-15600312Y16009360D01*
X-15646666Y16013925D01*
X-15685337Y16025656D01*
X-15720979Y16044708D01*
X-15752217Y16070343D01*
X-15777852Y16101581D01*
X-15796904Y16137223D01*
X-15808635Y16175894D01*
X-15813200Y16222248D01*
X-15813200Y16873472D01*
X-15808635Y16919826D01*
X-15796904Y16958497D01*
X-15777852Y16994139D01*
X-15752217Y17025377D01*
X-15720979Y17051012D01*
X-15685337Y17070064D01*
X-15646666Y17081795D01*
X-15600312Y17086360D01*
X-14524088Y17086360D01*
X-14477734Y17081795D01*
X-14477734Y17081795D01*
G37*
G36*
X12382283Y18961360D02*
X12528800Y18932216D01*
X12688222Y18866181D01*
X12831698Y18770314D01*
X12953714Y18648298D01*
X13049581Y18504822D01*
X13115616Y18345400D01*
X13149280Y18176159D01*
X13149280Y18003601D01*
X13115616Y17834360D01*
X13049581Y17674938D01*
X12953714Y17531462D01*
X12831698Y17409446D01*
X12688222Y17313579D01*
X12528800Y17247544D01*
X12401869Y17222296D01*
X12359560Y17213880D01*
X12187000Y17213880D01*
X12144691Y17222296D01*
X12017760Y17247544D01*
X11858338Y17313579D01*
X11714862Y17409446D01*
X11592846Y17531462D01*
X11496979Y17674938D01*
X11430944Y17834360D01*
X11397280Y18003601D01*
X11397280Y18176159D01*
X11430944Y18345400D01*
X11496979Y18504822D01*
X11592846Y18648298D01*
X11714862Y18770314D01*
X11858338Y18866181D01*
X12017760Y18932216D01*
X12164277Y18961360D01*
X12187000Y18965880D01*
X12359560Y18965880D01*
X12382283Y18961360D01*
X12382283Y18961360D01*
G37*
G36*
X15251749Y18977784D02*
X15378680Y18952536D01*
X15538102Y18886501D01*
X15681578Y18790634D01*
X15803594Y18668618D01*
X15899461Y18525142D01*
X15965496Y18365720D01*
X15999160Y18196479D01*
X15999160Y18023921D01*
X15965496Y17854680D01*
X15899461Y17695258D01*
X15803594Y17551782D01*
X15681578Y17429766D01*
X15538102Y17333899D01*
X15378680Y17267864D01*
X15251749Y17242616D01*
X15209440Y17234200D01*
X15036880Y17234200D01*
X14994571Y17242616D01*
X14867640Y17267864D01*
X14708218Y17333899D01*
X14564742Y17429766D01*
X14442726Y17551782D01*
X14346859Y17695258D01*
X14280824Y17854680D01*
X14247160Y18023921D01*
X14247160Y18196479D01*
X14280824Y18365720D01*
X14346859Y18525142D01*
X14442726Y18668618D01*
X14564742Y18790634D01*
X14708218Y18886501D01*
X14867640Y18952536D01*
X14994571Y18977784D01*
X15036880Y18986200D01*
X15209440Y18986200D01*
X15251749Y18977784D01*
X15251749Y18977784D01*
G37*
G36*
X-14477734Y18956795D02*
X-14439063Y18945064D01*
X-14403421Y18926012D01*
X-14372183Y18900377D01*
X-14346548Y18869139D01*
X-14327496Y18833497D01*
X-14315765Y18794826D01*
X-14311200Y18748472D01*
X-14311200Y18097248D01*
X-14315765Y18050894D01*
X-14327496Y18012223D01*
X-14346548Y17976581D01*
X-14372183Y17945343D01*
X-14403421Y17919708D01*
X-14439063Y17900656D01*
X-14477734Y17888925D01*
X-14524088Y17884360D01*
X-15600312Y17884360D01*
X-15646666Y17888925D01*
X-15685337Y17900656D01*
X-15720979Y17919708D01*
X-15752217Y17945343D01*
X-15777852Y17976581D01*
X-15796904Y18012223D01*
X-15808635Y18050894D01*
X-15813200Y18097248D01*
X-15813200Y18748472D01*
X-15808635Y18794826D01*
X-15796904Y18833497D01*
X-15777852Y18869139D01*
X-15752217Y18900377D01*
X-15720979Y18926012D01*
X-15685337Y18945064D01*
X-15646666Y18956795D01*
X-15600312Y18961360D01*
X-14524088Y18961360D01*
X-14477734Y18956795D01*
X-14477734Y18956795D01*
G37*
G36*
X10134476Y23223469D02*
X10168133Y23213259D01*
X10199147Y23196682D01*
X10226332Y23174372D01*
X10248642Y23147187D01*
X10265219Y23116173D01*
X10275429Y23082516D01*
X10279480Y23041382D01*
X10279480Y19811658D01*
X10275429Y19770524D01*
X10265219Y19736867D01*
X10248642Y19705853D01*
X10226332Y19678668D01*
X10199147Y19656358D01*
X10168133Y19639781D01*
X10134476Y19629571D01*
X10093342Y19625520D01*
X8763618Y19625520D01*
X8722484Y19629571D01*
X8688827Y19639781D01*
X8657813Y19656358D01*
X8630628Y19678668D01*
X8608318Y19705853D01*
X8591741Y19736867D01*
X8581531Y19770524D01*
X8577480Y19811658D01*
X8577480Y23041382D01*
X8581531Y23082516D01*
X8591741Y23116173D01*
X8608318Y23147187D01*
X8630628Y23174372D01*
X8657813Y23196682D01*
X8688827Y23213259D01*
X8722484Y23223469D01*
X8763618Y23227520D01*
X10093342Y23227520D01*
X10134476Y23223469D01*
X10134476Y23223469D01*
G37*
G36*
X15251749Y21517784D02*
X15378680Y21492536D01*
X15538102Y21426501D01*
X15681578Y21330634D01*
X15803594Y21208618D01*
X15899461Y21065142D01*
X15965496Y20905720D01*
X15999160Y20736479D01*
X15999160Y20563921D01*
X15965496Y20394680D01*
X15899461Y20235258D01*
X15803594Y20091782D01*
X15681578Y19969766D01*
X15538102Y19873899D01*
X15378680Y19807864D01*
X15251749Y19782616D01*
X15209440Y19774200D01*
X15036880Y19774200D01*
X14994571Y19782616D01*
X14867640Y19807864D01*
X14708218Y19873899D01*
X14564742Y19969766D01*
X14442726Y20091782D01*
X14346859Y20235258D01*
X14280824Y20394680D01*
X14247160Y20563921D01*
X14247160Y20736479D01*
X14280824Y20905720D01*
X14346859Y21065142D01*
X14442726Y21208618D01*
X14564742Y21330634D01*
X14708218Y21426501D01*
X14867640Y21492536D01*
X14994571Y21517784D01*
X15036880Y21526200D01*
X15209440Y21526200D01*
X15251749Y21517784D01*
X15251749Y21517784D01*
G37*
G36*
X-6329414Y21120395D02*
X-6290743Y21108664D01*
X-6255101Y21089612D01*
X-6223863Y21063977D01*
X-6198228Y21032739D01*
X-6179176Y20997097D01*
X-6167445Y20958426D01*
X-6162880Y20912072D01*
X-6162880Y20260848D01*
X-6167445Y20214494D01*
X-6179176Y20175823D01*
X-6198228Y20140181D01*
X-6223863Y20108943D01*
X-6255101Y20083308D01*
X-6290743Y20064256D01*
X-6329414Y20052525D01*
X-6375768Y20047960D01*
X-7451992Y20047960D01*
X-7498346Y20052525D01*
X-7537017Y20064256D01*
X-7572659Y20083308D01*
X-7603897Y20108943D01*
X-7629532Y20140181D01*
X-7648584Y20175823D01*
X-7660315Y20214494D01*
X-7664880Y20260848D01*
X-7664880Y20912072D01*
X-7660315Y20958426D01*
X-7648584Y20997097D01*
X-7629532Y21032739D01*
X-7603897Y21063977D01*
X-7572659Y21089612D01*
X-7537017Y21108664D01*
X-7498346Y21120395D01*
X-7451992Y21124960D01*
X-6375768Y21124960D01*
X-6329414Y21120395D01*
X-6329414Y21120395D01*
G37*
G36*
X-9683040Y20450360D02*
X-11785040Y20450360D01*
X-11785040Y25052360D01*
X-9683040Y25052360D01*
X-9683040Y20450360D01*
X-9683040Y20450360D01*
G37*
G36*
X-14401534Y21577595D02*
X-14362863Y21565864D01*
X-14327221Y21546812D01*
X-14295983Y21521177D01*
X-14270348Y21489939D01*
X-14251296Y21454297D01*
X-14239565Y21415626D01*
X-14235000Y21369272D01*
X-14235000Y20718048D01*
X-14239565Y20671694D01*
X-14251296Y20633023D01*
X-14270348Y20597381D01*
X-14295983Y20566143D01*
X-14327221Y20540508D01*
X-14362863Y20521456D01*
X-14401534Y20509725D01*
X-14447888Y20505160D01*
X-15524112Y20505160D01*
X-15570466Y20509725D01*
X-15609137Y20521456D01*
X-15644779Y20540508D01*
X-15676017Y20566143D01*
X-15701652Y20597381D01*
X-15720704Y20633023D01*
X-15732435Y20671694D01*
X-15737000Y20718048D01*
X-15737000Y21369272D01*
X-15732435Y21415626D01*
X-15720704Y21454297D01*
X-15701652Y21489939D01*
X-15676017Y21521177D01*
X-15644779Y21546812D01*
X-15609137Y21565864D01*
X-15570466Y21577595D01*
X-15524112Y21582160D01*
X-14447888Y21582160D01*
X-14401534Y21577595D01*
X-14401534Y21577595D01*
G37*
G36*
X3151000Y20599000D02*
X-3151000Y20599000D01*
X-3151000Y21901000D01*
X3151000Y21901000D01*
X3151000Y20599000D01*
X3151000Y20599000D01*
G37*
G36*
X-6329414Y22995395D02*
X-6290743Y22983664D01*
X-6255101Y22964612D01*
X-6223863Y22938977D01*
X-6198228Y22907739D01*
X-6179176Y22872097D01*
X-6167445Y22833426D01*
X-6162880Y22787072D01*
X-6162880Y22135848D01*
X-6167445Y22089494D01*
X-6179176Y22050823D01*
X-6198228Y22015181D01*
X-6223863Y21983943D01*
X-6255101Y21958308D01*
X-6290743Y21939256D01*
X-6329414Y21927525D01*
X-6375768Y21922960D01*
X-7451992Y21922960D01*
X-7498346Y21927525D01*
X-7537017Y21939256D01*
X-7572659Y21958308D01*
X-7603897Y21983943D01*
X-7629532Y22015181D01*
X-7648584Y22050823D01*
X-7660315Y22089494D01*
X-7664880Y22135848D01*
X-7664880Y22787072D01*
X-7660315Y22833426D01*
X-7648584Y22872097D01*
X-7629532Y22907739D01*
X-7603897Y22938977D01*
X-7572659Y22964612D01*
X-7537017Y22983664D01*
X-7498346Y22995395D01*
X-7451992Y22999960D01*
X-6375768Y22999960D01*
X-6329414Y22995395D01*
X-6329414Y22995395D01*
G37*
G36*
X-14401534Y23452595D02*
X-14362863Y23440864D01*
X-14327221Y23421812D01*
X-14295983Y23396177D01*
X-14270348Y23364939D01*
X-14251296Y23329297D01*
X-14239565Y23290626D01*
X-14235000Y23244272D01*
X-14235000Y22593048D01*
X-14239565Y22546694D01*
X-14251296Y22508023D01*
X-14270348Y22472381D01*
X-14295983Y22441143D01*
X-14327221Y22415508D01*
X-14362863Y22396456D01*
X-14401534Y22384725D01*
X-14447888Y22380160D01*
X-15524112Y22380160D01*
X-15570466Y22384725D01*
X-15609137Y22396456D01*
X-15644779Y22415508D01*
X-15676017Y22441143D01*
X-15701652Y22472381D01*
X-15720704Y22508023D01*
X-15732435Y22546694D01*
X-15737000Y22593048D01*
X-15737000Y23244272D01*
X-15732435Y23290626D01*
X-15720704Y23329297D01*
X-15701652Y23364939D01*
X-15676017Y23396177D01*
X-15644779Y23421812D01*
X-15609137Y23440864D01*
X-15570466Y23452595D01*
X-15524112Y23457160D01*
X-14447888Y23457160D01*
X-14401534Y23452595D01*
X-14401534Y23452595D01*
G37*
G36*
X3447666Y24337955D02*
X3486337Y24326224D01*
X3521979Y24307172D01*
X3553217Y24281537D01*
X3578852Y24250299D01*
X3597904Y24214657D01*
X3609635Y24175986D01*
X3614200Y24129632D01*
X3614200Y23053408D01*
X3609635Y23007054D01*
X3597904Y22968383D01*
X3578852Y22932741D01*
X3553217Y22901503D01*
X3521979Y22875868D01*
X3486337Y22856816D01*
X3447666Y22845085D01*
X3401312Y22840520D01*
X2750088Y22840520D01*
X2703734Y22845085D01*
X2665063Y22856816D01*
X2629421Y22875868D01*
X2598183Y22901503D01*
X2572548Y22932741D01*
X2553496Y22968383D01*
X2541765Y23007054D01*
X2537200Y23053408D01*
X2537200Y24129632D01*
X2541765Y24175986D01*
X2553496Y24214657D01*
X2572548Y24250299D01*
X2598183Y24281537D01*
X2629421Y24307172D01*
X2665063Y24326224D01*
X2703734Y24337955D01*
X2750088Y24342520D01*
X3401312Y24342520D01*
X3447666Y24337955D01*
X3447666Y24337955D01*
G37*
G36*
X5322666Y24337955D02*
X5361337Y24326224D01*
X5396979Y24307172D01*
X5428217Y24281537D01*
X5453852Y24250299D01*
X5472904Y24214657D01*
X5484635Y24175986D01*
X5489200Y24129632D01*
X5489200Y23053408D01*
X5484635Y23007054D01*
X5472904Y22968383D01*
X5453852Y22932741D01*
X5428217Y22901503D01*
X5396979Y22875868D01*
X5361337Y22856816D01*
X5322666Y22845085D01*
X5276312Y22840520D01*
X4625088Y22840520D01*
X4578734Y22845085D01*
X4540063Y22856816D01*
X4504421Y22875868D01*
X4473183Y22901503D01*
X4447548Y22932741D01*
X4428496Y22968383D01*
X4416765Y23007054D01*
X4412200Y23053408D01*
X4412200Y24129632D01*
X4416765Y24175986D01*
X4428496Y24214657D01*
X4447548Y24250299D01*
X4473183Y24281537D01*
X4504421Y24307172D01*
X4540063Y24326224D01*
X4578734Y24337955D01*
X4625088Y24342520D01*
X5276312Y24342520D01*
X5322666Y24337955D01*
X5322666Y24337955D01*
G37*
G36*
X-4679854Y25196475D02*
X-4641183Y25184744D01*
X-4605541Y25165692D01*
X-4574303Y25140057D01*
X-4548668Y25108819D01*
X-4529616Y25073177D01*
X-4517885Y25034506D01*
X-4513320Y24988152D01*
X-4513320Y23911928D01*
X-4517885Y23865574D01*
X-4529616Y23826903D01*
X-4548668Y23791261D01*
X-4574303Y23760023D01*
X-4605541Y23734388D01*
X-4641183Y23715336D01*
X-4679854Y23703605D01*
X-4726208Y23699040D01*
X-5377432Y23699040D01*
X-5423786Y23703605D01*
X-5462457Y23715336D01*
X-5498099Y23734388D01*
X-5529337Y23760023D01*
X-5554972Y23791261D01*
X-5574024Y23826903D01*
X-5585755Y23865574D01*
X-5590320Y23911928D01*
X-5590320Y24988152D01*
X-5585755Y25034506D01*
X-5574024Y25073177D01*
X-5554972Y25108819D01*
X-5529337Y25140057D01*
X-5498099Y25165692D01*
X-5462457Y25184744D01*
X-5423786Y25196475D01*
X-5377432Y25201040D01*
X-4726208Y25201040D01*
X-4679854Y25196475D01*
X-4679854Y25196475D01*
G37*
G36*
X-6554854Y25196475D02*
X-6516183Y25184744D01*
X-6480541Y25165692D01*
X-6449303Y25140057D01*
X-6423668Y25108819D01*
X-6404616Y25073177D01*
X-6392885Y25034506D01*
X-6388320Y24988152D01*
X-6388320Y23911928D01*
X-6392885Y23865574D01*
X-6404616Y23826903D01*
X-6423668Y23791261D01*
X-6449303Y23760023D01*
X-6480541Y23734388D01*
X-6516183Y23715336D01*
X-6554854Y23703605D01*
X-6601208Y23699040D01*
X-7252432Y23699040D01*
X-7298786Y23703605D01*
X-7337457Y23715336D01*
X-7373099Y23734388D01*
X-7404337Y23760023D01*
X-7429972Y23791261D01*
X-7449024Y23826903D01*
X-7460755Y23865574D01*
X-7465320Y23911928D01*
X-7465320Y24988152D01*
X-7460755Y25034506D01*
X-7449024Y25073177D01*
X-7429972Y25108819D01*
X-7404337Y25140057D01*
X-7373099Y25165692D01*
X-7337457Y25184744D01*
X-7298786Y25196475D01*
X-7252432Y25201040D01*
X-6601208Y25201040D01*
X-6554854Y25196475D01*
X-6554854Y25196475D01*
G37*
G36*
X-568694Y24879595D02*
X-530023Y24867864D01*
X-494381Y24848812D01*
X-463143Y24823177D01*
X-437508Y24791939D01*
X-418456Y24756297D01*
X-406725Y24717626D01*
X-402160Y24671272D01*
X-402160Y24020048D01*
X-406725Y23973694D01*
X-418456Y23935023D01*
X-437508Y23899381D01*
X-463143Y23868143D01*
X-494381Y23842508D01*
X-530023Y23823456D01*
X-568694Y23811725D01*
X-615048Y23807160D01*
X-1691272Y23807160D01*
X-1737626Y23811725D01*
X-1776297Y23823456D01*
X-1811939Y23842508D01*
X-1843177Y23868143D01*
X-1868812Y23899381D01*
X-1887864Y23935023D01*
X-1899595Y23973694D01*
X-1904160Y24020048D01*
X-1904160Y24671272D01*
X-1899595Y24717626D01*
X-1887864Y24756297D01*
X-1868812Y24791939D01*
X-1843177Y24823177D01*
X-1811939Y24848812D01*
X-1776297Y24867864D01*
X-1737626Y24879595D01*
X-1691272Y24884160D01*
X-615048Y24884160D01*
X-568694Y24879595D01*
X-568694Y24879595D01*
G37*
G36*
X10134476Y28823469D02*
X10168133Y28813259D01*
X10199147Y28796682D01*
X10226332Y28774372D01*
X10248642Y28747187D01*
X10265219Y28716173D01*
X10275429Y28682516D01*
X10279480Y28641382D01*
X10279480Y25411658D01*
X10275429Y25370524D01*
X10265219Y25336867D01*
X10248642Y25305853D01*
X10226332Y25278668D01*
X10199147Y25256358D01*
X10168133Y25239781D01*
X10134476Y25229571D01*
X10093342Y25225520D01*
X8763618Y25225520D01*
X8722484Y25229571D01*
X8688827Y25239781D01*
X8657813Y25256358D01*
X8630628Y25278668D01*
X8608318Y25305853D01*
X8591741Y25336867D01*
X8581531Y25370524D01*
X8577480Y25411658D01*
X8577480Y28641382D01*
X8581531Y28682516D01*
X8591741Y28716173D01*
X8608318Y28747187D01*
X8630628Y28774372D01*
X8657813Y28796682D01*
X8688827Y28813259D01*
X8722484Y28823469D01*
X8763618Y28827520D01*
X10093342Y28827520D01*
X10134476Y28823469D01*
X10134476Y28823469D01*
G37*
G36*
X-568694Y26754595D02*
X-530023Y26742864D01*
X-494381Y26723812D01*
X-463143Y26698177D01*
X-437508Y26666939D01*
X-418456Y26631297D01*
X-406725Y26592626D01*
X-402160Y26546272D01*
X-402160Y25895048D01*
X-406725Y25848694D01*
X-418456Y25810023D01*
X-437508Y25774381D01*
X-463143Y25743143D01*
X-494381Y25717508D01*
X-530023Y25698456D01*
X-568694Y25686725D01*
X-615048Y25682160D01*
X-1691272Y25682160D01*
X-1737626Y25686725D01*
X-1776297Y25698456D01*
X-1811939Y25717508D01*
X-1843177Y25743143D01*
X-1868812Y25774381D01*
X-1887864Y25810023D01*
X-1899595Y25848694D01*
X-1904160Y25895048D01*
X-1904160Y26546272D01*
X-1899595Y26592626D01*
X-1887864Y26631297D01*
X-1868812Y26666939D01*
X-1843177Y26698177D01*
X-1811939Y26723812D01*
X-1776297Y26742864D01*
X-1737626Y26754595D01*
X-1691272Y26759160D01*
X-615048Y26759160D01*
X-568694Y26754595D01*
X-568694Y26754595D01*
G37*
G36*
X-3656011Y27954144D02*
X-3529080Y27928896D01*
X-3369658Y27862861D01*
X-3226182Y27766994D01*
X-3104166Y27644978D01*
X-3008299Y27501502D01*
X-2942264Y27342080D01*
X-2908600Y27172839D01*
X-2908600Y27000281D01*
X-2942264Y26831040D01*
X-3008299Y26671618D01*
X-3104166Y26528142D01*
X-3226182Y26406126D01*
X-3369658Y26310259D01*
X-3529080Y26244224D01*
X-3656011Y26218976D01*
X-3698320Y26210560D01*
X-3870880Y26210560D01*
X-3913189Y26218976D01*
X-4040120Y26244224D01*
X-4199542Y26310259D01*
X-4343018Y26406126D01*
X-4465034Y26528142D01*
X-4560901Y26671618D01*
X-4626936Y26831040D01*
X-4660600Y27000281D01*
X-4660600Y27172839D01*
X-4626936Y27342080D01*
X-4560901Y27501502D01*
X-4465034Y27644978D01*
X-4343018Y27766994D01*
X-4199542Y27862861D01*
X-4040120Y27928896D01*
X-3913189Y27954144D01*
X-3870880Y27962560D01*
X-3698320Y27962560D01*
X-3656011Y27954144D01*
X-3656011Y27954144D01*
G37*
G36*
X-6196011Y27954144D02*
X-6069080Y27928896D01*
X-5909658Y27862861D01*
X-5766182Y27766994D01*
X-5644166Y27644978D01*
X-5548299Y27501502D01*
X-5482264Y27342080D01*
X-5448600Y27172839D01*
X-5448600Y27000281D01*
X-5482264Y26831040D01*
X-5548299Y26671618D01*
X-5644166Y26528142D01*
X-5766182Y26406126D01*
X-5909658Y26310259D01*
X-6069080Y26244224D01*
X-6196011Y26218976D01*
X-6238320Y26210560D01*
X-6410880Y26210560D01*
X-6453189Y26218976D01*
X-6580120Y26244224D01*
X-6739542Y26310259D01*
X-6883018Y26406126D01*
X-7005034Y26528142D01*
X-7100901Y26671618D01*
X-7166936Y26831040D01*
X-7200600Y27000281D01*
X-7200600Y27172839D01*
X-7166936Y27342080D01*
X-7100901Y27501502D01*
X-7005034Y27644978D01*
X-6883018Y27766994D01*
X-6739542Y27862861D01*
X-6580120Y27928896D01*
X-6453189Y27954144D01*
X-6410880Y27962560D01*
X-6238320Y27962560D01*
X-6196011Y27954144D01*
X-6196011Y27954144D01*
G37*
G36*
X-8736011Y27954144D02*
X-8609080Y27928896D01*
X-8449658Y27862861D01*
X-8306182Y27766994D01*
X-8184166Y27644978D01*
X-8088299Y27501502D01*
X-8022264Y27342080D01*
X-7988600Y27172839D01*
X-7988600Y27000281D01*
X-8022264Y26831040D01*
X-8088299Y26671618D01*
X-8184166Y26528142D01*
X-8306182Y26406126D01*
X-8449658Y26310259D01*
X-8609080Y26244224D01*
X-8736011Y26218976D01*
X-8778320Y26210560D01*
X-8950880Y26210560D01*
X-8993189Y26218976D01*
X-9120120Y26244224D01*
X-9279542Y26310259D01*
X-9423018Y26406126D01*
X-9545034Y26528142D01*
X-9640901Y26671618D01*
X-9706936Y26831040D01*
X-9740600Y27000281D01*
X-9740600Y27172839D01*
X-9706936Y27342080D01*
X-9640901Y27501502D01*
X-9545034Y27644978D01*
X-9423018Y27766994D01*
X-9279542Y27862861D01*
X-9120120Y27928896D01*
X-8993189Y27954144D01*
X-8950880Y27962560D01*
X-8778320Y27962560D01*
X-8736011Y27954144D01*
X-8736011Y27954144D01*
G37*
G36*
X-11276011Y27954144D02*
X-11149080Y27928896D01*
X-10989658Y27862861D01*
X-10846182Y27766994D01*
X-10724166Y27644978D01*
X-10628299Y27501502D01*
X-10562264Y27342080D01*
X-10528600Y27172839D01*
X-10528600Y27000281D01*
X-10562264Y26831040D01*
X-10628299Y26671618D01*
X-10724166Y26528142D01*
X-10846182Y26406126D01*
X-10989658Y26310259D01*
X-11149080Y26244224D01*
X-11276011Y26218976D01*
X-11318320Y26210560D01*
X-11490880Y26210560D01*
X-11533189Y26218976D01*
X-11660120Y26244224D01*
X-11819542Y26310259D01*
X-11963018Y26406126D01*
X-12085034Y26528142D01*
X-12180901Y26671618D01*
X-12246936Y26831040D01*
X-12280600Y27000281D01*
X-12280600Y27172839D01*
X-12246936Y27342080D01*
X-12180901Y27501502D01*
X-12085034Y27644978D01*
X-11963018Y27766994D01*
X-11819542Y27862861D01*
X-11660120Y27928896D01*
X-11533189Y27954144D01*
X-11490880Y27962560D01*
X-11318320Y27962560D01*
X-11276011Y27954144D01*
X-11276011Y27954144D01*
G37*
G36*
X379485Y30251004D02*
X379487Y30251003D01*
X379488Y30251003D01*
X616255Y30152931D01*
X829342Y30010551D01*
X1010551Y29829342D01*
X1152931Y29616255D01*
X1251004Y29379485D01*
X1301000Y29128139D01*
X1301000Y28871861D01*
X1251004Y28620515D01*
X1152931Y28383745D01*
X1010551Y28170658D01*
X829342Y27989449D01*
X829339Y27989447D01*
X616255Y27847069D01*
X379488Y27748997D01*
X379487Y27748997D01*
X379485Y27748996D01*
X128139Y27699000D01*
X-128139Y27699000D01*
X-379485Y27748996D01*
X-379487Y27748997D01*
X-379488Y27748997D01*
X-616255Y27847069D01*
X-829339Y27989447D01*
X-829342Y27989449D01*
X-1010551Y28170658D01*
X-1152931Y28383745D01*
X-1251004Y28620515D01*
X-1301000Y28871861D01*
X-1301000Y29128139D01*
X-1251004Y29379485D01*
X-1152931Y29616255D01*
X-1010551Y29829342D01*
X-829342Y30010551D01*
X-616255Y30152931D01*
X-379488Y30251003D01*
X-379487Y30251003D01*
X-379485Y30251004D01*
X-128139Y30301000D01*
X128139Y30301000D01*
X379485Y30251004D01*
X379485Y30251004D01*
G37*
M02*
